<svg width="136" height="37" viewBox="0 0 136 37" fill="none" xmlns="http://www.w3.org/2000/svg">
<path d="M5.50257 0.5C6.05486 0.5 6.50257 0.947715 6.50257 1.5V22.2521C6.50257 25.0239 7.01944 27.1028 8.05319 28.4887C9.12028 29.8746 10.9043 30.5676 13.4053 30.5676C15.9063 30.5676 17.6737 29.8746 18.7074 28.4887C19.7745 27.1028 20.308 25.0239 20.308 22.2521V1.5C20.308 0.947713 20.7558 0.5 21.308 0.5H25.8106C26.3629 0.5 26.8106 0.947715 26.8106 1.5V21.3901C26.8106 23.993 26.5605 26.2408 26.0603 28.1338C25.5935 30.0268 24.8265 31.5986 23.7594 32.8493C22.6923 34.1 21.2918 35.0296 19.5577 35.638C17.8571 36.2127 15.7896 36.5 13.3553 36.5C10.8876 36.5 8.80348 36.2127 7.10281 35.638C5.43548 35.0296 4.06828 34.1 3.00119 32.8493C1.9341 31.5986 1.16713 30.0268 0.700277 28.1338C0.233426 26.2408 0 23.993 0 21.3901V1.5C0 0.947716 0.447715 0.5 1 0.5H5.50257Z" fill="#1A54C5"/>
<path fill-rule="evenodd" clip-rule="evenodd" d="M47.5474 10.4887H47.7475V34.8915C47.7475 35.4438 48.1952 35.8915 48.7475 35.8915H53C53.5523 35.8915 54 35.4438 54 34.8915V1.5C54 0.947715 53.5523 0.5 53 0.5H47.4586C47.0833 0.5 46.7395 0.710156 46.5685 1.04422L37.9937 17.7901H37.7936L30 2.5C30 6.40084 30 13 30 13L30.5407 16.1169L36.8116 27.8523C37.1883 28.5572 38.1988 28.5572 38.5755 27.8523L44.8464 16.1169L47.5474 10.4887Z" fill="#1A54C5"/>
<path d="M68.8184 10.9854L71.4814 1.20312H74.9355L70.6201 14H68.3877L68.8184 10.9854ZM66.4014 1.20312L69.0645 10.9854L69.5127 14H67.2539L62.9648 1.20312H66.4014Z" fill="#333333"/>
<path d="M80.0543 1.20312V14H76.9781V1.20312H80.0543Z" fill="#333333"/>
<path d="M87.2824 14H84.4436L84.4611 11.627H87.2824C87.8684 11.627 88.3635 11.4863 88.7678 11.2051C89.1779 10.9238 89.4885 10.5049 89.6994 9.94824C89.9162 9.38574 90.0246 8.69434 90.0246 7.87402V7.32031C90.0246 6.70508 89.9631 6.16602 89.84 5.70312C89.7229 5.23438 89.5471 4.84473 89.3127 4.53418C89.0783 4.21777 88.7854 3.98047 88.4338 3.82227C88.0881 3.66406 87.6896 3.58496 87.2385 3.58496H84.3908V1.20312H87.2385C88.1057 1.20312 88.8996 1.35254 89.6203 1.65137C90.3469 1.94434 90.9738 2.36621 91.5012 2.91699C92.0344 3.46191 92.4445 4.10938 92.7316 4.85938C93.0246 5.60352 93.1711 6.42969 93.1711 7.33789V7.87402C93.1711 8.77637 93.0246 9.60254 92.7316 10.3525C92.4445 11.1025 92.0373 11.75 91.51 12.2949C90.9826 12.8398 90.3586 13.2617 89.6379 13.5605C88.923 13.8535 88.1379 14 87.2824 14ZM86.2102 1.20312V14H83.1252V1.20312H86.2102Z" fill="#333333"/>
<path d="M104.486 11.627V14H97.6658V11.627H104.486ZM98.7645 1.20312V14H95.6795V1.20312H98.7645ZM103.607 6.2832V8.57715H97.6658V6.2832H103.607ZM104.513 1.20312V3.58496H97.6658V1.20312H104.513Z" fill="#333333"/>
<path d="M117.48 7.34668V7.86523C117.48 8.84375 117.342 9.72266 117.067 10.502C116.797 11.2754 116.413 11.9375 115.915 12.4883C115.417 13.0332 114.829 13.4521 114.149 13.7451C113.469 14.0322 112.719 14.1758 111.899 14.1758C111.073 14.1758 110.317 14.0322 109.631 13.7451C108.952 13.4521 108.36 13.0332 107.856 12.4883C107.358 11.9375 106.971 11.2754 106.696 10.502C106.426 9.72266 106.291 8.84375 106.291 7.86523V7.34668C106.291 6.36816 106.426 5.48926 106.696 4.70996C106.971 3.93066 107.355 3.26855 107.847 2.72363C108.345 2.17285 108.934 1.75391 109.614 1.4668C110.299 1.17383 111.055 1.02734 111.881 1.02734C112.702 1.02734 113.452 1.17383 114.131 1.4668C114.817 1.75391 115.409 2.17285 115.907 2.72363C116.405 3.26855 116.791 3.93066 117.067 4.70996C117.342 5.48926 117.48 6.36816 117.48 7.34668ZM114.351 7.86523V7.3291C114.351 6.69629 114.295 6.13965 114.184 5.65918C114.079 5.17285 113.92 4.76562 113.709 4.4375C113.498 4.10938 113.238 3.86328 112.927 3.69922C112.622 3.5293 112.274 3.44434 111.881 3.44434C111.471 3.44434 111.114 3.5293 110.809 3.69922C110.504 3.86328 110.249 4.10938 110.044 4.4375C109.839 4.76562 109.684 5.17285 109.579 5.65918C109.479 6.13965 109.429 6.69629 109.429 7.3291V7.86523C109.429 8.49219 109.479 9.04883 109.579 9.53516C109.684 10.0156 109.839 10.4229 110.044 10.7568C110.255 11.0908 110.513 11.3428 110.818 11.5127C111.128 11.6826 111.489 11.7676 111.899 11.7676C112.291 11.7676 112.64 11.6826 112.945 11.5127C113.249 11.3428 113.504 11.0908 113.709 10.7568C113.92 10.4229 114.079 10.0156 114.184 9.53516C114.295 9.04883 114.351 8.49219 114.351 7.86523Z" fill="#333333"/>
<path d="M70.5674 32.5986C70.5674 32.3994 70.5381 32.2207 70.4795 32.0625C70.4209 31.8984 70.3125 31.7461 70.1543 31.6055C69.9961 31.4648 69.7676 31.3242 69.4688 31.1836C69.1758 31.0371 68.7891 30.8848 68.3086 30.7266C67.7461 30.5391 67.2041 30.3281 66.6826 30.0938C66.1611 29.8535 65.6953 29.5752 65.2852 29.2588C64.875 28.9365 64.5498 28.5615 64.3096 28.1338C64.0693 27.7002 63.9492 27.1963 63.9492 26.6221C63.9492 26.0713 64.0723 25.5762 64.3184 25.1367C64.5645 24.6914 64.9072 24.3135 65.3467 24.0029C65.792 23.6865 66.3135 23.4463 66.9111 23.2822C67.5088 23.1123 68.1621 23.0273 68.8711 23.0273C69.8086 23.0273 70.6348 23.1914 71.3496 23.5195C72.0703 23.8418 72.6328 24.3018 73.0371 24.8994C73.4473 25.4912 73.6523 26.1914 73.6523 27H70.585C70.585 26.6777 70.5176 26.3936 70.3828 26.1475C70.2539 25.9014 70.0576 25.708 69.7939 25.5674C69.5303 25.4268 69.1992 25.3564 68.8008 25.3564C68.4141 25.3564 68.0889 25.415 67.8252 25.5322C67.5615 25.6494 67.3623 25.8076 67.2275 26.0068C67.0928 26.2002 67.0254 26.4141 67.0254 26.6484C67.0254 26.8418 67.0781 27.0176 67.1836 27.1758C67.2949 27.3281 67.4502 27.4717 67.6494 27.6064C67.8545 27.7412 68.1006 27.8701 68.3877 27.9932C68.6807 28.1162 69.0088 28.2363 69.3721 28.3535C70.0518 28.5703 70.6553 28.8135 71.1826 29.083C71.7158 29.3467 72.1641 29.6484 72.5273 29.9883C72.8965 30.3223 73.1748 30.7031 73.3623 31.1309C73.5557 31.5586 73.6523 32.042 73.6523 32.5811C73.6523 33.1553 73.541 33.665 73.3184 34.1104C73.0957 34.5557 72.7764 34.9336 72.3604 35.2441C71.9443 35.5488 71.4463 35.7803 70.8662 35.9385C70.2861 36.0967 69.6387 36.1758 68.9238 36.1758C68.2676 36.1758 67.6201 36.0938 66.9814 35.9297C66.3486 35.7598 65.7744 35.502 65.2588 35.1562C64.7432 34.8047 64.3301 34.3564 64.0195 33.8115C63.7148 33.2607 63.5625 32.6074 63.5625 31.8516H66.6562C66.6562 32.2266 66.7061 32.543 66.8057 32.8008C66.9053 33.0586 67.0518 33.2666 67.2451 33.4248C67.4385 33.5771 67.6758 33.6885 67.957 33.7588C68.2383 33.8232 68.5605 33.8555 68.9238 33.8555C69.3164 33.8555 69.6328 33.7998 69.873 33.6885C70.1133 33.5713 70.2891 33.4189 70.4004 33.2314C70.5117 33.0381 70.5674 32.8271 70.5674 32.5986Z" fill="#333333"/>
<path d="M83.0865 23.2031H86.1715V31.5615C86.1715 32.5576 85.9635 33.4014 85.5475 34.0928C85.1314 34.7783 84.5484 35.2969 83.7984 35.6484C83.0484 36 82.1666 36.1758 81.1529 36.1758C80.151 36.1758 79.2691 36 78.5074 35.6484C77.7516 35.2969 77.1598 34.7783 76.732 34.0928C76.3102 33.4014 76.0992 32.5576 76.0992 31.5615V23.2031H79.193V31.5615C79.193 32.0889 79.2691 32.5195 79.4215 32.8535C79.5738 33.1816 79.7965 33.4219 80.0895 33.5742C80.3824 33.7266 80.7369 33.8027 81.1529 33.8027C81.5748 33.8027 81.9293 33.7266 82.2164 33.5742C82.5035 33.4219 82.7203 33.1816 82.8668 32.8535C83.0133 32.5195 83.0865 32.0889 83.0865 31.5615V23.2031Z" fill="#333333"/>
<path d="M89.0139 23.2031H94.05C95.0344 23.2031 95.8898 23.3496 96.6164 23.6426C97.343 23.9355 97.9025 24.3691 98.2951 24.9434C98.6936 25.5176 98.8928 26.2266 98.8928 27.0703C98.8928 27.8027 98.7785 28.415 98.55 28.9072C98.3215 29.3994 98.0021 29.8066 97.592 30.1289C97.1877 30.4453 96.716 30.7061 96.177 30.9111L95.1662 31.4824H90.9387L90.9211 29.1006H94.05C94.4426 29.1006 94.7678 29.0303 95.0256 28.8896C95.2834 28.749 95.4768 28.5498 95.6057 28.292C95.7404 28.0283 95.8078 27.7148 95.8078 27.3516C95.8078 26.9824 95.7404 26.666 95.6057 26.4023C95.4709 26.1387 95.2717 25.9365 95.008 25.7959C94.7502 25.6553 94.4309 25.585 94.05 25.585H92.0988V36H89.0139V23.2031ZM96.0187 36L93.1887 30.3398L96.4582 30.3223L99.3234 35.8682V36H96.0187Z" fill="#333333"/>
<path d="M106.323 32.9854L108.986 23.2031H112.44L108.125 36H105.892L106.323 32.9854ZM103.906 23.2031L106.569 32.9854L107.017 36H104.759L100.47 23.2031H103.906Z" fill="#333333"/>
<path d="M123.087 33.627V36H116.267V33.627H123.087ZM117.366 23.2031V36H114.281V23.2031H117.366ZM122.208 28.2832V30.5771H116.267V28.2832H122.208ZM123.114 23.2031V25.585H116.267V23.2031H123.114Z" fill="#333333"/>
<path d="M127.573 23.2031L129.929 28.7578L132.293 23.2031H135.615L131.502 31.4033V36H128.364V31.4033L124.242 23.2031H127.573Z" fill="#333333"/>
</svg>
