<svg width="48" height="48" viewBox="0 0 48 48" fill="none" xmlns="http://www.w3.org/2000/svg">
<path d="M45.3 1.09985H2C1.44772 1.09985 1 1.54757 1 2.09985V45.3999C1 45.9521 1.44772 46.3999 2 46.3999H45.3C45.8523 46.3999 46.3 45.9521 46.3 45.3999V2.09985C46.3 1.54757 45.8523 1.09985 45.3 1.09985Z" stroke="#10243A" stroke-width="1.4173" stroke-miterlimit="10"/>
<path d="M17.225 24.7647L12 29V12.0588C12 11.778 12.1112 11.5087 12.3092 11.3101C12.5071 11.1116 12.7756 11 13.0556 11H29.9444C30.2244 11 30.4929 11.1116 30.6908 11.3101C30.8888 11.5087 31 11.778 31 12.0588V23.7059C31 23.9867 30.8888 24.256 30.6908 24.4546C30.4929 24.6532 30.2244 24.7647 29.9444 24.7647H17.225Z" stroke="#10243A" stroke-width="1.4" stroke-linecap="round" stroke-linejoin="round"/>
<path d="M19 25.4118V30.7059C19 30.9867 19.1112 31.256 19.3092 31.4546C19.5071 31.6532 19.7756 31.7647 20.0556 31.7647H32.775L38 36V19.0588C38 18.778 37.8888 18.5087 37.6908 18.3101C37.4929 18.1116 37.2244 18 36.9444 18H31.6667" stroke="#10243A" stroke-width="1.4" stroke-linecap="round" stroke-linejoin="round"/>
</svg>
