<?xml version="1.0" encoding="utf-8"?>
<!-- Generator: Adobe Illustrator 26.3.1, SVG Export Plug-In . SVG Version: 6.00 Build 0)  -->
<svg version="1.1" id="Layer_1" xmlns="http://www.w3.org/2000/svg" xmlns:xlink="http://www.w3.org/1999/xlink" x="0px" y="0px"
	 viewBox="0 0 200 150" style="enable-background:new 0 0 200 150;" xml:space="preserve">
<style type="text/css">
	.st0{fill:none;stroke:#000000;stroke-width:1.4173;stroke-miterlimit:10;}
	.st1{fill:none;stroke:#000000;stroke-width:1.4173;stroke-linecap:round;stroke-miterlimit:10;}
	.st2{fill:none;stroke:#000000;stroke-width:1.4173;stroke-linecap:round;stroke-miterlimit:10;stroke-dasharray:2.7823,2.7823;}
	.st3{fill:none;stroke:#000000;stroke-width:1.4173;stroke-linecap:round;stroke-miterlimit:10;stroke-dasharray:2.8346;}
</style>
<line class="st0" x1="137" y1="83.3" x2="137" y2="131.9"/>
<line class="st0" x1="141.9" y1="82.3" x2="141.9" y2="131.8"/>
<line class="st0" x1="144.7" y1="81.6" x2="144.7" y2="131.8"/>
<line class="st1" x1="133.5" y1="83.7" x2="162.9" y2="77.9"/>
<path class="st1" d="M112.2,79.6v-13c0,0,0.2-6,2.5-9c0,0,2.6-3.9,6.5-3.9"/>
<path class="st1" d="M133.4,83.5V66.6c0,0-0.3-6-3.4-9c0,0-3.5-3.9-8.8-3.9"/>
<path class="st1" d="M162.9,77.9V66.4c0,0,0.3-5.7-3.4-8.9c0,0-2.5-2.8-6.7-2.8"/>
<line class="st0" x1="140.1" y1="54.3" x2="152.8" y2="54.7"/>
<circle class="st0" cx="138.4" cy="63.9" r="2.5"/>
<path class="st0" d="M137.1,61.5V43.1c0-0.1,0.1-0.1,0.1-0.1h2.5c0.1,0,0.1,0.1,0.1,0.1v18.4"/>
<path class="st0" d="M140,43.8h7.2c0.1,0,0.1,0.1,0.1,0.1v4.4c0,0.1-0.1,0.1-0.1,0.1h-7.9"/>
<g>
	<path class="st1" d="M66.8,59.2c0,0,0.4,0.2,1.3,0.6"/>
	<path class="st2" d="M70.6,61c9.4,4.3,34.7,14.1,58.2,8.5"/>
	<path class="st1" d="M130.1,69.2c0.5-0.1,0.9-0.2,1.4-0.4"/>
</g>
<polygon class="st0" points="11.2,21.4 188.8,21.4 188.8,131.9 116.4,131.9 11.2,131.9 "/>
<line class="st1" x1="133.2" y1="77.6" x2="112.2" y2="79.6"/>
<line class="st1" x1="112.2" y1="79.6" x2="133.5" y2="83.7"/>
<path class="st3" d="M13.1,71.9c0,0,15.4-0.1,25.3,7.6c0,0,12.1,12.4,10.1,19.6c0,0,1.8,12.7-12.8,15.3c0,0-13.7-1.9-10-10.9
	c0,0,4.4-10.6,15.1-7.8c0,0,9.8,4.2,19.4,10.4c0,0,15.4,9,28.3,3.2"/>
<line class="st0" x1="121.3" y1="53.7" x2="136.7" y2="54.2"/>
<line class="st1" x1="149.6" y1="77.4" x2="154.1" y2="76.6"/>
<line class="st1" x1="157" y1="76.1" x2="159.1" y2="75.7"/>
<path class="st1" d="M155,58c0,0,2.5,1.2,3.6,3.5"/>
<g>
	<g>
		<g>
			<path class="st1" d="M80.1,95.3l29.3-10.4c0.1,0,0.2,0.1,0.2,0.2l-5.8,24.3c0,0.1-0.1,0.1-0.2,0.1l-11.2-8.6
				c-0.1-0.1-0.1-0.2,0-0.3l8.1-8.7c0.1-0.1,0-0.1-0.1-0.1L89,98.4c-0.2,0.1-0.5,0.2-0.8,0.1l-8.1-2.9C80,95.5,80,95.3,80.1,95.3z"
				/>
			<line class="st1" x1="94.8" y1="102.9" x2="90.4" y2="108.1"/>
		</g>
		<line class="st1" x1="103.4" y1="99.4" x2="102.1" y2="104"/>
		<line class="st1" x1="104.6" y1="95.2" x2="104.2" y2="96.4"/>
	</g>
	<line class="st1" x1="88.2" y1="98.5" x2="90.4" y2="108.1"/>
	<line class="st1" x1="92.3" y1="100.8" x2="90.4" y2="107.7"/>
</g>
<g>
	<g>
		<path class="st1" d="M74.6,44.7l-8.1,2.9c-0.3,0.1-0.6,0-0.8-0.1l-11.4-6.6c-0.1,0-0.2,0-0.1,0.1l8.1,8.7c0.1,0.1,0.1,0.2,0,0.3
			l-11.2,8.6c-0.1,0-0.2,0-0.2-0.1l-5.8-24.3c0-0.1,0.1-0.2,0.2-0.2l29.3,10.4C74.7,44.4,74.7,44.6,74.6,44.7z"/>
		<line class="st1" x1="64.3" y1="57.2" x2="59.9" y2="52"/>
	</g>
	<line class="st1" x1="52.6" y1="53.1" x2="51.3" y2="48.5"/>
	<line class="st1" x1="50.5" y1="45.5" x2="50.1" y2="44.3"/>
</g>
<line class="st1" x1="66.5" y1="47.6" x2="64.3" y2="57.2"/>
<line class="st1" x1="62.4" y1="49.9" x2="64.3" y2="56.8"/>
</svg>
