<svg width="48" height="48" viewBox="0 0 48 48" fill="none" xmlns="http://www.w3.org/2000/svg">
<path d="M45.3 1.09985H2C1.44772 1.09985 1 1.54757 1 2.09985V45.3999C1 45.9521 1.44772 46.3999 2 46.3999H45.3C45.8523 46.3999 46.3 45.9521 46.3 45.3999V2.09985C46.3 1.54757 45.8523 1.09985 45.3 1.09985Z" stroke="#10243A" stroke-width="1.4173" stroke-miterlimit="10"/>
<path d="M10 13H39V32.8333C39 33.1428 38.8727 33.4395 38.6461 33.6583C38.4195 33.8771 38.1121 34 37.7917 34H11.2083C10.8879 34 10.5805 33.8771 10.3539 33.6583C10.1273 33.4395 10 33.1428 10 32.8333V13Z" stroke="#10243A" stroke-width="1.5" stroke-linecap="round" stroke-linejoin="round"/>
<path d="M39 13L24.5 26.125L10 13" stroke="#10243A" stroke-width="1.5" stroke-linecap="round" stroke-linejoin="round"/>
</svg>
