<svg width="31" height="18" viewBox="0 0 31 18" fill="none" xmlns="http://www.w3.org/2000/svg">
<path d="M8.5 2.75L10.5 3.75H12.5" stroke="black"/>
<path d="M22 3.24988L21.3479 3.57593C21.1241 3.68778 20.8665 3.71171 20.626 3.64294L17.7693 2.82678C17.5907 2.77571 17.4057 2.74977 17.2199 2.74976H14.0704C13.7411 2.74976 13.4169 2.83109 13.1267 2.98645C12.8364 3.14181 12.5889 3.36642 12.4063 3.64038L10 7.24988H12.4648C12.6294 7.24988 12.7915 7.20927 12.9367 7.13159C13.0818 7.05391 13.2055 6.94154 13.2969 6.80457L13.7031 6.19519C13.7945 6.05821 13.9182 5.94585 14.0633 5.86816C14.2085 5.79048 14.3706 5.74988 14.5352 5.74988H15.1972C15.3946 5.74986 15.5877 5.80835 15.7519 5.91785L23.4006 11.0168C23.542 11.1111 23.6627 11.2333 23.7554 11.3759C23.848 11.5184 23.9106 11.6784 23.9393 11.8459C23.968 12.0135 23.9622 12.1851 23.9223 12.3503C23.8824 12.5156 23.8092 12.671 23.7072 12.807L23.6764 12.848C23.4909 13.0954 23.2202 13.2653 22.9167 13.3247C22.6132 13.3842 22.2985 13.329 22.0333 13.1699L18 10.7499" stroke="black" stroke-width="1.00157" stroke-linecap="round" stroke-linejoin="round"/>
<path d="M23.5 10.75L25.5 8.25" stroke="black"/>
<path d="M7 10.75L5 8.75" stroke="black"/>
<path d="M9.99617 0.755859L4.0025 10.2499L0.506189 8.25122" stroke="black" stroke-linecap="round" stroke-linejoin="round"/>
<path d="M11.0058 10.4069L11.0589 10.4419C11.5144 10.7398 11.6397 11.3461 11.3399 11.8011L9.35761 14.8094C9.05781 15.2644 8.44979 15.3908 7.99434 15.0929L7.9412 15.0579C7.48575 14.7599 7.36046 14.1538 7.66026 13.6988L9.64252 10.6905C9.94233 10.2355 10.5503 10.1089 11.0058 10.4069Z" stroke="black" stroke-linecap="round" stroke-linejoin="round"/>
<path d="M12.1521 12.3612C12.6157 12.6645 12.7447 13.2819 12.4413 13.7455L11.0724 15.8374C10.769 16.3009 10.1516 16.4299 9.68806 16.1266C9.22449 15.8232 9.09552 15.2058 9.39889 14.7422L10.7678 12.6504C11.0712 12.1868 11.6886 12.0578 12.1521 12.3612Z" stroke="black" stroke-linecap="round" stroke-linejoin="round"/>
<path d="M13.4857 13.9063C13.9507 14.2074 14.0834 14.8246 13.7831 15.2902L12.8921 16.6718C12.5918 17.1374 11.9758 17.2698 11.5107 16.9686C11.0457 16.6675 10.9131 16.0503 11.2134 15.5847L12.1044 14.2031C12.4046 13.7375 13.0207 13.6051 13.4857 13.9063Z" stroke="black" stroke-linecap="round" stroke-linejoin="round"/>
<path d="M8.64646 10.3929C9.11147 10.694 9.2441 11.3112 8.94385 11.7768L8.05285 13.1584C7.7526 13.624 7.13651 13.7563 6.6715 13.4551C6.20648 13.154 6.07386 12.5368 6.37412 12.0712L7.26511 10.6896C7.56536 10.224 8.18145 10.0917 8.64646 10.3929Z" stroke="black" stroke-linecap="round" stroke-linejoin="round"/>
<path d="M21.0038 0.755859L26.9975 10.2499L30.4938 8.25122" stroke="black" stroke-linecap="round" stroke-linejoin="round"/>
<path d="M22.2514 13.5262L21.8221 14.1176C21.599 14.4249 21.2676 14.6362 20.8947 14.7087C20.5219 14.7813 20.1354 14.7096 19.8133 14.5083L17 12.75" stroke="black" stroke-width="1.00157" stroke-linecap="round" stroke-linejoin="round"/>
<path d="M20.7652 15.007L20.3224 15.6169C20.0964 15.9283 19.7634 16.1452 19.3873 16.2261C19.0112 16.307 18.6184 16.2462 18.2844 16.0553L16 14.75" stroke="black" stroke-width="1.00157" stroke-linecap="round" stroke-linejoin="round"/>
<path d="M18.4075 16.2727L17.9691 16.9427C17.8152 17.1779 17.5855 17.3532 17.3182 17.4398C17.0508 17.5264 16.7619 17.519 16.4994 17.4187L13.5 16.2727" stroke="black" stroke-width="1.00157" stroke-linejoin="round"/>
<path d="M3.5 7.25C3.5 7.38261 3.44732 7.50975 3.35355 7.60352C3.25979 7.69728 3.13261 7.75 3 7.75C2.86739 7.75 2.74022 7.69728 2.64645 7.60352C2.55268 7.50975 2.5 7.38261 2.5 7.25C2.5 7.11739 2.55268 6.99025 2.64645 6.89648C2.74022 6.80272 2.86739 6.75 3 6.75C3.13261 6.75 3.25979 6.80272 3.35355 6.89648C3.44732 6.99025 3.5 7.11739 3.5 7.25Z" fill="black"/>
<path d="M28.5 7.25C28.5 7.38261 28.4473 7.50975 28.3535 7.60352C28.2598 7.69728 28.1326 7.75 28 7.75C27.8674 7.75 27.7402 7.69728 27.6464 7.60352C27.5527 7.50975 27.5 7.38261 27.5 7.25C27.5 7.11739 27.5527 6.99025 27.6464 6.89648C27.7402 6.80272 27.8674 6.75 28 6.75C28.1326 6.75 28.2598 6.80272 28.3535 6.89648C28.4473 6.99025 28.5 7.11739 28.5 7.25Z" fill="black"/>
</svg>
