<svg width="48" height="48" viewBox="0 0 48 48" fill="none" xmlns="http://www.w3.org/2000/svg">
<path d="M45.3 1.09985H2C1.44772 1.09985 1 1.54757 1 2.09985V45.3999C1 45.9521 1.44772 46.3999 2 46.3999H45.3C45.8523 46.3999 46.3 45.9521 46.3 45.3999V2.09985C46.3 1.54757 45.8523 1.09985 45.3 1.09985Z" stroke="#10243A" stroke-width="1.4173" stroke-miterlimit="10"/>
<path d="M34.5639 29.537V18.463C34.5631 18.303 34.5201 18.1461 34.4392 18.0081C34.3584 17.8701 34.2426 17.7558 34.1035 17.6768L24.22 12.1174C24.0868 12.0405 23.9358 12 23.782 12C23.6282 12 23.4771 12.0405 23.344 12.1174L13.4605 17.6768C13.3214 17.7558 13.2056 17.8701 13.1247 18.0081C13.0439 18.1461 13.0009 18.303 13 18.463V29.537C13.0009 29.697 13.0439 29.8539 13.1247 29.9919C13.2056 30.1299 13.3214 30.2442 13.4605 30.3232L23.344 35.8826C23.4771 35.9595 23.6282 36 23.782 36C23.9358 36 24.0868 35.9595 24.22 35.8826L34.1035 30.3232C34.2426 30.2442 34.3584 30.1299 34.4392 29.9919C34.5201 29.8539 34.5631 29.697 34.5639 29.537V29.537Z" stroke="#10243A" stroke-width="1.5" stroke-linecap="round" stroke-linejoin="round"/>
<path d="M29.2854 26.7518V20.9115L18.3911 14.9028" stroke="#10243A" stroke-width="1.5" stroke-linecap="round" stroke-linejoin="round"/>
<path d="M34.4404 18.0024L23.883 23.9999L13.1235 18.0024" stroke="#10243A" stroke-width="1.5" stroke-linecap="round" stroke-linejoin="round"/>
<path d="M23.8828 24L23.7817 35.9949" stroke="#10243A" stroke-width="1.5" stroke-linecap="round" stroke-linejoin="round"/>
</svg>
