<svg width="48" height="48" viewBox="0 0 48 48" fill="none" xmlns="http://www.w3.org/2000/svg">
<path d="M45.3 1.09985H2C1.44772 1.09985 1 1.54757 1 2.09985V45.3999C1 45.9521 1.44772 46.3999 2 46.3999H45.3C45.8523 46.3999 46.3 45.9521 46.3 45.3999V2.09985C46.3 1.54757 45.8523 1.09985 45.3 1.09985Z" stroke="#10243A" stroke-width="1.4173" stroke-miterlimit="10"/>
<path d="M21.25 32.9394H16.75C16.5511 32.9394 16.3603 32.8604 16.2197 32.7197C16.079 32.579 16 32.3883 16 32.1894V27.9987C15.9997 27.9014 16.0185 27.8049 16.0555 27.7148C16.0925 27.6247 16.1469 27.5428 16.2156 27.4737L27.4656 16.2237C27.5354 16.1529 27.6186 16.0966 27.7103 16.0582C27.8021 16.0198 27.9005 16 28 16C28.0995 16 28.1979 16.0198 28.2897 16.0582C28.3814 16.0966 28.4646 16.1529 28.5344 16.2237L32.7156 20.405C32.7865 20.4748 32.8428 20.558 32.8812 20.6497C32.9196 20.7414 32.9394 20.8399 32.9394 20.9394C32.9394 21.0388 32.9196 21.1373 32.8812 21.229C32.8428 21.3208 32.7865 21.404 32.7156 21.4737L21.25 32.9394Z" stroke="#10243A" stroke-width="1.5" stroke-linecap="round" stroke-linejoin="round"/>
<path d="M32.5 32.9395H21.25" stroke="#10243A" stroke-width="1.5" stroke-linecap="round" stroke-linejoin="round"/>
<path d="M25 18.6895L30.25 23.9395" stroke="#10243A" stroke-width="1.5" stroke-linecap="round" stroke-linejoin="round"/>
</svg>
