<svg width="48" height="48" viewBox="0 0 48 48" fill="none" xmlns="http://www.w3.org/2000/svg">
<path d="M45.3 1H2C1.44772 1 1 1.44772 1 2V45.3C1 45.8523 1.44772 46.3 2 46.3H45.3C45.8523 46.3 46.3 45.8523 46.3 45.3V2C46.3 1.44772 45.8523 1 45.3 1Z" stroke="#10243A" stroke-width="1.4173" stroke-miterlimit="10"/>
<path d="M18.8603 24.0826C19.9361 26.3041 21.7324 28.0958 23.9566 29.1658C24.1207 29.2435 24.3021 29.2771 24.4831 29.2634C24.6641 29.2496 24.8385 29.189 24.9889 29.0874L28.2557 26.9051C28.4001 26.8073 28.5669 26.7475 28.7405 26.7315C28.9142 26.7155 29.0891 26.7438 29.2489 26.8137L35.3644 29.4402C35.5734 29.5272 35.748 29.6805 35.8613 29.8765C35.9747 30.0724 36.0204 30.3002 35.9916 30.5248C35.7978 32.0376 35.0593 33.428 33.9145 34.4358C32.7696 35.4436 31.2968 35.9997 29.7715 36C25.0582 36 20.538 34.1276 17.2052 30.7948C13.8724 27.462 12 22.9418 12 18.2285C12.0003 16.7032 12.5564 15.2304 13.5642 14.0855C14.572 12.9407 15.9624 12.2022 17.4752 12.0084C17.6998 11.9796 17.9276 12.0253 18.1235 12.1387C18.3195 12.252 18.4728 12.4266 18.5598 12.6356L21.1863 18.7642C21.2546 18.9215 21.2832 19.0931 21.2695 19.264C21.2559 19.4349 21.2004 19.5999 21.1079 19.7443L18.9257 23.0634C18.8285 23.2135 18.7715 23.386 18.7601 23.5645C18.7486 23.7429 18.7831 23.9213 18.8603 24.0826V24.0826Z" stroke="#10243A" stroke-width="1.6" stroke-linecap="round" stroke-linejoin="round"/>
</svg>
