<svg width="48" height="48" viewBox="0 0 48 48" fill="none" xmlns="http://www.w3.org/2000/svg">
<path d="M45.3 1.09985H2C1.44772 1.09985 1 1.54757 1 2.09985V45.3999C1 45.9521 1.44772 46.3999 2 46.3999H45.3C45.8523 46.3999 46.3 45.9521 46.3 45.3999V2.09985C46.3 1.54757 45.8523 1.09985 45.3 1.09985Z" stroke="#10243A" stroke-width="1.4173" stroke-miterlimit="10"/>
<path d="M13 26V34.9529C13 35.2306 13.1159 35.4969 13.3222 35.6933C13.5285 35.8897 13.8083 36 14.1 36H33.9C34.1917 36 34.4715 35.8897 34.6778 35.6933C34.8841 35.4969 35 35.2306 35 34.9529V26" stroke="#10243A" stroke-width="1.5" stroke-linecap="round" stroke-linejoin="round"/>
<path d="M13.9792 12H34.0208C34.2558 12.002 34.484 12.0837 34.6717 12.2328C34.8595 12.382 34.9968 12.5908 35.0635 12.8286L37 20H11L12.9365 12.8286C13.0032 12.5908 13.1405 12.382 13.3283 12.2328C13.516 12.0837 13.7442 12.002 13.9792 12V12Z" stroke="#10243A" stroke-width="1.5" stroke-linecap="round" stroke-linejoin="round"/>
<path d="M20 20V22C20 23.0609 19.5259 24.0783 18.682 24.8284C17.8381 25.5786 16.6935 26 15.5 26C14.3065 26 13.1619 25.5786 12.318 24.8284C11.4741 24.0783 11 23.0609 11 22V20" stroke="#10243A" stroke-width="1.5" stroke-linecap="round" stroke-linejoin="round"/>
<path d="M28 20V22C28 23.0609 27.5786 24.0783 26.8284 24.8284C26.0783 25.5786 25.0609 26 24 26C22.9391 26 21.9217 25.5786 21.1716 24.8284C20.4214 24.0783 20 23.0609 20 22V20" stroke="#10243A" stroke-width="1.5" stroke-linecap="round" stroke-linejoin="round"/>
<path d="M37 20V22C37 23.0609 36.5259 24.0783 35.682 24.8284C34.8381 25.5786 33.6935 26 32.5 26C31.3065 26 30.1619 25.5786 29.318 24.8284C28.4741 24.0783 28 23.0609 28 22V20" stroke="#10243A" stroke-width="1.5" stroke-linecap="round" stroke-linejoin="round"/>
</svg>
