<svg xmlns="http://www.w3.org/2000/svg" width="60.061" height="37.656" viewBox="0 0 60.061 37.656"><defs><style>.a,.b{fill:#fff;}.a{fill-rule:evenodd;}</style></defs><g transform="translate(-262.209 -350.914)"><g transform="translate(262.21 350.914)"><g transform="translate(7.456)"><path class="a" d="M373.789,350.914a2.7,2.7,0,0,1-.981,2.7,17.183,17.183,0,0,1-8.5,4.077,30.054,30.054,0,0,1-14.163-.838c-2.988-.829-5.959-1.746-8.98-2.442-5.781-1.334-11.242-.158-16.546,2.407a3.591,3.591,0,0,1-1.167,3.366,7.141,7.141,0,0,0-2.2-4.167,5.938,5.938,0,0,1,.683-.484,30.613,30.613,0,0,1,14.588-4.294,34.06,34.06,0,0,1,9.842,1.611c2.871.824,5.73,1.745,8.653,2.3a22.681,22.681,0,0,0,15.071-1.9,35.035,35.035,0,0,0,3.466-2.333Z" transform="translate(-321.252 -350.914)"/></g><g transform="translate(13.42 6.003)"><path class="a" d="M369.8,398.451a1.371,1.371,0,0,1,1.411,1.389,1.445,1.445,0,0,1-1.393,1.436,1.414,1.414,0,0,1-1.341-1.361,1.354,1.354,0,0,1,1.323-1.464" transform="translate(-368.472 -398.451)"/></g><g transform="translate(0 10.86)"><path class="a" d="M262.346,436.911c.282.189.476.3.648.436,4.556,3.6,9.826,4.581,15.459,4.192a45.69,45.69,0,0,0,10.067-2.325,36.327,36.327,0,0,1,10.955-1.959,28.9,28.9,0,0,1,12.628,3.252c.992.49,1.949,1.035,3.162,1.683-1.651,1.022-2.627,2.164-2.441,4.079a2.787,2.787,0,0,1-1.388-2.745.851.851,0,0,0-.562-.985,26.28,26.28,0,0,0-12.4-2.644,38.665,38.665,0,0,0-9.2,1.972,43.426,43.426,0,0,1-10.906,2.278,22.225,22.225,0,0,1-12.775-2.771,16.345,16.345,0,0,1-2.573-1.98,2.185,2.185,0,0,1-.679-2.482" transform="translate(-262.21 -436.911)"/></g><g transform="translate(44.228 17.913)"><path class="a" d="M613.747,492.757a1.367,1.367,0,0,1,1.413,1.387,1.447,1.447,0,0,1-1.393,1.439,1.423,1.423,0,0,1-1.343-1.365,1.349,1.349,0,0,1,1.323-1.462" transform="translate(-612.423 -492.757)"/></g></g><g transform="translate(272.636 378.229)"><path class="b" d="M346.854,567.774l2.758,7.712,2.728-7.712h2.083l-3.978,10.2h-1.666l-4.007-10.2Z" transform="translate(-344.772 -567.702)"/><path class="b" d="M426.959,577.545a4.629,4.629,0,0,1-2.032-.438,4.992,4.992,0,0,1-1.565-1.164,5.4,5.4,0,0,1-1.371-3.568,5.122,5.122,0,0,1,.38-1.953,5.4,5.4,0,0,1,1.048-1.652,5.016,5.016,0,0,1,1.587-1.142,4.712,4.712,0,0,1,2-.424,4.475,4.475,0,0,1,2.018.453,5.04,5.04,0,0,1,1.558,1.185,5.465,5.465,0,0,1,1,1.666,5.246,5.246,0,0,1,.359,1.9,5.155,5.155,0,0,1-.373,1.946,5.289,5.289,0,0,1-1.035,1.638,4.983,4.983,0,0,1-1.579,1.135A4.723,4.723,0,0,1,426.959,577.545ZM424,572.374a4.106,4.106,0,0,0,.2,1.278,3.4,3.4,0,0,0,.582,1.092,2.892,2.892,0,0,0,.933.762,2.69,2.69,0,0,0,1.257.287,2.662,2.662,0,0,0,1.271-.294,2.9,2.9,0,0,0,.934-.783,3.487,3.487,0,0,0,.574-1.1,4.069,4.069,0,0,0,.194-1.242,3.976,3.976,0,0,0-.208-1.278,3.525,3.525,0,0,0-.589-1.091,2.807,2.807,0,0,0-.933-.754,2.907,2.907,0,0,0-2.521.015,2.844,2.844,0,0,0-.933.775,3.5,3.5,0,0,0-.567,1.092A4.089,4.089,0,0,0,424,572.374Z" transform="translate(-412.238 -567.204)"/><path class="b" d="M512.931,577.545a4.629,4.629,0,0,1-2.032-.438,4.988,4.988,0,0,1-1.565-1.164,5.4,5.4,0,0,1-1.371-3.568,5.122,5.122,0,0,1,.38-1.953,5.4,5.4,0,0,1,1.048-1.652,5.014,5.014,0,0,1,1.587-1.142,4.712,4.712,0,0,1,2-.424,4.475,4.475,0,0,1,2.018.453,5.04,5.04,0,0,1,1.558,1.185,5.458,5.458,0,0,1,1,1.666,5.242,5.242,0,0,1,.359,1.9,5.159,5.159,0,0,1-.373,1.946,5.3,5.3,0,0,1-1.035,1.638,4.983,4.983,0,0,1-1.579,1.135A4.722,4.722,0,0,1,512.931,577.545Zm-2.959-5.17a4.1,4.1,0,0,0,.2,1.278,3.4,3.4,0,0,0,.582,1.092,2.89,2.89,0,0,0,.933.762,2.691,2.691,0,0,0,1.257.287,2.662,2.662,0,0,0,1.27-.294,2.9,2.9,0,0,0,.934-.783,3.486,3.486,0,0,0,.574-1.1,4.069,4.069,0,0,0,.194-1.242,3.979,3.979,0,0,0-.208-1.278,3.53,3.53,0,0,0-.589-1.091,2.809,2.809,0,0,0-.933-.754,2.907,2.907,0,0,0-2.521.015,2.841,2.841,0,0,0-.933.775,3.5,3.5,0,0,0-.567,1.092A4.091,4.091,0,0,0,509.972,572.374Z" transform="translate(-487.353 -567.204)"/><path class="b" d="M596.736,569.512h-3.26v8.459h-1.968v-8.459h-3.26v-1.738h8.488Z" transform="translate(-557.5 -567.702)"/></g></g></svg>
