<svg id="visual" viewBox="0 0 960 540" width="960" height="540" xmlns="http://www.w3.org/2000/svg" xmlns:xlink="http://www.w3.org/1999/xlink" version="1.1"><rect x="0" y="0" width="960" height="540" fill="#FFFFFF"></rect><path d="M0 399L40 368.7C80 338.3 160 277.7 240 255.3C320 233 400 249 480 259.8C560 270.7 640 276.3 720 247.7C800 219 880 156 920 124.5L960 93L960 541L920 541C880 541 800 541 720 541C640 541 560 541 480 541C400 541 320 541 240 541C160 541 80 541 40 541L0 541Z" fill="#77A3CA" stroke-linecap="round" stroke-linejoin="miter"></path></svg>