<svg id="visual" viewBox="0 0 960 540" width="960" height="540" xmlns="http://www.w3.org/2000/svg" xmlns:xlink="http://www.w3.org/1999/xlink" version="1.1"><rect x="0" y="0" width="960" height="540" fill="#FFFFFF"></rect><path d="M0 314L40 328.7C80 343.3 160 372.7 240 373.5C320 374.3 400 346.7 480 315.8C560 285 640 251 720 255C800 259 880 301 920 322L960 343L960 0L920 0C880 0 800 0 720 0C640 0 560 0 480 0C400 0 320 0 240 0C160 0 80 0 40 0L0 0Z" fill="#77A3CA" stroke-linecap="round" stroke-linejoin="miter"></path></svg>