<svg id="visual" viewBox="0 0 960 540" width="960" height="540" xmlns="http://www.w3.org/2000/svg" xmlns:xlink="http://www.w3.org/1999/xlink" version="1.1"><rect x="0" y="0" width="960" height="540" fill="#fff"></rect><path xmlns="http://www.w3.org/2000/svg" d="M0 253L22.8 254.3C45.7 255.7 91.3 258.3 137 281.5C182.7 304.7 228.3 348.3 274 365.8C319.7 383.3 365.3 374.7 411.2 377.5C457 380.3 503 394.7 548.8 372.5C594.7 350.3 640.3 291.7 686 269.7C731.7 247.7 777.3 262.3 823 271C868.7 279.7 914.3 282.3 937.2 283.7L960 285L960 0L937.2 0C914.3 0 868.7 0 823 0C777.3 0 731.7 0 686 0C640.3 0 594.7 0 548.8 0C503 0 457 0 411.2 0C365.3 0 319.7 0 274 0C228.3 0 182.7 0 137 0C91.3 0 45.7 0 22.8 0L0 0Z" fill="#bed4ed"/></svg>
