<svg width="48" height="48" viewBox="0 0 48 48" fill="none" xmlns="http://www.w3.org/2000/svg">
<path d="M17.8 20.9C19.8 19.3 28.3 13.8 37.6 21.3C37.6 21.3 27.8 30.3 17.8 21.7C17.6 21.4 17.6 21.1 17.8 20.9Z" stroke="black" stroke-width="1.4173" stroke-miterlimit="10"/>
<path d="M22.4 18.5C22.9 18.8 24.3 21.6 22.2 24.7" stroke="black" stroke-width="1.4173" stroke-miterlimit="10"/>
<path d="M30 19.7002C30 19.7002 31.7 19.9002 32.8 20.7002" stroke="black" stroke-width="1.4173" stroke-miterlimit="10" stroke-linecap="round"/>
<path d="M27.8 19.4001H26.7" stroke="black" stroke-width="1.4173" stroke-miterlimit="10" stroke-linecap="round"/>
<path d="M21.1 21.6C21.2657 21.6 21.4 21.4657 21.4 21.3C21.4 21.1343 21.2657 21 21.1 21C20.9344 21 20.8 21.1343 20.8 21.3C20.8 21.4657 20.9344 21.6 21.1 21.6Z" fill="black" stroke="black" stroke-width="0.9921" stroke-miterlimit="10"/>
<path d="M42.71 22.6242L37.9102 20.9615L42.3483 18.4905L42.71 22.6242Z" stroke="black" stroke-width="1.5"/>
<path d="M11.9 10.5V27.6C11.9 27.6 11.7 31.9 14.8 31.9C14.8 31.9 16.2 32 17.4 31C18.1 30.4 18.6 29.4 19 28.2C19 28.1 19 28 18.9 28L16.4 28.9" stroke="black" stroke-width="1.4173" stroke-miterlimit="10" stroke-linecap="round"/>
<path d="M10 2.6V10.4C10 10.5 10.1 10.5 10.1 10.5H13.7C13.8 10.5 13.8 10.4 13.8 10.4V1" stroke="black" stroke-width="1.4173" stroke-miterlimit="10" stroke-linecap="round"/>
<path d="M45.3 1.09985H2C1.44772 1.09985 1 1.54757 1 2.09985V45.3999C1 45.9521 1.44772 46.3999 2 46.3999H45.3C45.8523 46.3999 46.3 45.9521 46.3 45.3999V2.09985C46.3 1.54757 45.8523 1.09985 45.3 1.09985Z" stroke="black" stroke-width="1.4173" stroke-miterlimit="10"/>
</svg>
