<svg width="48" height="48" viewBox="0 0 48 48" fill="none" xmlns="http://www.w3.org/2000/svg">
<path d="M45.7 1.3999H2.40002C1.84774 1.3999 1.40002 1.84762 1.40002 2.3999V45.6999C1.40002 46.2522 1.84774 46.6999 2.40002 46.6999H45.7C46.2523 46.6999 46.7 46.2522 46.7 45.6999V2.3999C46.7 1.84762 46.2523 1.3999 45.7 1.3999Z" stroke="#10243a" stroke-width="1.4173" stroke-miterlimit="10"/>
<path d="M22.9 30.5C22.6 37.4 27 36.4 27.7 34.6C28.1 33.6 28.3 32.4 28.3 31.3V28.8" stroke="#10243a" stroke-width="1.4173" stroke-miterlimit="10" stroke-linecap="round"/>
<path d="M33.1 36.3H28.4001C28.3001 36.3 28.3 36.2 28.3 36.2V26H33.3V36.2C33.3 36.3 33.2 36.3 33.1 36.3Z" stroke="#10243a" stroke-width="1.4173" stroke-miterlimit="10" stroke-linecap="round"/>
<path d="M30.8 30.5V36.3" stroke="#10243a" stroke-width="1.4173" stroke-miterlimit="10" stroke-linecap="round"/>
<path d="M33.3 26H28.3V11.9C28.3 11.8 28.4001 11.8 28.4001 11.8H33.1C33.2 11.8 33.2001 11.9 33.2001 11.9V26H33.3Z" stroke="#10243a" stroke-width="1.4173" stroke-miterlimit="10" stroke-linecap="round"/>
<path d="M33.3 28.7V31.2C33.3 32.3 33.4001 33.5 33.9001 34.5C34.6001 36.3 39.0001 37.4 38.7001 30.4" stroke="#10243a" stroke-width="1.4173" stroke-miterlimit="10" stroke-linecap="round"/>
<path d="M24.8 14.2001C23 12.1001 19.4 12.4001 17.9 15.1001" stroke="#10243a" stroke-width="1.4173" stroke-miterlimit="10" stroke-linecap="round"/>
<path d="M17.7 36.3H13C12.9 36.3 12.9 36.2001 12.9 36.2001V11.9C12.9 11.8 13 11.8 13 11.8H17.7C17.8 11.8 17.8 11.9 17.8 11.9V36.2001C17.8 36.3001 17.8 36.3 17.7 36.3Z" stroke="#10243a" stroke-width="1.4173" stroke-miterlimit="10" stroke-linecap="round"/>
<path d="M14.8 16.4001V20.3001" stroke="#10243a" stroke-width="1.4173" stroke-miterlimit="10" stroke-linecap="round"/>
<path d="M14.8 22.8V24" stroke="#10243a" stroke-width="1.4173" stroke-miterlimit="10" stroke-linecap="round"/>
</svg>
