<svg width="48" height="48" viewBox="0 0 48 48" fill="none" xmlns="http://www.w3.org/2000/svg">
<path d="M18.15 21.95C17.9 21.65 17.5 21.5 17.1 21.5H14C13.15 21.5 12.5 22.15 12.5 23V33.5C12.5 34.35 13.15 35 14 35H19C19.85 35 20.5 34.35 20.5 33.5V24.9C20.5 24.5 20.35 24.15 20.05 23.85L18.15 21.95ZM19.5 33.5C19.5 33.8 19.3 34 19 34H14C13.7 34 13.5 33.8 13.5 33.5V23C13.5 22.7 13.7 22.5 14 22.5H17.1C17.25 22.5 17.35 22.55 17.45 22.65L19.35 24.55C19.45 24.6501 19.5 24.75 19.5 24.9V33.5V33.5Z" fill="#10243a" stroke="#10243a" stroke-width="0.5"/>
<path d="M28.35 25.95C28.6001 26 28.8 26 29 26C29.7 26 30.35 25.75 30.85 25.3C31.55 24.7 31.95 23.85 31.95 22.95C31.95 22.5 31.8 22.05 31.55 21.65L31.2999 21.2499C30.95 20.6999 30.5999 20.15 30.2999 19.55L29.3999 17.75C29.2999 17.55 29.1499 17.45 28.9499 17.45C28.7499 17.45 28.5999 17.6 28.4999 17.75L27.7999 19.2C27.4499 19.95 27.0499 20.75 26.4999 21.45C26.1999 21.85 26.0499 22.3 25.9999 22.8C25.9001 24.3 26.9 25.65 28.35 25.95ZM27.05 22.9C27.05 22.6 27.15 22.35 27.35 22.1001C27.9 21.3001 28.35 20.4501 28.75 19.6501L29 19.1001L29.45 20.0001C29.75 20.65 30.15 21.2001 30.5 21.8001L30.8 22.2501C31 22.5001 31.05 22.75 31.05 23.05C31.05 23.65 30.75 24.2001 30.3 24.6C29.8001 25 29.2001 25.15 28.6001 25C27.65 24.8 27 23.9 27.05 22.9Z" fill="#10243a" stroke="#10243a" stroke-width="0.2"/>
<path d="M17 25.5H15.5C15.2 25.5 15 25.7 15 26C15 26.3 15.2 26.5 15.5 26.5H17C17.3 26.5 17.5 26.3 17.5 26C17.5 25.7 17.3 25.5 17 25.5Z" fill="#10243a"/>
<path d="M17 28H15.5C15.2 28 15 28.2 15 28.5C15 28.8 15.2 29 15.5 29H17C17.3 29 17.5 28.8 17.5 28.5C17.5 28.2 17.3 28 17 28Z" fill="#10243a"/>
<path d="M17 30.5H15.5C15.2 30.5 15 30.7 15 31C15 31.3 15.2 31.5 15.5 31.5H17C17.3 31.5 17.5 31.3 17.5 31C17.5 30.7 17.3 30.5 17 30.5Z" fill="#10243a"/>
<path d="M38.25 16.6L34.4 12.75C33.95 12.25 33.3 12 32.65 12H26.5V10.5C26.5 9.64998 25.85 9 25 9H23C22.15 9 21.5 9.64998 21.5 10.5V12C20.1 12 19 13.1 19 14.5V17.6488C18.7283 17.5498 18.4392 17.5 18.1499 17.5H14V16C14 15.15 13.35 14.5 12.5 14.5H11.5C10.65 14.5 10 15.15 10 16V17.6C9.40002 17.8 9 18.35 9 19V37.5C9 38.35 9.64998 39 10.5 39H22.5H36.5C37.9 39 39 37.9 39 36.5V18.35C39 17.7 38.7 17.05 38.25 16.6ZM23 21.1V16.5C23 16.2 23.2 16 23.5 16H31.45C31.85 16 32.2 16.15 32.5 16.45L34.55 18.5C34.85 18.7501 35 19.15 35 19.55V34.5C35 34.8 34.8 35 34.5 35H24.5C24.2 35 24 34.8 24 34.5V23.35V23.3V22.9C24 22.5 23.85 22.15 23.55 21.85L23.25 21.55L23.15 21.45C23.05 21.35 23 21.25 23 21.1ZM10 37.5V19C10 18.7 10.2 18.5 10.5 18.5C10.8 18.5 11 18.3001 11 18.0001V16.0001C11 15.7001 11.2 15.5001 11.5 15.5001H12.5C12.8 15.5001 13 15.7001 13 16.0001V18C13 18.3 13.1999 18.5 13.4999 18.5H18.1499C18.55 18.5 18.8999 18.65 19.1999 18.95L22.5499 22.3C22.8499 22.55 22.9999 22.9499 22.9999 23.35V34.5V37.5C22.9999 37.8 22.7999 38 22.4999 38H10.5C10.2 38 10 37.8 10 37.5ZM38 36.5C38 37.35 37.35 38 36.5 38H23.9194C23.9715 37.8446 24 37.6767 24 37.5V35.9194C24.1554 35.9715 24.3233 36 24.5 36H34.5C35.35 36 36 35.35 36 34.5V19.55C36 18.9 35.7 18.25 35.25 17.8L33.2 15.75C32.75 15.25 32.1 15 31.45 15H23.5C22.6499 15 22 15.65 22 16.5V20.3L20 18.3V14.5C20 13.65 20.65 13 21.5 13H22C22.3 13 22.4999 12.8 22.4999 12.5V10.5C22.4999 10.2 22.6999 10 22.9999 10H24.9999C25.2999 10 25.4999 10.2 25.4999 10.5V12.5C25.4999 12.8 25.6999 13 25.9999 13H32.6498C33.0499 13 33.4498 13.15 33.6998 13.45L37.5499 17.3C37.8499 17.55 37.9999 17.95 37.9999 18.35V36.5H38Z" fill="#10243a" stroke="#10243a" stroke-width="0.5"/>
<path d="M31.5 28H26.5C26.2 28 26.0001 28.2 26.0001 28.5C26.0001 28.8 26.2 29 26.5 29H31.5C31.8 29 32 28.8 32 28.5C32 28.2 31.8 28 31.5 28Z" fill="#10243a"/>
<path d="M25.5 31.5H32.5C32.8 31.5 33 31.3 33 31C33 30.7 32.8 30.5 32.5 30.5H25.5C25.2 30.5 25 30.7 25 31C25 31.3 25.2 31.5 25.5 31.5Z" fill="#10243a"/>
<path d="M45.7 1.3999H2.40002C1.84774 1.3999 1.40002 1.84762 1.40002 2.3999V45.6999C1.40002 46.2522 1.84774 46.6999 2.40002 46.6999H45.7C46.2523 46.6999 46.7 46.2522 46.7 45.6999V2.3999C46.7 1.84762 46.2523 1.3999 45.7 1.3999Z" stroke="#10243a" stroke-width="1.4173" stroke-miterlimit="10"/>
</svg>
