<svg width="48" height="48" viewBox="0 0 48 48" fill="none" xmlns="http://www.w3.org/2000/svg">
<g clip-path="url(#clip0_102_11)">
<path d="M46.7 1.40002H1.40002V46.7H46.7V1.40002Z" stroke="black" stroke-width="1.4173" stroke-miterlimit="10"/>
<path d="M19.1 17C19.1 17 19 9.80001 24 9.80001C24 9.80001 28.7 9.40002 28.8 17L33.3 36.7C33.3 36.8 33.3 36.8 33.2 36.9C32.5 37.1 28.5 38.3 24 38.3C24 38.3 19.2 38.3 14.7 36.8C14.6 36.8 14.6 36.7 14.6 36.6L19.1 17Z" stroke="black" stroke-width="1.4173" stroke-miterlimit="10" stroke-linecap="round"/>
<path d="M15.8 31.5L11 29.3C10.9 29.3 10.9 29.2 10.9 29.1L15.8 18.7C15.8 18.7 17.1 16.2 19.7 16.9L23.9 18.8" stroke="black" stroke-width="1.4173" stroke-miterlimit="10" stroke-linecap="round"/>
<path d="M32.2 31.6L37 29.4C37.1 29.4 37.1 29.3 37.1 29.2L32.2 18.8C32.2 18.8 30.9 16.3 28.3 17L24.1 18.9V38.3" stroke="black" stroke-width="1.4173" stroke-miterlimit="10" stroke-linecap="round"/>
<path d="M21.9 17.9001C21.9 17.9001 20.1 13.6001 23.9 13.3001C23.9 13.3001 27.4 13.1001 26.3 17.8001" stroke="black" stroke-width="1.4173" stroke-miterlimit="10" stroke-linecap="round"/>
<path d="M21.6 21V17.5" stroke="black" stroke-width="1.4173" stroke-miterlimit="10" stroke-linecap="round"/>
<path d="M26.5 21V17.5" stroke="black" stroke-width="1.4173" stroke-miterlimit="10" stroke-linecap="round"/>
</g>
<defs>
<clipPath id="clip0_102_11">
<rect width="48" height="48" fill="white"/>
</clipPath>
</defs>
</svg>
