<svg width="48" height="48" viewBox="0 0 48 48" fill="none" xmlns="http://www.w3.org/2000/svg">
<path d="M45.7 1.3999H2.40002C1.84774 1.3999 1.40002 1.84762 1.40002 2.3999V45.6999C1.40002 46.2522 1.84774 46.6999 2.40002 46.6999H45.7C46.2523 46.6999 46.7 46.2522 46.7 45.6999V2.3999C46.7 1.84762 46.2523 1.3999 45.7 1.3999Z" stroke="black" stroke-width="1.4173" stroke-miterlimit="10"/>
<path d="M13 14.8001C13 14.8001 12.9 7.60006 17.9 7.60006C17.9 7.60006 22.6 7.20006 22.7 14.8001L27.2 34.5001C27.2 34.6001 27.2 34.6001 27.1 34.7001C26.4 34.9001 22.4 36.1001 17.9 36.1001C17.9 36.1001 13.1 36.1001 8.6 34.6001C8.5 34.6001 8.5 34.5001 8.5 34.4001L13 14.8001Z" stroke="black" stroke-width="1.4173" stroke-miterlimit="10" stroke-linecap="round"/>
<path d="M9.69999 29.3001L4.89999 27.1001C4.79999 27.1001 4.79999 27.0001 4.79999 26.9001L9.69999 16.5001C9.69999 16.5001 11 14.0001 13.6 14.7001L17.8 16.6001" stroke="black" stroke-width="1.4173" stroke-miterlimit="10" stroke-linecap="round"/>
<path d="M26.2 29.4002L31 27.2002C31.1 27.2002 31.1 27.1002 31.1 27.0002L26.2 16.6002C26.2 16.6002 24.9 14.1002 22.3 14.8002L18.1 16.7002V36.1002" stroke="black" stroke-width="1.4173" stroke-miterlimit="10" stroke-linecap="round"/>
<path d="M15.8 15.7001C15.8 15.7001 14 11.4001 17.8 11.1001C17.8 11.1001 21.3 10.9001 20.2 15.6001" stroke="black" stroke-width="1.4173" stroke-miterlimit="10" stroke-linecap="round"/>
<path d="M15.5 18.8V15.3" stroke="black" stroke-width="1.4173" stroke-miterlimit="10" stroke-linecap="round"/>
<path d="M20.4 18.8V15.3" stroke="black" stroke-width="1.4173" stroke-miterlimit="10" stroke-linecap="round"/>
<path d="M20.2 25.4001C21.2 25.4001 21.2 23.8 20.2 23.8C19.2 23.8 19.2 25.4001 20.2 25.4001Z" fill="black"/>
<path d="M20.2 28.4001C21.2 28.4001 21.2 26.8 20.2 26.8C19.2 26.8 19.2 28.4001 20.2 28.4001Z" fill="black"/>
<path d="M20.2 31.2999C21.2 31.2999 21.2 29.7 20.2 29.7C19.2 29.8 19.2 31.2999 20.2 31.2999Z" fill="black"/>
<path d="M20.2 22.5001C21.2 22.5001 21.2 20.9001 20.2 20.9001C19.2 20.9001 19.2 22.5001 20.2 22.5001Z" fill="black"/>
<path d="M11.4 32.8L13.9 33.3" stroke="black" stroke-width="1.4173" stroke-miterlimit="10" stroke-linecap="round"/>
<path d="M36 15.1999V12.5999C36 10.4999 35.1 10.6999 35.1 10.6999C34.2 10.7999 34.3 12.4999 34.3 12.4999L34.6 15.6999C34.6 15.8999 34.6 15.8999 34.5 15.8999C34.4 15.8999 33.6 13.1999 32.6 13.6999C32.6 13.6999 31.7 13.8999 32.7 16.1999C32.8 16.4999 32.9 16.6999 33 16.9999L33.6 18.9999C33.7 19.2999 33.9 19.6999 34.1 20.0999L34.6 20.8999C34.7 21.0999 35 21.6999 35 22.0999L35.1 23.9999" stroke="black" stroke-width="0.9921" stroke-miterlimit="10" stroke-linecap="round"/>
<path d="M35.6 19.7L35.9 20.4" stroke="black" stroke-width="0.9921" stroke-miterlimit="10" stroke-linecap="round"/>
<path d="M36.1 40.6001H37.8" stroke="black" stroke-width="0.9921" stroke-miterlimit="10" stroke-linecap="round"/>
<path d="M38.1 31.3L38 32.7001" stroke="black" stroke-width="0.9921" stroke-miterlimit="10" stroke-linecap="round"/>
<path d="M37.9 34.4001L37.8 34.9001" stroke="black" stroke-width="0.9921" stroke-miterlimit="10" stroke-linecap="round"/>
<path d="M39.7 29.5L39.2 37.7001L39.8 42C39.8 42.1 39.7 42.1 39.7 42.1H28.1C28 42.1 28 42.1 28 42C27.8 41.5 27.2 38.8 30.3 38.6C30.3 38.6 34.3 38.7 34.2 34.8C34.2 34.7 34.2 34.5001 34.2 34.4001C34.2 33.5001 34.2 30.1001 34.2 29.4001C34.2 29.3001 34.3 29.3 34.3 29.3C34.3 29.3 38.7 29.3 39.5 29.3C39.6 29.3 39.7 29.4 39.7 29.5Z" stroke="black" stroke-width="1.4173" stroke-miterlimit="10" stroke-linecap="round"/>
<path d="M36 14.4001C36 14.4001 36 11.4001 36 11.1001C36 10.9001 35.9 9.6001 36.8 9.5001C36.8 9.5001 37.6 9.4001 37.7 10.8001C37.7 10.9001 37.7 14.4001 37.7 14.5001" stroke="black" stroke-width="0.9921" stroke-miterlimit="10" stroke-linecap="round"/>
<path d="M37.7 15.1999C37.7 15.1999 37.7 12.9999 37.7 12.6999C37.7 12.4999 37.6 10.7999 38.5 10.6999C38.5 10.6999 39.4 10.4999 39.4 12.3999C39.4 12.4999 39.4 15.5999 39.4 15.6999" stroke="black" stroke-width="0.9921" stroke-miterlimit="10" stroke-linecap="round"/>
<path d="M39.4 15.9C39.4 15.9 39.4 14.9 39.4 14.6C39.4 13.4 39.4 13.2 40 13.2C40 13.2 40.9 13.1999 40.9 14.2999C40.9 14.3999 40.9 16 40.9 17C40.9 18.2 40 19.7 39.5 20.4C39.1 20.8 39.1 23.7999 39.1 23.7999" stroke="black" stroke-width="0.9921" stroke-miterlimit="10" stroke-linecap="round"/>
<path d="M34.8 18.4L34.7 18" stroke="black" stroke-width="0.9921" stroke-miterlimit="10" stroke-linecap="round"/>
<path d="M39.7 26.5H34.4C34.3 26.5 34.3 26.4 34.3 26.4V24.6C34.3 24.5 34.4 24.5 34.4 24.5H39.7C39.8 24.5 39.8 24.6 39.8 24.6V26.4C39.8 26.5 39.7 26.5 39.7 26.5Z" stroke="black" stroke-width="1.4173" stroke-miterlimit="10" stroke-linecap="round"/>
</svg>
