<svg width="48" height="48" viewBox="0 0 48 48" fill="none" xmlns="http://www.w3.org/2000/svg">
<path d="M45.3 1.09985H2C1.44772 1.09985 1 1.54757 1 2.09985V45.3999C1 45.9521 1.44772 46.3999 2 46.3999H45.3C45.8523 46.3999 46.3 45.9521 46.3 45.3999V2.09985C46.3 1.54757 45.8523 1.09985 45.3 1.09985Z" stroke="#10243A" stroke-width="1.4173" stroke-miterlimit="10"/>
<path d="M40.9449 31.3599C40.8316 30.6805 40.3788 30.0578 39.8126 29.6049L26.3385 19.4123V16.4704C26.3385 15.6212 25.6591 14.9418 24.8099 14.9418H24.5835V13.7529C26.1686 13.4699 27.4142 12.1111 27.4142 10.4127C27.4142 8.54445 25.8856 7.01587 24.0174 7.01587C22.1491 7.01587 20.6205 8.54445 20.6205 10.4127C20.6205 10.7524 20.847 10.9788 21.1866 10.9788C21.5263 10.9788 21.7528 10.7524 21.7528 10.4127C21.7528 9.16722 22.7718 8.14817 24.0173 8.14817C25.2628 8.14817 26.2818 9.16722 26.2818 10.4127C26.2818 11.6582 25.2628 12.6772 24.0173 12.6772C23.6776 12.6772 23.4512 12.9603 23.4512 13.3V14.9418H23.2813C22.4321 14.9418 21.7528 15.6212 21.7528 16.4704V19.3266L8.16542 29.6049C7.54265 30.0578 7.14637 30.6805 7.03312 31.3599C6.91987 32.2091 7.08971 33.0583 7.6559 33.7377C8.22202 34.3605 9.01463 34.7567 9.86384 34.7567H14.9591V39.6256C14.9591 40.3615 15.5819 40.9843 16.3178 40.9843H31.7168C32.4528 40.9843 33.0756 40.3615 33.0756 39.6256V34.7567H38.1708C39.02 34.7567 39.8126 34.3605 40.3222 33.7377C40.8883 33.0583 41.1147 32.2091 40.9449 31.3599ZM22.8284 16.4704C22.8284 16.244 22.9982 16.0741 23.2247 16.0741H23.7496C23.8272 16.1106 23.9171 16.1307 24.0173 16.1307C24.1079 16.1307 24.1901 16.1101 24.2624 16.0741H24.7533C24.9797 16.0741 25.1495 16.244 25.1495 16.4704V18.5085L24.5268 17.999C24.3825 17.8836 24.194 17.8273 23.9989 17.8295C23.9439 17.8288 23.8889 17.8344 23.8346 17.8455C23.701 17.8696 23.5692 17.9202 23.4511 17.999L22.8283 18.5085V16.4704H22.8284ZM31.7168 29.6615H16.3178C15.5819 29.6615 14.9591 30.2843 14.9591 31.0202V31.3599H11.5623L24.0173 21.9054L36.4723 31.3599H33.0755V31.0202C33.0755 30.2843 32.4528 29.6615 31.7168 29.6615ZM31.9433 37.0213H29.6787C29.3391 37.0213 29.1126 37.2477 29.1126 37.5874C29.1126 37.9271 29.3391 38.1535 29.6787 38.1535H31.9433V39.6255C31.9433 39.7387 31.83 39.8519 31.7168 39.8519H16.3178C16.2046 39.8519 16.0914 39.7387 16.0914 39.6255V38.1535H18.3559C18.6956 38.1535 18.922 37.9271 18.922 37.5874C18.922 37.2477 18.6956 37.0213 18.3559 37.0213H16.0914V34.7567V31.0202C16.0914 30.907 16.2046 30.7938 16.3178 30.7938H31.7168C31.8301 30.7938 31.9433 30.907 31.9433 31.0202V34.7567V37.0213ZM39.4729 33.0017C39.1332 33.398 38.6803 33.6245 38.1708 33.6245H33.0755V32.4922H38.1708H38.567L38.7935 31.643L24.2437 20.6033H23.7907L9.69387 31.3033C9.46743 31.4731 9.35418 31.7562 9.46743 32.0393C9.58068 32.3223 9.80712 32.4922 10.0902 32.4922H14.959V33.6245H9.86378C9.35425 33.6245 8.90132 33.3981 8.56163 33.0017C8.22195 32.6055 8.1087 32.0959 8.22195 31.5864C8.27854 31.1901 8.50504 30.7938 8.90132 30.5108L22.35 20.3361L24.045 19.0958L39.1331 30.5108C39.4728 30.7938 39.7559 31.1901 39.8125 31.5864C39.9258 32.0959 39.8126 32.6054 39.4729 33.0017Z" fill="#10243A"/>
<path d="M26.848 37.0212H21.7528C21.4131 37.0212 21.1866 37.2477 21.1866 37.5874C21.1866 37.927 21.4131 38.1535 21.7528 38.1535H26.848C27.1877 38.1535 27.4141 37.927 27.4141 37.5874C27.4141 37.2477 27.1877 37.0212 26.848 37.0212Z" fill="#10243A"/>
</svg>
