<svg width="48" height="48" viewBox="0 0 48 48" fill="none" xmlns="http://www.w3.org/2000/svg">
<path d="M45.6999 1.3999H2.3999C1.84762 1.3999 1.3999 1.84762 1.3999 2.3999V45.6999C1.3999 46.2522 1.84762 46.6999 2.3999 46.6999H45.6999C46.2522 46.6999 46.6999 46.2522 46.6999 45.6999V2.3999C46.6999 1.84762 46.2522 1.3999 45.6999 1.3999Z" stroke="black" stroke-width="1.4173" stroke-miterlimit="10"/>
<path d="M22.8999 30.5C22.5999 37.4 26.9999 36.4 27.6999 34.6C28.0999 33.6 28.2999 32.4 28.2999 31.3V28.8" stroke="black" stroke-width="1.4173" stroke-miterlimit="10" stroke-linecap="round"/>
<path d="M33.0998 36.3H28.3998C28.2998 36.3 28.2998 36.2 28.2998 36.2V26H33.2998V36.2C33.2998 36.3 33.1998 36.3 33.0998 36.3Z" stroke="black" stroke-width="1.4173" stroke-miterlimit="10" stroke-linecap="round"/>
<path d="M30.7998 30.5V36.3" stroke="black" stroke-width="1.4173" stroke-miterlimit="10" stroke-linecap="round"/>
<path d="M33.2998 26H28.2998V11.9C28.2998 11.8 28.3998 11.8 28.3998 11.8H33.0998C33.1998 11.8 33.1998 11.9 33.1998 11.9V26H33.2998Z" stroke="black" stroke-width="1.4173" stroke-miterlimit="10" stroke-linecap="round"/>
<path d="M33.2998 28.7V31.2C33.2998 32.3 33.3998 33.5 33.8998 34.5C34.5998 36.3 38.9998 37.4 38.6998 30.4" stroke="black" stroke-width="1.4173" stroke-miterlimit="10" stroke-linecap="round"/>
<path d="M24.7999 14.2001C22.9999 12.1001 19.3999 12.4001 17.8999 15.1001" stroke="black" stroke-width="1.4173" stroke-miterlimit="10" stroke-linecap="round"/>
<path d="M17.6999 36.3H12.9999C12.8999 36.3 12.8999 36.2001 12.8999 36.2001V11.9C12.8999 11.8 12.9999 11.8 12.9999 11.8H17.6999C17.7999 11.8 17.7999 11.9 17.7999 11.9V36.2001C17.7999 36.3001 17.7999 36.3 17.6999 36.3Z" stroke="black" stroke-width="1.4173" stroke-miterlimit="10" stroke-linecap="round"/>
<path d="M14.7998 16.4001V20.3001" stroke="black" stroke-width="1.4173" stroke-miterlimit="10" stroke-linecap="round"/>
<path d="M14.7998 22.8V24" stroke="black" stroke-width="1.4173" stroke-miterlimit="10" stroke-linecap="round"/>
</svg>
