<svg width="48" height="48" viewBox="0 0 48 48" fill="none" xmlns="http://www.w3.org/2000/svg">
<path d="M8.09998 35.5999C8.09998 35.5999 8.09998 35.6999 8.19998 35.6999H33.3C33.6 35.5999 39.7 33.4999 39.9 25.6999C39.9 25.6999 39.9 25.5999 39.8 25.5999C38.6 25.7999 27.1 28.9999 8.19998 28.8999C8.09998 28.8999 8.09998 28.9999 8.09998 28.9999V35.5999Z" stroke="#10243a" stroke-width="1.4173" stroke-miterlimit="10" stroke-linecap="round"/>
<path d="M8.09998 31.7998C8.09998 31.7998 33.2 31.4998 39.9 28.2998" stroke="#10243a" stroke-width="1.4173" stroke-miterlimit="10"/>
<path d="M20.8 27.8999V19.8999H31.1V26.7999" stroke="#10243a" stroke-width="1.4173" stroke-miterlimit="10"/>
<path d="M20.8 24.8999H14C14 24.8999 13.9 24.8999 13.9 24.9999V28.7999" stroke="#10243a" stroke-width="1.4173" stroke-miterlimit="10"/>
<path d="M32.3 19.8999H19.9C19.9 19.8999 19.4 19.9999 19.4 19.4999V17.4999C19.4 17.4999 19.4 17.3999 19.5 17.3999H32.4C32.4 17.3999 32.5 17.3999 32.5 17.4999V19.4999C32.5 19.8999 32.3 19.8999 32.3 19.8999Z" stroke="#10243a" stroke-width="1.4173" stroke-miterlimit="10"/>
<path d="M26.1 25.5C26.9284 25.5 27.6 24.8284 27.6 24C27.6 23.1716 26.9284 22.5 26.1 22.5C25.2715 22.5 24.6 23.1716 24.6 24C24.6 24.8284 25.2715 25.5 26.1 25.5Z" stroke="#10243a" stroke-width="1.4173" stroke-miterlimit="10"/>
<path d="M25.9 16.9999V14.6999V12.4999C25.9 12.4999 25.8999 12.3999 25.7999 12.3999H21.7999C21.6999 12.3999 21.7 12.4999 21.7 12.4999L22.4 13.5999L21.7 14.7999C21.7 14.7999 21.6999 14.8999 21.7999 14.8999H25.7999" stroke="#10243a" stroke-width="1.4173" stroke-miterlimit="10"/>
<path d="M31.1 32.8L33.9 32.5" stroke="#10243a" stroke-width="1.4173" stroke-miterlimit="10" stroke-linecap="round"/>
<path d="M27.8 33.0999H28.4" stroke="#10243a" stroke-width="1.4173" stroke-miterlimit="10" stroke-linecap="round"/>
<path d="M45.7 1.3999H2.40002C1.84774 1.3999 1.40002 1.84762 1.40002 2.3999V45.6999C1.40002 46.2522 1.84774 46.6999 2.40002 46.6999H45.7C46.2523 46.6999 46.7 46.2522 46.7 45.6999V2.3999C46.7 1.84762 46.2523 1.3999 45.7 1.3999Z" stroke="#10243a" stroke-width="1.4173" stroke-miterlimit="10"/>
</svg>
