<?xml version="1.0" standalone="no"?>
<!DOCTYPE svg PUBLIC "-//W3C//DTD SVG 20010904//EN"
 "http://www.w3.org/TR/2001/REC-SVG-20010904/DTD/svg10.dtd">
<svg version="1.0" xmlns="http://www.w3.org/2000/svg"
 width="1336.000000pt" height="950.000000pt" viewBox="0 0 1336.000000 950.000000"
 preserveAspectRatio="xMidYMid meet">

<g transform="translate(0.000000,950.000000) scale(0.100000,-0.100000)"
fill="#fff" stroke="none">
<path d="M0 4750 l0 -4750 6680 0 6680 0 0 4750 0 4750 -6680 0 -6680 0 0
-4750z m10060 2400 l0 -1100 -60 0 -60 0 0 1040 0 1040 -3340 0 -3340 0 -2
-737 -3 -738 -57 -3 -58 -3 0 801 0 800 3460 0 3460 0 0 -1100z m-7884 -684
c119 -32 204 -101 253 -205 23 -50 26 -68 25 -161 0 -187 -32 -239 -308 -512
l-210 -208 254 0 255 0 21 -131 c14 -89 17 -132 10 -135 -6 -2 -220 -3 -476
-2 l-465 3 -3 119 -3 119 275 277 c221 222 280 287 301 331 46 99 25 193 -50
225 -51 21 -164 18 -238 -7 -63 -21 -157 -69 -190 -97 -9 -8 -19 -13 -22 -10
-2 2 -14 67 -25 143 -16 111 -18 140 -8 147 78 52 231 107 338 121 57 8 211
-2 266 -17z m1149 9 c190 -49 325 -189 385 -399 71 -252 37 -563 -82 -754
-141 -223 -448 -298 -700 -171 -235 119 -353 464 -287 842 43 250 188 424 401
481 71 19 210 20 283 1z m1145 4 c81 -12 175 -55 229 -104 22 -21 55 -67 73
-103 31 -62 33 -73 33 -172 0 -188 -43 -259 -322 -530 l-196 -190 255 0 255 0
20 -127 c11 -71 17 -131 14 -136 -4 -4 -218 -6 -477 -5 l-469 3 -3 119 -3 120
279 280 c312 314 327 336 320 438 -5 64 -23 92 -75 114 -41 18 -143 18 -209 0
-54 -14 -159 -64 -207 -98 -16 -11 -30 -19 -32 -17 -2 2 -12 66 -22 142 l-19
138 25 18 c131 92 354 139 531 110z m1110 -689 l0 -680 -167 2 -168 3 -3 516
-2 517 -130 -51 c-72 -27 -132 -48 -134 -46 -7 7 -38 239 -34 251 2 5 80 45
173 89 l170 78 148 1 147 0 0 -680z m4040 -325 l0 -295 -50 0 c-38 0 -50 4
-50 15 0 19 -5 19 -35 -1 -14 -9 -40 -16 -59 -17 -85 -2 -129 62 -130 189 0
136 55 212 156 217 l43 2 5 85 5 85 35 6 c19 4 45 7 58 8 l22 1 0 -295z m851
276 c4 -3 9 -23 12 -43 5 -35 4 -38 -18 -38 -44 0 -55 -10 -55 -51 0 -36 2
-39 29 -39 24 0 29 -5 35 -31 12 -62 9 -69 -29 -69 l-34 0 -3 -147 -3 -148
-57 -3 -58 -3 0 151 0 150 -25 0 c-23 0 -25 3 -25 50 0 47 2 50 25 50 23 0 25
3 25 50 0 79 29 119 95 133 23 6 77 -2 86 -12z m1960 -148 l0 -168 28 70 29
70 62 3 c48 2 61 0 57 -10 -2 -7 -19 -45 -37 -85 l-32 -72 42 -106 c23 -58 41
-108 38 -110 -2 -3 -30 -6 -62 -7 l-58 -3 -33 85 -34 85 0 -87 -1 -88 -60 0
-60 0 2 288 3 287 35 6 c87 16 80 30 81 -158z m-4686 132 c14 -13 25 -33 25
-45 0 -11 -11 -32 -25 -45 -13 -14 -33 -25 -45 -25 -29 0 -70 44 -70 74 0 28
42 66 72 66 10 0 30 -11 43 -25z m3476 4 c45 -45 -3 -129 -65 -113 -31 7 -57
54 -48 86 12 46 78 62 113 27z m1535 -5 c60 -59 -23 -146 -89 -94 -33 26 -36
71 -7 100 27 27 66 25 96 -6z m-5726 -44 l0 -60 -75 0 -75 0 0 -55 0 -55 49 0
c47 0 50 -2 55 -30 3 -16 9 -43 12 -60 l6 -30 -61 0 -60 0 -3 -107 -3 -108
-67 -3 -68 -3 0 286 0 285 145 0 145 0 0 -60z m4650 -40 l0 -70 29 0 c31 0 41
-18 41 -72 0 -25 -3 -28 -35 -28 l-35 0 0 -94 c0 -86 2 -95 20 -101 11 -3 24
-4 30 0 10 6 18 -18 22 -70 3 -29 1 -30 -42 -33 -126 -9 -150 20 -150 186 l0
112 -25 0 c-14 0 -25 -4 -25 -10 0 -5 -9 -10 -20 -10 -12 0 -34 -7 -50 -15
l-30 -16 0 -124 0 -125 -60 0 -60 0 0 200 0 200 49 0 c41 0 50 -3 54 -21 6
-22 6 -22 37 5 51 42 61 37 73 -44 3 -14 5 -7 6 18 1 38 3 42 26 42 24 0 25 2
25 64 l0 65 33 4 c17 2 44 5 60 5 l27 2 0 -70z m-4538 -72 c3 -7 15 -64 28
-126 13 -61 24 -111 26 -110 1 2 11 54 23 116 11 62 23 117 26 122 9 15 115
13 115 -2 0 -28 -113 -425 -131 -460 -24 -47 -64 -68 -128 -68 -55 0 -49 -6
-66 74 -5 23 -2 25 37 28 35 2 44 7 46 24 2 12 -20 101 -47 197 -28 97 -51
182 -51 191 0 14 16 18 96 24 12 1 24 -4 26 -10z m346 -15 c4 -29 7 -29 44 2
39 33 55 32 62 -5 3 -16 9 -44 12 -60 4 -23 2 -31 -13 -36 -10 -3 -32 -12 -50
-19 l-32 -14 -3 -123 -3 -123 -60 0 -60 0 -3 190 c-1 104 0 195 3 203 3 9 20
12 52 10 41 -3 48 -6 51 -25z m536 -10 c13 -80 10 -87 -42 -103 l-47 -15 -3
-127 -3 -128 -59 0 -60 0 0 200 0 200 55 0 c48 0 55 -2 55 -20 0 -18 2 -18 36
5 49 34 60 32 68 -12z m314 17 l21 -20 33 20 c46 28 103 26 133 -4 30 -30 37
-78 33 -246 l-3 -135 -60 0 -60 0 -3 148 -3 148 -27 -3 -27 -3 -3 -147 -3
-148 -59 0 -60 0 0 144 c0 91 -4 147 -11 151 -5 4 -21 4 -35 1 l-24 -6 0 -145
0 -145 -60 0 -60 0 0 200 0 200 55 0 c44 0 55 -3 55 -16 0 -14 5 -13 33 5 42
27 106 28 135 1z m366 3 c2 -10 15 -67 27 -128 l23 -110 17 85 c9 47 20 102
23 123 l7 37 59 0 c33 0 60 -3 60 -7 0 -24 -115 -424 -131 -455 -24 -47 -64
-68 -128 -68 -46 0 -51 2 -56 25 -3 14 -7 36 -10 50 -5 23 -3 25 35 25 28 0
43 5 47 16 3 9 -17 100 -46 202 -28 103 -51 192 -51 199 0 10 24 16 97 21 13
1 24 -5 27 -15z m523 -7 l28 -24 0 -179 0 -178 -60 0 -60 0 -3 148 -3 148 -27
-3 -27 -3 -5 -145 -5 -145 -60 0 -60 0 -3 198 -2 197 55 0 c42 0 55 -3 55 -15
0 -19 3 -19 42 5 46 28 100 26 135 -4z m667 14 c14 -5 35 -24 46 -42 18 -29
20 -51 20 -195 l0 -163 -51 0 c-42 0 -52 3 -56 20 -5 20 -5 20 -30 0 -25 -20
-84 -27 -118 -14 -23 9 -45 57 -45 99 0 72 46 120 138 144 44 12 53 29 26 55
-20 20 -34 20 -84 0 -23 -9 -42 -15 -44 -13 -2 2 -6 24 -7 49 -4 44 -4 44 36
56 49 15 135 17 169 4z m320 -7 c3 -10 8 -39 12 -65 6 -45 5 -48 -15 -48 -12
0 -35 -7 -51 -15 l-30 -16 0 -124 0 -125 -60 0 -60 0 0 200 0 200 49 0 c41 0
50 -3 54 -21 6 -22 6 -22 37 5 37 30 57 33 64 9z m427 -103 c12 -66 25 -117
28 -114 3 3 15 53 26 112 l20 107 64 3 c53 3 63 1 58 -12 -3 -8 -29 -100 -57
-203 -59 -219 -73 -256 -113 -289 -23 -19 -40 -24 -88 -24 -40 0 -59 4 -59 13
0 6 -3 29 -6 50 -7 37 -7 37 28 37 64 0 64 9 3 221 -30 107 -55 197 -55 201 0
6 21 9 106 16 20 2 24 -8 45 -118z m433 74 c10 -74 8 -84 -14 -84 -12 0 -34
-7 -50 -15 l-30 -16 0 -124 0 -125 -60 0 -60 0 0 200 0 200 51 0 c42 0 52 -3
56 -20 5 -19 6 -19 37 5 47 38 62 33 70 -21z m934 31 c19 -14 24 -14 51 0 67
34 154 8 187 -57 9 -18 19 -63 22 -100 l5 -68 -101 0 -101 0 11 -30 c17 -49
67 -63 137 -39 18 6 33 10 35 8 2 -2 6 -21 10 -42 7 -36 6 -38 -30 -53 -56
-23 -156 -21 -199 5 l-36 21 -37 -20 c-55 -30 -122 -27 -156 6 -22 22 -26 36
-26 81 0 49 4 59 33 88 21 21 54 39 91 50 51 15 56 19 50 38 -12 40 -31 44
-94 22 -24 -8 -44 -14 -46 -12 -2 1 -4 23 -6 47 -3 43 -2 44 37 56 57 18 136
17 163 -1z m-4248 -195 l0 -200 -60 0 -60 0 0 200 0 200 60 0 60 0 0 -200z
m3470 0 l0 -200 -60 0 -60 0 0 200 0 200 60 0 60 0 0 -200z m1540 0 l0 -200
-60 0 -60 0 0 200 0 200 60 0 60 0 0 -200z m-6390 -415 l0 -135 -265 0 -265 0
0 135 0 135 265 0 265 0 0 -135z m-4204 -109 c119 -32 204 -101 253 -205 23
-50 26 -68 25 -161 0 -187 -32 -239 -308 -512 l-210 -208 254 0 255 0 21 -131
c14 -89 17 -132 10 -135 -6 -2 -220 -3 -476 -2 l-465 3 -3 119 -3 120 275 275
c297 299 326 337 326 431 0 93 -58 140 -172 140 -105 -1 -210 -36 -312 -105
-21 -14 -40 -24 -42 -22 -2 2 -13 64 -24 138 l-20 134 23 19 c55 47 211 104
327 119 57 8 211 -2 266 -17z m1149 9 c190 -49 325 -189 385 -399 47 -164 47
-407 1 -567 -62 -217 -196 -355 -393 -405 -86 -22 -240 -15 -323 16 -210 79
-333 264 -366 554 -23 214 16 426 107 573 72 116 174 192 306 227 71 19 210
20 283 1z m1201 -9 c119 -32 204 -101 253 -205 23 -49 26 -68 26 -161 0 -188
-43 -258 -322 -529 l-196 -191 255 0 255 0 20 -127 c11 -71 17 -131 14 -136
-4 -4 -218 -6 -477 -5 l-469 3 -3 119 -3 120 279 280 c312 315 327 335 320
436 -5 66 -23 94 -75 116 -41 18 -143 18 -209 0 -54 -14 -159 -64 -207 -98
-16 -11 -30 -19 -32 -17 -2 2 -12 66 -22 142 l-19 138 25 18 c67 47 194 95
296 111 75 11 224 5 291 -14z m1024 13 c136 -21 256 -103 307 -208 22 -46 28
-74 31 -153 8 -188 -40 -270 -327 -550 l-191 -188 254 0 253 0 21 -127 c12
-70 18 -131 14 -135 -5 -5 -219 -7 -478 -6 l-469 3 -3 114 -3 113 274 277
c303 308 327 340 327 442 0 97 -53 139 -175 139 -82 0 -190 -34 -282 -90 -36
-22 -67 -39 -68 -38 -4 5 -35 242 -35 265 0 27 75 72 184 108 124 42 248 53
366 34z m4510 -1809 l0 -1720 -3460 0 -3460 0 0 975 0 976 58 -3 57 -3 3 -912
2 -913 3340 0 3340 0 0 1660 0 1660 60 0 60 0 0 -1720z m-2298 1548 l3 -163
28 73 29 72 60 0 c44 0 59 -3 55 -12 -2 -7 -19 -47 -36 -89 l-32 -75 39 -100
40 -99 7 48 c6 39 11 47 24 42 96 -40 131 -41 131 -6 0 14 -18 29 -60 52 -70
37 -93 68 -93 124 0 97 96 145 214 106 36 -12 36 -12 28 -54 -4 -23 -8 -45 -9
-49 0 -4 -20 0 -45 9 -48 16 -75 12 -75 -10 0 -7 29 -29 64 -49 62 -36 96 -79
96 -122 0 -35 -30 -86 -62 -106 -40 -24 -122 -27 -175 -5 -21 9 -40 12 -47 6
-6 -4 -34 -11 -63 -15 l-51 -6 -34 87 -33 88 -3 -82 -3 -83 -59 0 -60 0 0 284
0 285 28 4 c15 2 42 5 59 6 l33 1 2 -162z m1108 132 c41 -41 13 -110 -44 -110
-39 0 -68 28 -68 65 0 58 71 86 112 45z m-1993 -11 c35 -6 63 -13 63 -14 0 -2
-24 -26 -52 -54 -44 -42 -59 -51 -90 -51 -21 0 -38 4 -38 9 0 7 14 52 35 109
5 15 3 15 82 1z m1523 -75 c0 -64 0 -64 29 -64 31 0 41 -18 41 -77 0 -31 -2
-33 -35 -33 l-36 0 3 -92 3 -93 27 -3 c29 -3 35 -15 40 -77 3 -29 1 -30 -42
-33 -25 -2 -62 2 -83 8 -54 16 -67 52 -67 184 0 101 -1 105 -22 108 -20 3 -23
10 -26 56 -3 50 -2 52 22 52 25 0 26 2 26 59 l0 59 53 9 c28 5 55 8 60 6 4 -2
7 -33 7 -69z m-870 -83 c41 -30 62 -77 68 -152 l5 -69 -97 0 c-88 0 -96 -2
-96 -19 0 -25 46 -61 77 -61 13 0 40 7 60 15 20 8 37 14 38 13 2 -2 6 -22 10
-44 6 -41 6 -41 -35 -58 -55 -22 -142 -21 -188 3 -58 30 -86 89 -86 181 -1
115 40 185 123 211 35 11 91 2 121 -20z m-670 -181 l0 -200 -60 0 -60 0 0 200
0 200 60 0 60 0 0 -200z m300 182 c0 -30 10 -31 37 -6 48 45 65 34 78 -53 6
-40 5 -43 -22 -49 -15 -3 -38 -13 -50 -20 -22 -14 -23 -21 -23 -134 l0 -120
-60 0 -60 0 0 200 0 200 50 0 c42 0 50 -3 50 -18z m1458 -10 l3 -23 30 26 c33
27 69 33 69 11 0 -7 3 -34 6 -58 l6 -46 -38 -12 c-64 -21 -64 -21 -64 -151 l0
-119 -60 0 -60 0 0 201 0 200 53 -3 c45 -3 52 -6 55 -26z m262 -172 l0 -200
-60 0 -60 0 0 200 0 200 60 0 60 0 0 -200z m-5112 -1522 c-16 -5 -28 -14 -28
-20 0 -22 125 -337 131 -330 11 13 89 244 89 263 0 12 -7 19 -20 19 -11 0 -20
5 -20 10 0 6 27 10 60 10 33 0 60 -4 60 -10 0 -5 -9 -10 -20 -10 -28 0 -40
-24 -111 -223 -46 -128 -66 -175 -73 -164 -5 7 -48 110 -95 228 -69 170 -92
216 -111 226 -22 11 -12 13 70 12 76 0 89 -3 68 -11z m812 -163 c0 -96 4 -175
8 -175 4 0 30 22 57 50 34 34 44 51 34 54 -8 2 -21 6 -29 9 -8 3 31 6 88 8
l102 4 0 -112 0 -112 28 -4 c15 -2 -31 -4 -103 -5 -71 0 -122 2 -113 6 15 6
13 12 -15 49 -18 23 -36 41 -42 39 -5 -1 -11 -21 -13 -44 -3 -35 0 -41 20 -45
13 -2 -8 -4 -47 -4 -38 0 -60 2 -47 4 l22 4 0 219 0 219 -22 4 c-13 2 -2 5 25
6 l47 1 0 -175z m1050 44 l0 -130 26 20 c91 72 206 -59 149 -169 -16 -32 -61
-60 -94 -60 -24 0 -71 20 -71 31 0 4 14 0 32 -8 28 -14 35 -14 57 -2 24 14 26
21 29 93 5 121 -35 160 -99 96 -29 -28 -30 -32 -27 -109 1 -44 1 -82 -2 -84
-3 -2 -37 -7 -77 -11 -54 -4 -75 -3 -85 8 -12 12 -18 12 -39 0 -35 -20 -86
-17 -108 5 -19 19 -20 19 -37 0 -21 -23 -71 -25 -96 -2 -15 13 -18 32 -18 115
l0 98 -27 1 c-27 0 -26 1 7 12 24 8 41 23 52 47 l18 35 0 -42 0 -43 43 -1 42
-2 -40 -6 -40 -6 -3 -96 c-2 -73 1 -99 11 -108 20 -16 42 -5 57 27 7 15 16 34
19 42 11 22 71 50 109 50 31 0 32 1 32 45 0 39 -3 45 -24 51 -14 3 -34 3 -46
-1 -17 -6 -20 -12 -14 -41 5 -30 4 -34 -14 -34 -26 0 -35 15 -28 44 13 53 135
62 168 12 4 -6 8 -50 8 -98 0 -88 9 -110 35 -88 11 9 15 9 15 1 0 -6 7 -11 15
-11 13 0 15 31 15 219 l0 220 -22 4 c-13 2 -2 5 25 6 l47 1 0 -131z m280 -93
l0 -225 23 -4 c12 -2 -12 -4 -53 -4 -41 0 -63 2 -47 4 l27 4 0 219 0 219 -27
4 c-16 2 -4 5 25 6 l52 1 0 -224z m1460 201 c0 -1 -52 -54 -115 -117 l-115
-115 0 118 0 117 115 0 c63 0 115 -1 115 -3z m220 -222 l0 -225 -42 0 c-41 0
-47 5 -155 112 l-113 113 112 112 c108 109 114 113 155 113 l43 0 0 -225z
m840 0 l0 -225 -30 0 -30 0 0 225 0 225 30 0 30 0 0 -225z m340 59 c0 -152 -2
-170 -22 -205 -42 -74 -143 -99 -208 -51 -91 68 -91 189 0 250 28 19 45 23 85
20 28 -3 58 -8 68 -12 15 -7 17 0 17 78 l0 86 30 0 30 0 0 -166z m-4596 109
c29 -14 40 -14 62 -4 15 6 29 9 32 7 2 -3 -7 -11 -22 -17 l-26 -12 35 -38 c35
-39 65 -119 65 -173 0 -120 -88 -189 -180 -141 -58 30 -78 120 -40 182 25 42
53 56 106 51 24 -2 44 1 44 6 0 14 -50 96 -58 96 -4 0 -16 -7 -26 -15 -32 -24
-43 -16 -13 9 l29 23 -34 21 c-39 26 -23 29 26 5z m2108 1 c24 -13 36 -14 56
-5 30 14 42 7 13 -8 -20 -11 -20 -12 14 -56 40 -53 55 -100 55 -173 0 -100
-43 -152 -126 -152 -28 0 -44 8 -69 33 -60 60 -59 134 2 187 32 29 41 32 84
28 l48 -5 -15 36 c-8 19 -22 43 -31 53 -14 16 -18 16 -44 2 -16 -8 -29 -11
-29 -6 0 5 12 14 27 21 l27 12 -32 21 c-50 31 -35 41 20 12z m380 0 c24 -13
36 -14 56 -5 30 14 42 7 13 -8 -20 -11 -20 -12 14 -56 40 -53 55 -100 55 -173
0 -97 -45 -152 -123 -152 -39 0 -80 28 -102 70 -46 89 25 191 123 177 l41 -5
-15 36 c-8 20 -22 44 -31 54 -14 16 -18 16 -44 2 -16 -8 -29 -10 -29 -5 0 5 9
13 20 16 27 9 25 19 -7 44 -33 24 -15 28 29 5z m-2614 -42 c4 -28 -24 -40 -45
-19 -14 13 -14 19 -3 32 18 22 44 15 48 -13z m792 13 c10 -12 10 -18 0 -30 -7
-8 -18 -15 -25 -15 -7 0 -18 7 -25 15 -10 12 -10 18 0 30 7 8 18 15 25 15 7 0
18 -7 25 -15z m1694 -1 c7 -19 -10 -44 -31 -44 -17 0 -27 24 -19 45 7 20 42
19 50 -1z m1256 -141 l0 -78 78 78 c70 70 81 77 117 77 l39 0 -74 -75 -74 -75
74 -75 74 -75 -40 0 c-35 0 -46 7 -94 55 l-54 55 -23 -22 c-15 -14 -23 -33
-23 -55 0 -30 -3 -33 -30 -33 l-30 0 0 150 0 150 30 0 30 0 0 -77z m458 57
c42 -26 72 -76 72 -122 l0 -38 -115 0 c-63 0 -115 -4 -115 -8 0 -16 36 -42 68
-48 21 -4 40 -1 56 9 22 15 25 14 46 -8 l23 -25 -44 -20 c-52 -23 -78 -25
-122 -6 -77 32 -112 114 -82 192 32 85 135 121 213 74z m818 -20 c42 -42 56
-89 52 -183 -3 -70 -4 -72 -30 -75 -19 -2 -28 1 -28 11 0 13 -6 12 -43 -1 -57
-20 -107 -10 -151 31 -63 60 -67 148 -9 210 38 40 59 47 121 44 44 -3 58 -9
88 -37z m324 18 c54 -38 70 -79 70 -185 l0 -93 -30 0 -30 0 0 89 c0 82 -2 92
-26 120 -20 25 -34 31 -64 31 -30 0 -44 -6 -64 -31 -24 -28 -26 -38 -26 -120
l0 -89 -30 0 -30 0 0 93 c0 107 16 149 69 184 46 31 116 31 161 1z m-5340
-142 c0 -111 1 -115 23 -119 12 -2 -12 -4 -53 -4 -41 0 -63 2 -47 4 l27 4 0
105 0 104 -27 2 c-19 1 -13 3 17 8 25 4 48 8 53 8 4 1 7 -49 7 -112z m430 74
c-1 -33 -1 -34 -15 -15 -28 39 -36 45 -60 45 -13 0 -31 -10 -39 -22 -23 -33
-5 -54 51 -61 59 -6 88 -36 79 -82 -11 -59 -77 -91 -128 -64 -16 9 -23 8 -29
-2 -6 -9 -9 5 -8 36 l0 50 16 -32 c27 -54 90 -66 114 -22 17 33 2 58 -39 65
-63 10 -73 15 -83 41 -13 35 -11 47 12 77 18 23 27 26 75 24 l54 -2 0 -36z
m471 18 c1 -13 0 -55 -1 -95 -2 -65 1 -75 24 -98 28 -28 53 -32 82 -11 16 12
19 27 19 99 0 91 -11 117 -49 117 -12 0 -32 -7 -44 -16 -26 -18 -30 -7 -4 12
47 36 129 -3 153 -73 33 -100 -78 -204 -159 -147 l-22 15 0 -75 c0 -44 4 -76
10 -76 6 0 10 -4 10 -10 0 -5 -20 -10 -45 -10 -25 0 -45 5 -45 10 0 6 5 10 10
10 6 0 10 64 10 171 0 169 0 171 -22 177 -19 6 -16 8 17 13 22 3 43 7 48 8 4
0 7 -9 8 -21z m1173 1 c25 -19 26 -25 26 -115 0 -95 8 -112 38 -82 7 7 12 8
12 2 0 -32 -52 -44 -85 -20 -17 12 -22 12 -39 0 -27 -19 -76 -18 -104 2 -57
39 5 124 90 124 l39 0 -3 41 c-3 48 -23 65 -61 55 -23 -5 -27 -11 -25 -39 3
-26 -1 -32 -17 -32 -28 0 -31 39 -6 64 29 29 99 29 135 0z m424 -212 c15 -2
-7 -4 -48 -4 -41 0 -65 2 -52 4 21 4 22 8 22 109 0 101 -1 104 -22 106 -13 0
-3 4 22 7 l45 6 3 -112 3 -112 27 -4z m747 63 l80 -80 -118 0 -117 0 0 42 c0
35 6 49 37 80 20 21 37 38 38 38 0 0 36 -36 80 -80z"/>
<path d="M3102 6213 c-100 -49 -150 -220 -139 -477 9 -205 49 -316 132 -363
44 -25 115 -30 162 -12 100 38 153 185 153 429 0 235 -47 377 -142 426 -36 19
-125 17 -166 -3z"/>
<path d="M9446 5467 c-36 -26 -43 -150 -11 -177 8 -7 24 -10 37 -8 22 3 23 7
26 101 2 89 1 97 -16 97 -10 0 -26 -6 -36 -13z"/>
<path d="M9794 5335 c-35 -35 -30 -70 11 -70 29 0 30 2 33 48 4 54 -7 59 -44
22z"/>
<path d="M12094 5489 c-4 -6 -10 -27 -14 -45 l-8 -34 45 0 46 0 -7 32 c-10 50
-44 76 -62 47z"/>
<path d="M11917 5339 c-20 -15 -27 -29 -25 -48 2 -22 8 -26 33 -26 25 0 31 5
33 25 2 14 -1 36 -5 48 l-9 23 -27 -22z"/>
<path d="M3101 4593 c-92 -46 -141 -194 -141 -428 1 -317 95 -464 274 -431
114 22 176 175 176 436 0 244 -53 391 -153 429 -42 16 -117 13 -156 -6z"/>
<path d="M7423 4488 c-6 -7 -13 -25 -17 -40 -6 -27 -5 -28 39 -28 44 0 45 1
39 28 -8 33 -22 52 -39 52 -7 0 -17 -6 -22 -12z"/>
<path d="M4684 2588 l-45 -43 51 -62 c37 -46 57 -63 75 -63 25 0 25 0 25 105
l0 105 -31 0 c-22 0 -42 -12 -75 -42z"/>
<path d="M5382 2519 c-20 -7 -23 -15 -20 -51 2 -36 7 -44 25 -46 42 -6 63 15
63 63 0 40 -2 45 -22 44 -13 0 -33 -4 -46 -10z"/>
<path d="M8572 2633 c-18 -7 -42 -57 -42 -87 0 -14 11 -37 24 -53 19 -22 32
-28 66 -28 73 0 110 67 75 134 -8 16 -22 31 -30 35 -19 7 -74 7 -93 -1z"/>
<path d="M4157 2625 c-29 -29 -34 -152 -7 -194 5 -9 24 -15 45 -15 52 0 65 22
65 111 0 60 -4 77 -20 93 -24 24 -63 26 -83 5z"/>
<path d="M6260 2620 c-16 -16 -20 -33 -20 -95 0 -62 4 -79 20 -95 24 -24 48
-25 78 -4 20 14 22 24 22 99 0 63 -4 88 -16 99 -21 22 -60 20 -84 -4z"/>
<path d="M6640 2620 c-16 -16 -20 -33 -20 -95 0 -62 4 -79 20 -95 24 -24 48
-25 78 -4 20 14 22 24 22 99 0 63 -4 88 -16 99 -21 22 -60 20 -84 -4z"/>
<path d="M8110 2615 c-13 -14 -21 -27 -18 -30 3 -3 43 -5 89 -3 l84 3 -27 28
c-37 37 -94 38 -128 2z"/>
<path d="M8917 2629 c-9 -5 -24 -24 -33 -40 -28 -55 18 -129 81 -129 34 0 73
30 85 64 19 60 -23 116 -87 116 -15 0 -36 -5 -46 -11z"/>
<path d="M6034 2520 c-46 -18 -37 -100 11 -100 35 0 55 26 55 71 0 34 -3 39
-22 38 -13 0 -33 -4 -44 -9z"/>
</g>
</svg>
