<?xml version="1.0" encoding="UTF-8" standalone="no"?>
<!DOCTYPE svg PUBLIC "-//W3C//DTD SVG 1.1//EN" "http://www.w3.org/Graphics/SVG/1.1/DTD/svg11.dtd">
<svg xmlns="http://www.w3.org/2000/svg" xmlns:xlink="http://www.w3.org/1999/xlink" version="1.1" width="46.7392pt" height="59.167pt" viewBox="0 0 46.7392 59.167">
<g enable-background="new">
<clipPath id="cp0">
<path transform="matrix(1,0,0,-1,0,59.167)" d="M 0 59.167 L 46.739 59.167 L 46.739 0 L 0 0 Z "/>
</clipPath>
<g clip-path="url(#cp0)">
<path transform="matrix(1,0,0,-1,44.2604,56.334)" d="M 0 0 L -41.781 0 C -41.877 0 -41.954 .077 -41.954 .172 L -41.954 53.329 C -41.954 53.424 -41.877 53.501 -41.781 53.501 L 0 53.501 C .095 53.501 .172 53.424 .172 53.329 L .172 .172 C .172 .077 .095 0 0 0 " fill="#c93131"/>
<path transform="matrix(1,0,0,-1,0,59.167)" d="M 4.632 5.137 L 42.045 5.137 L 42.045 54.009004 L 4.632 54.009004 Z M 42.445 4.736 L 4.230999 4.736 L 4.230999 54.409 L 42.445 54.409 Z " fill="#ffffff"/>
<path transform="matrix(1,0,0,-1,8.8356,41.651)" d="M 0 0 L 2.019 0 L 2.019 -.583 L .663 -.583 L .663 -1.166 L 1.918 -1.166 L 1.918 -1.749 L .663 -1.749 L .663 -2.867 L 0 -2.867 Z " fill="#ffffff"/>
<path transform="matrix(1,0,0,-1,11.0364,42.549798)" d="M 0 0 L .638 0 L .638 -.316 L .646 -.316 C .714 -.194 .795 -.103 .888 -.043 C .982 .018 1.1 .048 1.242 .048 C 1.278 .048 1.315 .047 1.352 .045 C 1.389 .042 1.423 .036 1.454 .029 L 1.454 -.526 C 1.409 -.513 1.364 -.503 1.32 -.496 C 1.276 -.489 1.23 -.486 1.182 -.486 C 1.06 -.486 .964 -.502 .893 -.534 C .822 -.567 .767 -.612 .729 -.67 C .691 -.728 .666 -.798 .655 -.878 C .643 -.96 .638 -1.049 .638 -1.146 L .638 -1.968 L 0 -1.968 Z " fill="#ffffff"/>
<path transform="matrix(1,0,0,-1,13.7713,43.6552)" d="M 0 0 C -.048 0 -.108 -.002 -.181 -.006 C -.253 -.01 -.322 -.022 -.389 -.04 C -.456 -.059 -.512 -.088 -.559 -.126 C -.606 -.163 -.629 -.216 -.629 -.283 C -.629 -.356 -.597 -.41 -.531 -.445 C -.466 -.48 -.398 -.498 -.327 -.498 C -.265 -.498 -.205 -.49 -.146 -.474 C -.088 -.457 -.037 -.435 .009 -.405 C .054 -.375 .09 -.337 .117 -.292 C .144 -.245 .157 -.192 .157 -.13 L .157 0 Z M .157 -.615 L .149 -.615 C .078 -.721 -.016 -.796 -.134 -.842 C -.251 -.888 -.375 -.911 -.506 -.911 C -.602 -.911 -.695 -.898 -.784 -.872 C -.874 -.847 -.952 -.808 -1.02 -.757 C -1.088 -.706 -1.142 -.642 -1.182 -.567 C -1.222 -.491 -1.241 -.403 -1.241 -.304 C -1.241 -.19 -1.219 -.095 -1.176 -.016 C -1.132 .062 -1.072 .127 -.997 .178 C -.922 .229 -.836 .269 -.74 .298 C -.643 .326 -.543 .347 -.44 .36 C -.337 .374 -.233 .382 -.13 .385 C -.026 .387 .069 .389 .157 .389 C .157 .497 .117 .582 .036 .646 C -.044 .709 -.14 .741 -.251 .741 C -.356 .741 -.451 .72 -.538 .678 C -.624 .636 -.701 .579 -.77 .506 L -1.11 .838 C -.991 .943 -.852 1.023 -.693 1.075 C -.534 1.128 -.37 1.154 -.2 1.154 C -.013 1.154 .141 1.132 .262 1.087 C .382 1.043 .478 .977 .551 .891 C .623 .805 .673 .699 .702 .573 C .73 .448 .744 .302 .744 .138 L .744 -.862 L .157 -.862 Z " fill="#ffffff"/>
<path transform="matrix(1,0,0,-1,14.8506,42.549798)" d="M 0 0 L .612 0 L .612 -.267 L .621 -.267 C .64 -.229 .669 -.192 .706 -.154 C .742 -.116 .786 -.082 .837 -.053 C .888 -.023 .947 .001 1.012 .02 C 1.077 .039 1.148 .048 1.224 .048 C 1.369 .048 1.497 .02 1.609 -.036 C 1.721 -.093 1.805 -.182 1.862 -.304 C 1.936 -.177 2.025 -.086 2.13 -.032 C 2.235 .022 2.363 .048 2.517 .048 C 2.655 .048 2.772 .026 2.868 -.018 C 2.962 -.063 3.037 -.123 3.093 -.2 C 3.148 -.277 3.188 -.368 3.212 -.472 C 3.236 -.576 3.248 -.687 3.248 -.806 L 3.248 -1.968 L 2.61 -1.968 L 2.61 -.822 C 2.61 -.73 2.59 -.651 2.548 -.585 C 2.508 -.519 2.434 -.486 2.329 -.486 C 2.256 -.486 2.194 -.497 2.145 -.52 C 2.095 -.543 2.055 -.575 2.026 -.615 C 1.996 -.656 1.975 -.703 1.962 -.757 C 1.949 -.811 1.943 -.868 1.943 -.927 L 1.943 -1.968 L 1.305 -1.968 L 1.305 -.927 C 1.305 -.892 1.303 -.849 1.301 -.798 C 1.298 -.746 1.288 -.698 1.271 -.652 C 1.254 -.606 1.226 -.567 1.188 -.534 C 1.15 -.502 1.094 -.486 1.02 -.486 C .938 -.486 .871 -.5 .82 -.528 C .77 -.557 .73 -.594 .703 -.642 C .677 -.689 .659 -.742 .65 -.802 C .642 -.861 .637 -.923 .637 -.988 L .637 -1.968 L 0 -1.968 Z " fill="#ffffff"/>
<path transform="matrix(1,0,0,-1,19.4445,41.651)" d="M 0 0 L .867 0 L .132 -.583 L -.429 -.583 Z M .991 -2.867 L .378 -2.867 L .378 -2.599 L .37 -2.599 C .347 -2.637 .318 -2.675 .283 -2.713 C .247 -2.751 .204 -2.784 .153 -2.814 C .102 -2.843 .044 -2.868 -.021 -2.887 C -.087 -2.906 -.157 -2.915 -.234 -2.915 C -.395 -2.915 -.526 -2.891 -.627 -2.844 C -.728 -2.797 -.806 -2.732 -.861 -2.648 C -.916 -2.564 -.953 -2.466 -.972 -2.352 C -.99 -2.239 -.999 -2.116 -.999 -1.984 L -.999 -.899 L -.361 -.899 L -.361 -1.863 C -.361 -1.919 -.359 -1.978 -.355 -2.039 C -.351 -2.099 -.338 -2.155 -.317 -2.207 C -.296 -2.258 -.263 -2.3 -.219 -2.332 C -.175 -2.365 -.112 -2.381 -.03 -2.381 C .052 -2.381 .119 -2.367 .17 -2.338 C .221 -2.31 .26 -2.272 .287 -2.225 C .314 -2.177 .331 -2.124 .34 -2.065 C .349 -2.006 .353 -1.943 .353 -1.879 L .353 -.899 L .991 -.899 Z " fill="#ffffff"/>
<path transform="matrix(1,0,0,-1,20.8012,42.549798)" d="M 0 0 L .637 0 L .637 -.316 L .646 -.316 C .714 -.194 .795 -.103 .888 -.043 C .982 .018 1.1 .048 1.241 .048 C 1.278 .048 1.315 .047 1.352 .045 C 1.389 .042 1.423 .036 1.454 .029 L 1.454 -.526 C 1.408 -.513 1.364 -.503 1.32 -.496 C 1.276 -.489 1.23 -.486 1.182 -.486 C 1.06 -.486 .963 -.502 .893 -.534 C .822 -.567 .767 -.612 .729 -.67 C .691 -.728 .666 -.798 .655 -.878 C .643 -.96 .637 -1.049 .637 -1.146 L .637 -1.968 L 0 -1.968 Z " fill="#ffffff"/>
<path transform="matrix(1,0,0,-1,23.6158,43.1288)" d="M 0 0 C -.094 .111 -.217 .166 -.37 .166 C -.424 .166 -.476 .154 -.527 .13 C -.578 .105 -.604 .064 -.604 .004 C -.604 -.044 -.578 -.08 -.525 -.103 C -.473 -.126 -.406 -.146 -.325 -.164 C -.244 -.182 -.158 -.2 -.066 -.221 C .026 -.241 .113 -.273 .194 -.316 C .274 -.359 .341 -.418 .393 -.492 C .446 -.566 .472 -.665 .472 -.789 C .472 -.916 .443 -1.021 .385 -1.103 C .327 -1.186 .252 -1.252 .162 -1.302 C .071 -1.352 -.031 -1.387 -.144 -1.407 C -.258 -1.427 -.37 -1.437 -.48 -1.437 C -.625 -1.437 -.771 -1.418 -.918 -1.379 C -1.066 -1.34 -1.19 -1.27 -1.292 -1.17 L -.906 -.761 C -.846 -.831 -.78 -.885 -.708 -.921 C -.636 -.958 -.551 -.976 -.455 -.976 C -.381 -.976 -.315 -.965 -.255 -.946 C -.196 -.925 -.166 -.888 -.166 -.834 C -.166 -.783 -.192 -.744 -.244 -.719 C -.297 -.693 -.363 -.671 -.444 -.654 C -.525 -.636 -.612 -.618 -.703 -.597 C -.796 -.577 -.882 -.547 -.963 -.506 C -1.044 -.466 -1.11 -.408 -1.163 -.334 C -1.215 -.26 -1.242 -.161 -1.242 -.036 C -1.242 .08 -1.217 .179 -1.167 .263 C -1.117 .347 -1.052 .416 -.971 .47 C -.891 .524 -.798 .564 -.693 .589 C -.588 .615 -.482 .628 -.374 .628 C -.238 .628 -.101 .609 .038 .571 C .177 .533 .295 .466 .391 .369 Z " fill="#ffffff"/>
<path transform="matrix(1,0,0,-1,24.3307,41.456399)" d="M 0 0 L .637 0 L .637 -1.871 L 1.343 -1.093 L 2.126 -1.093 L 1.305 -1.98 L 2.147 -3.061 L 1.343 -3.061 L .646 -2.065 L .637 -2.065 L .637 -3.061 L 0 -3.061 Z " fill="#ffffff"/>
<path transform="matrix(1,0,0,-1,27.6882,43.6552)" d="M 0 0 C -.048 0 -.108 -.002 -.181 -.006 C -.253 -.01 -.322 -.022 -.389 -.04 C -.456 -.059 -.512 -.088 -.559 -.126 C -.606 -.163 -.629 -.216 -.629 -.283 C -.629 -.356 -.597 -.41 -.531 -.445 C -.466 -.48 -.398 -.498 -.327 -.498 C -.265 -.498 -.205 -.49 -.146 -.474 C -.088 -.457 -.037 -.435 .009 -.405 C .054 -.375 .09 -.337 .117 -.292 C .144 -.245 .157 -.192 .157 -.13 L .157 0 Z M .157 -.615 L .149 -.615 C .078 -.721 -.016 -.796 -.134 -.842 C -.251 -.888 -.375 -.911 -.506 -.911 C -.602 -.911 -.695 -.898 -.784 -.872 C -.874 -.847 -.952 -.808 -1.02 -.757 C -1.088 -.706 -1.142 -.642 -1.182 -.567 C -1.222 -.491 -1.241 -.403 -1.241 -.304 C -1.241 -.19 -1.219 -.095 -1.176 -.016 C -1.132 .062 -1.072 .127 -.997 .178 C -.922 .229 -.836 .269 -.74 .298 C -.643 .326 -.543 .347 -.44 .36 C -.337 .374 -.233 .382 -.13 .385 C -.026 .387 .069 .389 .157 .389 C .157 .497 .117 .582 .036 .646 C -.044 .709 -.14 .741 -.251 .741 C -.356 .741 -.451 .72 -.538 .678 C -.624 .636 -.701 .579 -.77 .506 L -1.11 .838 C -.991 .943 -.852 1.023 -.693 1.075 C -.534 1.128 -.37 1.154 -.2 1.154 C -.013 1.154 .141 1.132 .262 1.087 C .382 1.043 .478 .977 .551 .891 C .623 .805 .673 .699 .702 .573 C .73 .448 .744 .302 .744 .138 L .744 -.862 L .157 -.862 Z " fill="#ffffff"/>
<path transform="matrix(1,0,0,-1,28.7671,42.549798)" d="M 0 0 L .638 0 L .638 -.316 L .646 -.316 C .714 -.194 .795 -.103 .888 -.043 C .982 .018 1.1 .048 1.242 .048 C 1.278 .048 1.315 .047 1.352 .045 C 1.389 .042 1.423 .036 1.454 .029 L 1.454 -.526 C 1.409 -.513 1.364 -.503 1.32 -.496 C 1.276 -.489 1.23 -.486 1.182 -.486 C 1.06 -.486 .964 -.502 .893 -.534 C .822 -.567 .767 -.612 .729 -.67 C .691 -.728 .666 -.798 .655 -.878 C .643 -.96 .638 -1.049 .638 -1.146 L .638 -1.968 L 0 -1.968 Z " fill="#ffffff"/>
<path transform="matrix(1,0,0,-1,31.5019,43.6552)" d="M 0 0 C -.048 0 -.108 -.002 -.181 -.006 C -.253 -.01 -.322 -.022 -.389 -.04 C -.456 -.059 -.512 -.088 -.559 -.126 C -.606 -.163 -.629 -.216 -.629 -.283 C -.629 -.356 -.597 -.41 -.531 -.445 C -.466 -.48 -.398 -.498 -.327 -.498 C -.265 -.498 -.205 -.49 -.146 -.474 C -.088 -.457 -.037 -.435 .009 -.405 C .054 -.375 .09 -.337 .117 -.292 C .144 -.245 .157 -.192 .157 -.13 L .157 0 Z M .157 -.615 L .149 -.615 C .078 -.721 -.016 -.796 -.134 -.842 C -.251 -.888 -.375 -.911 -.506 -.911 C -.602 -.911 -.695 -.898 -.784 -.872 C -.874 -.847 -.952 -.808 -1.02 -.757 C -1.088 -.706 -1.142 -.642 -1.182 -.567 C -1.222 -.491 -1.241 -.403 -1.241 -.304 C -1.241 -.19 -1.219 -.095 -1.176 -.016 C -1.132 .062 -1.072 .127 -.997 .178 C -.922 .229 -.836 .269 -.74 .298 C -.643 .326 -.543 .347 -.44 .36 C -.337 .374 -.233 .382 -.13 .385 C -.026 .387 .069 .389 .157 .389 C .157 .497 .117 .582 .036 .646 C -.044 .709 -.14 .741 -.251 .741 C -.356 .741 -.451 .72 -.538 .678 C -.624 .636 -.701 .579 -.769 .506 L -1.11 .838 C -.991 .943 -.852 1.023 -.693 1.075 C -.534 1.128 -.37 1.154 -.2 1.154 C -.013 1.154 .141 1.132 .262 1.087 C .382 1.043 .478 .977 .551 .891 C .623 .805 .673 .699 .702 .573 C .73 .448 .744 .302 .744 .138 L .744 -.862 L .157 -.862 Z " fill="#ffffff"/>
<path transform="matrix(1,0,0,-1,32.5812,42.549798)" d="M 0 0 L .612 0 L .612 -.267 L .621 -.267 C .64 -.229 .669 -.192 .706 -.154 C .742 -.116 .786 -.082 .837 -.053 C .888 -.023 .947 .001 1.012 .02 C 1.077 .039 1.148 .048 1.224 .048 C 1.386 .048 1.516 .025 1.615 -.022 C 1.715 -.069 1.792 -.135 1.847 -.219 C 1.902 -.302 1.94 -.401 1.96 -.514 C 1.979 -.627 1.989 -.75 1.989 -.883 L 1.989 -1.968 L 1.352 -1.968 L 1.352 -1.004 C 1.352 -.947 1.35 -.889 1.345 -.828 C 1.341 -.767 1.329 -.711 1.307 -.66 C 1.286 -.609 1.253 -.567 1.209 -.534 C 1.165 -.502 1.102 -.486 1.02 -.486 C .938 -.486 .871 -.5 .82 -.528 C .77 -.557 .73 -.594 .703 -.642 C .677 -.689 .659 -.742 .65 -.802 C .642 -.861 .637 -.923 .637 -.988 L .637 -1.968 L 0 -1.968 Z " fill="#ffffff"/>
<path transform="matrix(1,0,0,-1,36.4954,43.5335)" d="M 0 0 C 0 .148 -.045 .269 -.134 .36 C -.223 .452 -.349 .498 -.51 .498 C -.672 .498 -.797 .452 -.886 .36 C -.976 .269 -1.02 .148 -1.02 0 C -1.02 -.149 -.976 -.269 -.886 -.36 C -.797 -.452 -.672 -.498 -.51 -.498 C -.349 -.498 -.223 -.452 -.134 -.36 C -.045 -.269 0 -.149 0 0 M .587 -.984 L 0 -.984 L 0 -.725 L -.009 -.725 C -.034 -.76 -.067 -.796 -.109 -.832 C -.15 -.869 -.198 -.902 -.253 -.931 C -.308 -.961 -.369 -.985 -.436 -1.004 C -.502 -1.023 -.571 -1.033 -.642 -1.033 C -.795 -1.033 -.934 -1.008 -1.059 -.958 C -1.183 -.908 -1.29 -.838 -1.38 -.747 C -1.469 -.657 -1.538 -.549 -1.586 -.425 C -1.634 -.301 -1.658 -.165 -1.658 -.017 C -1.658 .121 -1.636 .253 -1.592 .379 C -1.548 .504 -1.486 .615 -1.405 .712 C -1.324 .81 -1.226 .887 -1.11 .945 C -.994 1.003 -.862 1.032 -.714 1.032 C -.581 1.032 -.457 1.013 -.342 .974 C -.228 .935 -.133 .867 -.059 .773 L -.051 .773 L -.051 2.077 L .587 2.077 Z " fill="#ffffff"/>
<path transform="matrix(1,0,0,-1,0,59.167)" d="M 37.482 16.617 L 38.12 16.617 L 38.12 14.649 L 37.482 14.649 Z M 37.431 17.237 C 37.431 17.334 37.467 17.417 37.539 17.486 C 37.611 17.555 37.699 17.589 37.801 17.589 C 37.903 17.589 37.99 17.555 38.062 17.486 C 38.134 17.417 38.171 17.334 38.171 17.237 C 38.171 17.14 38.134 17.057 38.062 16.988 C 37.99 16.919 37.903 16.884 37.801 16.884 C 37.699 16.884 37.611 16.919 37.539 16.988 C 37.467 17.057 37.431 17.14 37.431 17.237 " fill="#ffffff"/>
<path transform="matrix(1,0,0,-1,8.9504,47.0845)" d="M 0 0 L -.421 0 L -.421 .486 L 0 .486 L 0 .834 C 0 .942 .01 1.044 .03 1.14 C .049 1.236 .088 1.32 .144 1.393 C .201 1.466 .283 1.523 .389 1.565 C .495 1.607 .635 1.628 .808 1.628 C .873 1.628 .937 1.625 .999 1.619 C 1.061 1.614 1.122 1.605 1.182 1.591 L 1.152 1.077 C 1.115 1.091 1.081 1.101 1.05 1.107 C 1.019 1.114 .983 1.117 .944 1.117 C .842 1.117 .765 1.096 .714 1.055 C .663 1.013 .638 .927 .638 .798 L .638 .486 L 1.11 .486 L 1.11 0 L .638 0 L .638 -1.482 L 0 -1.482 Z " fill="#ffffff"/>
<path transform="matrix(1,0,0,-1,11.4986,48.8862)" d="M 0 0 C -.042 -.105 -.084 -.198 -.123 -.28 C -.163 -.36 -.213 -.429 -.274 -.484 C -.335 -.539 -.412 -.581 -.506 -.61 C -.599 -.638 -.723 -.652 -.876 -.652 C -1.04 -.652 -1.199 -.628 -1.352 -.579 L -1.267 -.081 C -1.17 -.122 -1.071 -.142 -.969 -.142 C -.898 -.142 -.84 -.134 -.795 -.12 C -.75 -.105 -.712 -.083 -.682 -.055 C -.653 -.026 -.628 .008 -.608 .048 C -.588 .089 -.567 .136 -.544 .19 L -.497 .304 L -1.403 2.288 L -.714 2.288 L -.183 .988 L -.174 .988 L .281 2.288 L .935 2.288 Z " fill="#ffffff"/>
<path transform="matrix(1,0,0,-1,12.5734,46.5987)" d="M 0 0 L .638 0 L .638 -.316 L .646 -.316 C .714 -.194 .795 -.103 .888 -.043 C .982 .018 1.1 .048 1.242 .048 C 1.278 .048 1.315 .047 1.352 .045 C 1.389 .042 1.423 .036 1.454 .029 L 1.454 -.526 C 1.409 -.513 1.364 -.503 1.32 -.496 C 1.276 -.489 1.23 -.486 1.182 -.486 C 1.06 -.486 .964 -.502 .893 -.534 C .822 -.567 .767 -.612 .729 -.67 C .691 -.728 .666 -.798 .655 -.878 C .643 -.96 .638 -1.049 .638 -1.146 L .638 -1.968 L 0 -1.968 Z " fill="#ffffff"/>
<path transform="matrix(1,0,0,-1,0,59.167)" d="M 14.188 12.568 L 14.826 12.568 L 14.826 10.599999 L 14.188 10.599999 Z M 14.137 13.188 C 14.137 13.285 14.173 13.368 14.245 13.437 C 14.318 13.506 14.405 13.54 14.507 13.54 C 14.609 13.54 14.696 13.506 14.768 13.437 C 14.841 13.368 14.877 13.285 14.877 13.188 C 14.877 13.091 14.841 13.008 14.768 12.939 C 14.696 12.87 14.609 12.835 14.507 12.835 C 14.405 12.835 14.318 12.87 14.245 12.939 C 14.173 13.008 14.137 13.091 14.137 13.188 " fill="#ffffff"/>
<path transform="matrix(1,0,0,-1,15.2006,46.5987)" d="M 0 0 L .637 0 L .637 -.316 L .646 -.316 C .714 -.194 .795 -.103 .888 -.043 C .982 .018 1.1 .048 1.241 .048 C 1.278 .048 1.315 .047 1.352 .045 C 1.389 .042 1.423 .036 1.454 .029 L 1.454 -.526 C 1.408 -.513 1.364 -.503 1.32 -.496 C 1.276 -.489 1.23 -.486 1.182 -.486 C 1.06 -.486 .963 -.502 .893 -.534 C .822 -.567 .767 -.612 .729 -.67 C .691 -.728 .666 -.798 .655 -.878 C .643 -.96 .637 -1.049 .637 -1.146 L .637 -1.968 L 0 -1.968 Z " fill="#ffffff"/>
<path transform="matrix(1,0,0,-1,18.3177,47.0845)" d="M 0 0 L -.561 0 L -.561 -.656 C -.561 -.71 -.558 -.759 -.553 -.804 C -.547 -.848 -.534 -.887 -.514 -.919 C -.494 -.951 -.464 -.976 -.423 -.994 C -.382 -1.012 -.327 -1.02 -.259 -1.02 C -.225 -1.02 -.181 -1.017 -.125 -1.01 C -.07 -1.004 -.028 -.988 0 -.964 L 0 -1.47 C -.071 -1.494 -.144 -1.51 -.221 -1.518 C -.297 -1.527 -.373 -1.53 -.446 -1.53 C -.554 -1.53 -.653 -1.52 -.744 -1.498 C -.834 -1.476 -.914 -1.442 -.982 -1.395 C -1.05 -1.348 -1.103 -1.286 -1.142 -1.211 C -1.18 -1.135 -1.199 -1.043 -1.199 -.935 L -1.199 0 L -1.607 0 L -1.607 .486 L -1.199 .486 L -1.199 1.069 L -.561 1.069 L -.561 .486 L 0 .486 Z " fill="#ffffff"/>
<path transform="matrix(1,0,0,-1,21.1846,47.3599)" d="M 0 0 C .003 .103 -.033 .19 -.106 .263 C -.18 .336 -.275 .373 -.391 .373 C -.462 .373 -.524 .362 -.578 .34 C -.632 .319 -.678 .291 -.717 .257 C -.755 .223 -.785 .184 -.806 .14 C -.827 .095 -.839 .049 -.842 0 Z M -2.126 -.644 C -2.126 -.69 -2.115 -.725 -2.094 -.751 C -2.073 -.777 -2.046 -.796 -2.015 -.81 C -1.984 -.823 -1.949 -.832 -1.909 -.836 C -1.869 -.84 -1.832 -.842 -1.799 -.842 C -1.645 -.842 -1.537 -.803 -1.473 -.725 C -1.409 -.646 -1.377 -.543 -1.377 -.413 L -1.454 -.413 C -1.502 -.413 -1.564 -.414 -1.641 -.417 C -1.718 -.42 -1.792 -.428 -1.864 -.441 C -1.936 -.455 -1.998 -.478 -2.049 -.51 C -2.1 -.543 -2.126 -.587 -2.126 -.644 M -2.606 .494 C -2.487 .599 -2.348 .678 -2.19 .731 C -2.031 .784 -1.866 .81 -1.696 .81 C -1.574 .81 -1.455 .791 -1.337 .753 C -1.22 .715 -1.115 .655 -1.025 .571 C -.94 .649 -.837 .709 -.717 .749 C -.596 .79 -.468 .81 -.332 .81 C -.184 .81 -.051 .786 .07 .737 C .19 .688 .293 .619 .376 .528 C .46 .438 .524 .329 .57 .203 C .615 .076 .637 -.066 .637 -.222 L .637 -.413 L -.842 -.413 C -.816 -.529 -.761 -.621 -.676 -.69 C -.591 -.759 -.486 -.794 -.361 -.794 C -.257 -.794 -.168 -.771 -.096 -.727 C -.023 -.682 .04 -.625 .094 -.555 L .54 -.866 C .438 -.991 .309 -1.087 .153 -1.154 C -.003 -1.221 -.164 -1.255 -.332 -1.255 C -.502 -1.255 -.659 -1.232 -.804 -1.186 C -.948 -1.14 -1.066 -1.057 -1.156 -.935 C -1.247 -1.054 -1.365 -1.137 -1.511 -1.184 C -1.658 -1.231 -1.821 -1.255 -2.002 -1.255 C -2.099 -1.255 -2.192 -1.242 -2.281 -1.216 C -2.37 -1.191 -2.449 -1.153 -2.517 -1.101 C -2.585 -1.05 -2.639 -.986 -2.678 -.911 C -2.718 -.836 -2.738 -.747 -2.738 -.648 C -2.738 -.543 -2.717 -.454 -2.674 -.381 C -2.632 -.308 -2.576 -.247 -2.506 -.198 C -2.437 -.15 -2.358 -.113 -2.268 -.087 C -2.179 -.061 -2.087 -.042 -1.992 -.028 C -1.897 -.015 -1.803 -.007 -1.709 -.004 C -1.616 -.001 -1.531 0 -1.454 0 L -1.377 0 C -1.377 .119 -1.41 .215 -1.475 .287 C -1.541 .36 -1.631 .397 -1.747 .397 C -1.852 .397 -1.948 .376 -2.034 .334 C -2.121 .292 -2.198 .235 -2.266 .162 Z " fill="#ffffff"/>
<path transform="matrix(1,0,0,-1,22.0896,45.5053)" d="M 0 0 L .638 0 L .638 -1.871 L 1.343 -1.093 L 2.126 -1.093 L 1.305 -1.98 L 2.147 -3.061 L 1.343 -3.061 L .646 -2.065 L .638 -2.065 L .638 -3.061 L 0 -3.061 Z " fill="#ffffff"/>
<path transform="matrix(1,0,0,-1,0,59.167)" d="M 24.367 12.568 L 25.005002 12.568 L 25.005002 10.599999 L 24.367 10.599999 Z M 24.317 13.188 C 24.317 13.285 24.353 13.368 24.425 13.437 C 24.497 13.506 24.584 13.54 24.687 13.54 C 24.788 13.54 24.876 13.506 24.948 13.437 C 25.02 13.368 25.056 13.285 25.056 13.188 C 25.056 13.091 25.02 13.008 24.948 12.939 C 24.876 12.87 24.788 12.835 24.687 12.835 C 24.584 12.835 24.497 12.87 24.425 12.939 C 24.353 13.008 24.317 13.091 24.317 13.188 " fill="#ffffff"/>
<path transform="matrix(1,0,0,-1,23.4099,9.803001)" d="M 0 0 C -8.067 0 -14.606 -6.411 -14.606 -14.319 C -14.606 -22.228 -8.067 -28.638 0 -28.638 C 8.067 -28.638 14.605 -22.228 14.605 -14.319 C 14.605 -6.411 8.067 0 0 0 " fill="#ffffff"/>
<path transform="matrix(1,0,0,-1,19.2133,25.0853)" d="M 0 0 C -.1 .478 -.578 .786 -1.066 .688 C -1.553 .59 -1.867 .122 -1.767 -.357 C -1.667 -.834 -1.19 -1.142 -.701 -1.044 C -.214 -.946 .1 -.479 0 0 " fill="#c93131"/>
<path transform="matrix(1,0,0,-1,19.8936,28.0489)" d="M 0 0 C .395 .296 .472 .851 .17 1.24 C -.133 1.628 -.697 1.702 -1.095 1.407 C -1.491 1.109 -1.569 .555 -1.266 .167 C -.965 -.221 -.397 -.296 0 0 " fill="#c93131"/>
<path transform="matrix(1,0,0,-1,19.9397,20.1991)" d="M 0 0 C -.383 .312 -.95 .262 -1.27 -.112 C -1.59 -.487 -1.537 -1.046 -1.154 -1.358 C -.772 -1.671 -.203 -1.621 .116 -1.245 C .433 -.87 .383 -.313 0 0 " fill="#c93131"/>
<path transform="matrix(1,0,0,-1,23.5244,18.051499)" d="M 0 0 C -.499 .011 -.911 -.376 -.923 -.866 C -.933 -1.354 -.538 -1.758 -.039 -1.769 C .458 -1.779 .87 -1.392 .882 -.903 C .892 -.416 .497 -.011 0 0 " fill="#c93131"/>
<path transform="matrix(1,0,0,-1,17.4617,22.7403)" d="M 0 0 C -.122 -.472 .171 -.953 .654 -1.073 C 1.137 -1.191 1.626 -.904 1.749 -.43 C 1.87 .043 1.577 .524 1.094 .644 C .611 .762 .12 .474 0 0 " fill="#c93131"/>
<path transform="matrix(1,0,0,-1,20.8332,18.6385)" d="M 0 0 C -.453 -.203 -.653 -.726 -.447 -1.171 C -.241 -1.616 .295 -1.812 .747 -1.609 C 1.2 -1.408 1.4 -.884 1.195 -.439 C .988 .005 .454 .203 0 0 " fill="#c93131"/>
<path transform="matrix(1,0,0,-1,22.5742,29.2898)" d="M 0 0 C -.009 -.488 .384 -.894 .883 -.903 C 1.38 -.915 1.792 -.526 1.804 -.038 C 1.816 .45 1.419 .854 .921 .865 C .424 .875 .012 .488 0 0 " fill="#c93131"/>
<path transform="matrix(1,0,0,-1,21.5912,28.0015)" d="M 0 0 C -.443 .221 -.986 .047 -1.212 -.388 C -1.438 -.822 -1.262 -1.354 -.817 -1.577 C -.374 -1.798 .17 -1.625 .395 -1.19 C .621 -.754 .445 -.221 0 0 " fill="#c93131"/>
<path transform="matrix(1,0,0,-1,23.373,17.3777)" d="M 0 0 C .78 -.013 1.424 .596 1.437 1.363 C 1.45 2.128 .828 2.758 .047 2.771 C -.733 2.785 -1.376 2.174 -1.391 1.408 C -1.403 .644 -.782 .012 0 0 " fill="#c93131"/>
<path transform="matrix(1,0,0,-1,20.3937,18.064599)" d="M 0 0 C .707 .321 1.017 1.144 .691 1.84 C .363 2.533 -.476 2.839 -1.186 2.517 C -1.894 2.196 -2.204 1.373 -1.878 .678 C -1.549 -.018 -.711 -.321 0 0 " fill="#c93131"/>
<path transform="matrix(1,0,0,-1,20.4726,30.2175)" d="M 0 0 C -.697 .342 -1.548 .067 -1.899 -.619 C -2.248 -1.301 -1.967 -2.134 -1.27 -2.478 C -.571 -2.821 .279 -2.545 .629 -1.861 C .98 -1.177 .697 -.344 0 0 " fill="#c93131"/>
<path transform="matrix(1,0,0,-1,23.4612,30.8676)" d="M 0 0 C -.779 .013 -1.423 -.598 -1.436 -1.363 C -1.449 -2.128 -.828 -2.758 -.046 -2.771 C .734 -2.785 1.378 -2.174 1.391 -1.408 C 1.404 -.644 .782 -.012 0 0 " fill="#c93131"/>
<path transform="matrix(1,0,0,-1,16.0839,28.1107)" d="M 0 0 C -.619 -.467 -.734 -1.337 -.257 -1.944 C .22 -2.549 1.107 -2.662 1.727 -2.195 C 2.345 -1.728 2.46 -.858 1.983 -.251 C 1.507 .354 .618 .467 0 0 " fill="#c93131"/>
<path transform="matrix(1,0,0,-1,16.0208,20.1386)" d="M 0 0 C .603 -.487 1.494 -.404 1.991 .187 C 2.486 .778 2.402 1.65 1.799 2.138 C 1.198 2.625 .307 2.541 -.191 1.952 C -.688 1.361 -.603 .487 0 0 " fill="#c93131"/>
<path transform="matrix(1,0,0,-1,14.9904,23.679902)" d="M 0 0 C .758 -.183 1.524 .272 1.711 1.016 C 1.896 1.758 1.433 2.51 .674 2.692 C -.083 2.874 -.849 2.421 -1.036 1.678 C -1.223 .933 -.758 .183 0 0 " fill="#c93131"/>
<path transform="matrix(1,0,0,-1,16.7209,25.6656)" d="M 0 0 C -.162 .749 -.911 1.226 -1.677 1.07 C -2.438 .912 -2.929 .176 -2.767 -.572 C -2.607 -1.321 -1.857 -1.8 -1.092 -1.642 C -.328 -1.484 .162 -.75 0 0 " fill="#c93131"/>
<path transform="matrix(1,0,0,-1,22.2469,25.5598)" d="M 0 0 L 0 .7 L 1.384 1.952 C 1.471 2.035 1.541 2.12 1.594 2.207 C 1.647 2.294 1.674 2.391 1.674 2.497 C 1.674 2.624 1.634 2.727 1.554 2.805 C 1.474 2.883 1.367 2.923 1.233 2.923 C 1.093 2.923 .979 2.873 .89 2.774 C .801 2.676 .749 2.547 .732 2.386 L -.075 2.496 C -.055 2.677 -.006 2.838 .073 2.979 C .151 3.119 .25 3.239 .371 3.339 C .491 3.438 .629 3.514 .785 3.566 C .94 3.618 1.104 3.645 1.278 3.645 C 1.442 3.645 1.601 3.623 1.754 3.579 C 1.908 3.536 2.045 3.469 2.166 3.379 C 2.286 3.288 2.382 3.175 2.454 3.038 C 2.526 2.9 2.562 2.74 2.562 2.557 C 2.562 2.43 2.545 2.315 2.512 2.213 C 2.478 2.111 2.432 2.017 2.374 1.93 C 2.315 1.843 2.249 1.762 2.173 1.687 C 2.098 1.611 2.02 1.537 1.94 1.464 L 1.118 .731 L 2.567 .731 L 2.567 0 Z " fill="#c93131"/>
<path transform="matrix(1,0,0,-1,27.2191,23.726502)" d="M 0 0 C 0 .11 -.007 .232 -.02 .366 C -.033 .5 -.059 .625 -.095 .74 C -.132 .855 -.185 .952 -.253 1.03 C -.322 1.109 -.411 1.148 -.521 1.148 C -.632 1.148 -.722 1.109 -.792 1.03 C -.862 .952 -.917 .855 -.955 .74 C -.993 .625 -1.02 .5 -1.033 .366 C -1.046 .232 -1.053 .11 -1.053 0 C -1.053 -.113 -1.046 -.237 -1.033 -.373 C -1.02 -.509 -.993 -.634 -.955 -.749 C -.917 -.864 -.862 -.961 -.792 -1.04 C -.722 -1.118 -.632 -1.157 -.521 -1.157 C -.411 -1.157 -.322 -1.118 -.253 -1.04 C -.185 -.961 -.132 -.864 -.095 -.749 C -.059 -.634 -.033 -.509 -.02 -.373 C -.007 -.237 0 -.113 0 0 M .768 0 C .768 -.25 .743 -.489 .693 -.717 C .642 -.943 .562 -1.144 .452 -1.315 C .342 -1.487 .199 -1.625 .023 -1.727 C -.152 -1.828 -.365 -1.88 -.616 -1.88 C -.866 -1.88 -1.08 -1.828 -1.257 -1.727 C -1.435 -1.625 -1.579 -1.487 -1.691 -1.315 C -1.803 -1.144 -1.884 -.943 -1.934 -.717 C -1.984 -.489 -2.009 -.25 -2.009 0 C -2.009 .251 -1.984 .489 -1.934 .715 C -1.884 .94 -1.803 1.138 -1.691 1.307 C -1.579 1.475 -1.435 1.609 -1.257 1.71 C -1.08 1.811 -.866 1.86 -.616 1.86 C -.365 1.86 -.152 1.811 .023 1.71 C .199 1.609 .342 1.475 .452 1.307 C .562 1.138 .642 .94 .693 .715 C .743 .489 .768 .251 .768 0 " fill="#c93131"/>
<path transform="matrix(1,0,0,-1,28.4581,25.5598)" d="M 0 0 L 0 .7 L 1.384 1.952 C 1.471 2.035 1.541 2.12 1.594 2.207 C 1.647 2.294 1.674 2.391 1.674 2.497 C 1.674 2.624 1.634 2.727 1.554 2.805 C 1.474 2.883 1.367 2.923 1.233 2.923 C 1.093 2.923 .979 2.873 .89 2.774 C .801 2.676 .749 2.547 .732 2.386 L -.075 2.496 C -.055 2.677 -.006 2.838 .073 2.979 C .151 3.119 .25 3.239 .371 3.339 C .491 3.438 .629 3.514 .785 3.566 C .94 3.618 1.104 3.645 1.278 3.645 C 1.442 3.645 1.601 3.623 1.754 3.579 C 1.908 3.536 2.045 3.469 2.166 3.379 C 2.286 3.288 2.382 3.175 2.454 3.038 C 2.526 2.9 2.562 2.74 2.562 2.557 C 2.562 2.43 2.545 2.315 2.512 2.213 C 2.478 2.111 2.432 2.017 2.374 1.93 C 2.315 1.843 2.249 1.762 2.173 1.687 C 2.098 1.611 2.02 1.537 1.94 1.464 L 1.118 .731 L 2.567 .731 L 2.567 0 Z " fill="#c93131"/>
<path transform="matrix(1,0,0,-1,31.5322,25.558499)" d="M 0 0 L 0 .7 L 1.384 1.952 C 1.471 2.035 1.541 2.12 1.594 2.207 C 1.647 2.294 1.674 2.391 1.674 2.497 C 1.674 2.624 1.634 2.727 1.554 2.805 C 1.474 2.883 1.367 2.923 1.233 2.923 C 1.093 2.923 .979 2.873 .89 2.774 C .801 2.676 .749 2.547 .732 2.386 L -.075 2.496 C -.055 2.677 -.006 2.838 .073 2.979 C .151 3.119 .25 3.239 .371 3.339 C .491 3.438 .629 3.514 .785 3.566 C .94 3.618 1.104 3.645 1.278 3.645 C 1.442 3.645 1.601 3.623 1.754 3.579 C 1.908 3.536 2.045 3.469 2.166 3.379 C 2.286 3.288 2.382 3.175 2.454 3.038 C 2.526 2.9 2.562 2.74 2.562 2.557 C 2.562 2.43 2.545 2.315 2.512 2.213 C 2.478 2.111 2.432 2.017 2.374 1.93 C 2.315 1.843 2.249 1.762 2.173 1.687 C 2.098 1.611 2.02 1.537 1.94 1.464 L 1.118 .731 L 2.567 .731 L 2.567 0 Z " fill="#c93131"/>
</g>
</g>
</svg>
