<?xml version="1.0" encoding="utf-8"?>
<!-- Generator: Adobe Illustrator 26.1.0, SVG Export Plug-In . SVG Version: 6.00 Build 0)  -->
<svg version="1.1" id="Layer_1" xmlns="http://www.w3.org/2000/svg" xmlns:xlink="http://www.w3.org/1999/xlink" x="0px" y="0px"
	 viewBox="0 0 64 64" style="enable-background:new 0 0 64 64;" xml:space="preserve">
<style type="text/css">
	.st0{fill:none;stroke:#000000;stroke-width:1.4173;stroke-linecap:round;stroke-miterlimit:10;}
	.st1{fill:none;stroke:#000000;stroke-width:1.4173;stroke-miterlimit:10;}
</style>
<g>
	<path class="st0" d="M38.1,51l-7.5,3.7c0,0-7-2.6-12.4-6.9c-5.5-4.3-5.5-12.4-5.5-12.4V16.5c0,0,7.2-2.9,18-7.2c0,0,8,3.3,17.9,7.5
		v17.8"/>
	<path class="st1" d="M38.6,34.7c0,4.4-3.6,8-8,8s-8-3.6-8-8s8-15.5,8-15.5S38.6,30.3,38.6,34.7z"/>
	<circle class="st1" cx="46.5" cy="44.8" r="7.6"/>
	<polyline class="st0" points="42.2,45.1 45.5,47.3 50.6,42.3 	"/>
	<line class="st0" x1="26.3" y1="31" x2="25.8" y2="32.5"/>
	<path class="st0" d="M25.3,35c0,0,0.3,3.5,3.8,4.9"/>
	<path class="st0" d="M34.7,31c0,0,2.1,3.1,0.7,6.2"/>
</g>
</svg>
