<?xml version="1.0" encoding="utf-8"?>
<!-- Generator: Adobe Illustrator 26.1.0, SVG Export Plug-In . SVG Version: 6.00 Build 0)  -->
<svg version="1.1" id="Layer_1" xmlns="http://www.w3.org/2000/svg" xmlns:xlink="http://www.w3.org/1999/xlink" x="0px" y="0px"
	 viewBox="0 0 64 64" style="enable-background:new 0 0 64 64;" xml:space="preserve">
<style type="text/css">
	.st0{fill:none;stroke:#000000;stroke-width:1.4173;stroke-miterlimit:10;}
	.st1{fill:none;stroke:#000000;stroke-width:1.4173;stroke-linecap:round;stroke-miterlimit:10;}
</style>
<g>
	<g>
		<path class="st0" d="M49.1,16.1V35c0,0-0.1,7.7-5.6,12.1c-5.5,4.3-12.4,6.8-12.4,6.8s-7-2.6-12.4-6.9c-5.5-4.3-5.5-12.4-5.5-12.4
			V15.8c0,0,7.2-2.9,18-7.2C31.2,8.6,39.2,11.9,49.1,16.1z"/>
	</g>
	<g>
		<path class="st1" d="M18.2,27.7c0,0,3.5,5,9.1,5.7c0,0,6.9,1.1,9.6-2.9c0,0,0.2-0.2,0.7-1.1"/>
		<path class="st0" d="M22.7,32.1c0,0-1.3,5.4,5.5,6.7l0.2-2L31,38c0,0,6.1,1.4,9.3-5.4c0,0,1.3-2.5,0.3-6.6l-0.9-3.3h-0.1
			c-5.8,9.6-11.3,6.9-11.3,6.9l-2.9,0.8l-0.1-1.5c-3.6,0.9-3.2,2.7-3.2,2.7"/>
		<path class="st1" d="M32,36.1c0,0,2.6,0,4.4-1.6"/>
		<line class="st1" x1="37.5" y1="33" x2="38.4" y2="31.9"/>
	</g>
</g>
</svg>
