<?xml version="1.0" encoding="utf-8"?>
<!-- Generator: Adobe Illustrator 26.1.0, SVG Export Plug-In . SVG Version: 6.00 Build 0)  -->
<svg version="1.1" id="Layer_1" xmlns="http://www.w3.org/2000/svg" xmlns:xlink="http://www.w3.org/1999/xlink" x="0px" y="0px"
	 viewBox="0 0 64 64" style="enable-background:new 0 0 64 64;" xml:space="preserve">
<style type="text/css">
	.st0{fill:none;stroke:#000000;stroke-width:1.4173;stroke-linecap:round;stroke-miterlimit:10;}
	.st1{fill:none;stroke:#000000;stroke-width:1.4173;stroke-miterlimit:10;}
</style>
<g>
	<path class="st0" d="M38.6,50.9l-7.5,3.7c0,0-7-2.6-12.4-6.9c-5.5-4.3-5.5-12.4-5.5-12.4V16.4c0,0,7.2-2.9,18-7.2
		c0,0,8,3.3,17.9,7.5v17.8"/>
	<path class="st1" d="M35.9,39.6c0,2.6-2.1,4.8-4.8,4.8s-4.8-2.1-4.8-4.8c0-1.6,0.8-3,2-3.9V21.8c0-1.6,1.3-2.8,2.8-2.8
		c0.8,0,1.5,0.3,2,0.8s0.8,1.2,0.8,2v13.9C35.1,36.6,35.9,38,35.9,39.6z"/>
	<g>
		<line class="st0" x1="45.5" y1="39.2" x2="45.5" y2="48.2"/>
		<line class="st0" x1="43.4" y1="37" x2="45.5" y2="39.2"/>
		<line class="st0" x1="45.5" y1="39.2" x2="47.7" y2="37"/>
		<line class="st0" x1="47.7" y1="50.5" x2="45.5" y2="48.4"/>
		<line class="st0" x1="45.5" y1="48.4" x2="43.4" y2="50.5"/>
		<line class="st0" x1="41.5" y1="41.2" x2="49.4" y2="45.8"/>
		<line class="st0" x1="38.5" y1="41.9" x2="41.5" y2="41.2"/>
		<line class="st0" x1="41.5" y1="41.2" x2="40.9" y2="38.2"/>
		<line class="st0" x1="52.5" y1="45" x2="49.5" y2="45.9"/>
		<line class="st0" x1="49.5" y1="45.9" x2="50.2" y2="48.9"/>
		<line class="st0" x1="41.5" y1="46.2" x2="49.4" y2="41.5"/>
		<line class="st0" x1="38.5" y1="45.4" x2="41.5" y2="46.2"/>
		<line class="st0" x1="41.5" y1="46.2" x2="40.9" y2="49.2"/>
		<line class="st0" x1="52.5" y1="42.2" x2="49.5" y2="41.5"/>
		<line class="st0" x1="49.5" y1="41.5" x2="50.2" y2="38.5"/>
	</g>
	<line class="st0" x1="30.2" y1="34.6" x2="31.4" y2="34.6"/>
	<line class="st0" x1="30.2" y1="32.3" x2="31.4" y2="32.3"/>
	<path class="st0" d="M28.6,39.4c0,0-0.3,2.3,2.4,2.7"/>
</g>
</svg>
