<?xml version="1.0" encoding="utf-8"?>
<!-- Generator: Adobe Illustrator 26.1.0, SVG Export Plug-In . SVG Version: 6.00 Build 0)  -->
<svg version="1.1" id="Layer_1" xmlns="http://www.w3.org/2000/svg" xmlns:xlink="http://www.w3.org/1999/xlink" x="0px" y="0px"
	 viewBox="0 0 64 64" style="enable-background:new 0 0 64 64;" xml:space="preserve">
<style type="text/css">
	.st0{fill:none;stroke:#000000;stroke-width:1.4173;stroke-linecap:round;stroke-miterlimit:10;}
	.st1{fill:none;stroke:#000000;stroke-width:1.4173;stroke-miterlimit:10;}
	.st2{enable-background:new    ;}
	.st3{fill:none;}
	.st4{fill:none;stroke:#000000;stroke-width:0.5669;stroke-miterlimit:10;}
</style>
<g>
	<path class="st0" d="M38.1,51l-7.5,3.7c0,0-7-2.6-12.4-6.9c-5.5-4.3-5.5-12.4-5.5-12.4V16.5c0,0,7.2-2.9,18-7.2c0,0,8,3.3,17.9,7.5
		v17.8"/>
	<circle class="st1" cx="46.5" cy="44.8" r="7.6"/>
	<g>
		<path class="st1" d="M35.4,39.2c0,2.6-2.1,4.8-4.8,4.8s-4.8-2.1-4.8-4.8c0-1.6,0.8-3,2-3.9V21.4c0-1.6,1.3-2.8,2.8-2.8
			c0.8,0,1.5,0.3,2,0.8s0.8,1.2,0.8,2v13.9C34.6,36.2,35.4,37.6,35.4,39.2z"/>
		<line class="st0" x1="29.7" y1="34.2" x2="30.9" y2="34.2"/>
		<line class="st0" x1="29.7" y1="31.9" x2="30.9" y2="31.9"/>
		<path class="st0" d="M28.1,39c0,0-0.3,2.3,2.4,2.7"/>
	</g>
	<g class="st2">
		<path d="M46,44.8c0.2,0.2,0.3,0.5,0.3,0.8c0,0.2-0.1,0.5-0.2,0.7c-0.1,0.2-0.3,0.4-0.6,0.5s-0.6,0.2-1,0.2c-0.3,0-0.6,0-0.9-0.1
			c-0.3-0.1-0.5-0.2-0.8-0.3l0.4-0.9c0.2,0.1,0.3,0.2,0.6,0.3c0.2,0.1,0.4,0.1,0.6,0.1c0.2,0,0.4,0,0.5-0.1s0.2-0.2,0.2-0.3
			c0-0.3-0.2-0.4-0.6-0.4H44v-0.8l0.8-0.8H43v-0.9h3v0.7l-0.9,0.9C45.5,44.4,45.8,44.5,46,44.8z"/>
		<path d="M47.6,46.7c-0.3-0.2-0.5-0.4-0.7-0.8s-0.2-0.7-0.2-1.2s0.1-0.8,0.2-1.2c0.2-0.3,0.4-0.6,0.7-0.8s0.6-0.3,1-0.3
			s0.7,0.1,1,0.3s0.5,0.4,0.7,0.8c0.2,0.3,0.2,0.7,0.2,1.2s-0.1,0.8-0.2,1.2s-0.4,0.6-0.7,0.8S49,47,48.6,47
			C48.2,46.9,47.8,46.9,47.6,46.7z M49,45.7c0.1-0.2,0.2-0.5,0.2-0.9s-0.1-0.8-0.2-1s-0.3-0.3-0.5-0.3s-0.4,0.1-0.5,0.3
			s-0.2,0.5-0.2,0.9s0.1,0.7,0.2,0.9c0.1,0.2,0.3,0.3,0.5,0.3C48.7,46,48.9,45.9,49,45.7z"/>
	</g>
	<rect x="40.6" y="41.9" class="st3" width="10.4" height="5.8"/>
	<g class="st2">
		<path d="M40.9,44.2h1.8V45h-1.8V44.2z"/>
	</g>
	<circle class="st4" cx="50.7" cy="41.9" r="0.5"/>
</g>
</svg>
