<?xml version="1.0" encoding="utf-8"?>
<!-- Generator: Adobe Illustrator 26.1.0, SVG Export Plug-In . SVG Version: 6.00 Build 0)  -->
<svg version="1.1" id="Layer_1" xmlns="http://www.w3.org/2000/svg" xmlns:xlink="http://www.w3.org/1999/xlink" x="0px" y="0px"
	 viewBox="0 0 64 64" style="enable-background:new 0 0 64 64;" xml:space="preserve">
<style type="text/css">
	.st0{fill:none;stroke:#000000;stroke-width:1.4173;stroke-miterlimit:10;}
	.st1{fill:none;stroke:#000000;stroke-width:1.4173;stroke-linecap:round;stroke-miterlimit:10;}
</style>
<g>
	<g>
		<path class="st0" d="M49.1,16.1V35c0,0-0.1,7.7-5.6,12.1c-5.5,4.3-12.4,6.8-12.4,6.8s-7-2.6-12.4-6.9c-5.5-4.3-5.5-12.4-5.5-12.4
			V15.8c0,0,7.2-2.9,18-7.2C31.2,8.6,39.2,11.9,49.1,16.1z"/>
	</g>
	<g>
		<path class="st0" d="M34.5,36.2h-6.8c-0.3,0-0.6-0.3-0.6-0.6v-6.8c0-0.3,0.3-0.6,0.6-0.6h6.8c0.3,0,0.6,0.3,0.6,0.6v6.8
			C35.1,35.9,34.8,36.2,34.5,36.2z"/>
		<path class="st0" d="M31.1,46.1L31.1,46.1c-1.4,0-2.6-1.2-2.5-2.6l0.7-9.9c0-0.2,0.2-0.3,0.3-0.3h2.8c0.2,0,0.3,0.1,0.3,0.3
			l0.7,9.9C33.6,44.8,32.5,46.1,31.1,46.1z"/>
		<path class="st0" d="M28.7,42.2c0,0,2.1-1.9,4.7,0"/>
		<line class="st1" x1="29.1" y1="25.4" x2="33" y2="25.4"/>
		<line class="st1" x1="29.1" y1="23" x2="33" y2="23"/>
		<line class="st1" x1="29.2" y1="20.5" x2="33" y2="20.5"/>
		<line class="st1" x1="29.1" y1="18" x2="33" y2="18"/>
	</g>
</g>
</svg>
