<?xml version="1.0" encoding="utf-8"?>
<!-- Generator: Adobe Illustrator 26.1.0, SVG Export Plug-In . SVG Version: 6.00 Build 0)  -->
<svg version="1.1" id="Layer_1" xmlns="http://www.w3.org/2000/svg" xmlns:xlink="http://www.w3.org/1999/xlink" x="0px" y="0px"
	 viewBox="0 0 64 64" style="enable-background:new 0 0 64 64;" xml:space="preserve">
<style type="text/css">
	.st0{fill:none;stroke:#000000;stroke-width:1.4173;stroke-linecap:round;stroke-miterlimit:10;}
	.st1{fill:none;stroke:#000000;stroke-width:1.4173;stroke-miterlimit:10;}
	.st2{fill:none;stroke:#000000;stroke-width:1.2597;stroke-miterlimit:10;}
	.st3{stroke:#000000;stroke-width:0.9921;stroke-miterlimit:10;}
</style>
<g>
	<path class="st0" d="M44.4,47.9c-6.3,4.4-13.6,7-13.6,7s-7-2.6-12.4-6.9c-5.5-4.3-5.5-12.4-5.5-12.4v-19c0,0,7.2-2.9,18-7.2
		c0,0,8,3.3,17.9,7.5v17.8"/>
	<path class="st1" d="M20.7,41c2-1.6,10.5-7.1,19.8,0.4c0,0-9.8,9-19.8,0.4C20.5,41.5,20.5,41.2,20.7,41z"/>
	<path class="st2" d="M41.1,30.7c0,2-1.6,3.6-3.6,3.6S34,32.6,34,30.7s3.6-6.9,3.6-6.9S41.1,28.7,41.1,30.7z"/>
	<line class="st0" x1="23.5" y1="24.7" x2="23" y2="26"/>
	<path class="st0" d="M22.4,28.1c0,0-0.3,2,2.7,2.8"/>
	<path class="st1" d="M30.3,28.1c0,2.9-2.3,5.2-5.2,5.2s-5.2-2.3-5.2-5.2s5.2-10,5.2-10S30.3,25.2,30.3,28.1z"/>
	<path class="st0" d="M36.1,30.2c0,0,0,1.7,1.6,1.9"/>
	<path class="st1" d="M25.3,38.6c0.5,0.3,1.9,3.1-0.2,6.2"/>
	<path class="st0" d="M40.1,41.8c0,0,3.1-3,7.8-3.1c0.2,0,0.4,0.2,0.4,0.4c0,0.8-0.2,2.8-1.6,4.6c-1.4,1.9-6.5-2.4-6.5-2.4"/>
	<path class="st0" d="M32.9,39.8c0,0,1.7,0.2,2.8,1"/>
	<line class="st0" x1="30.7" y1="39.5" x2="29.6" y2="39.5"/>
	<circle class="st3" cx="24" cy="41.4" r="0.3"/>
</g>
</svg>
