<?xml version="1.0" encoding="utf-8"?>
<!-- Generator: Adobe Illustrator 26.1.0, SVG Export Plug-In . SVG Version: 6.00 Build 0)  -->
<svg version="1.1" id="Layer_1" xmlns="http://www.w3.org/2000/svg" xmlns:xlink="http://www.w3.org/1999/xlink" x="0px" y="0px"
	 viewBox="0 0 64 64" style="enable-background:new 0 0 64 64;" xml:space="preserve">
<style type="text/css">
	.st0{fill:none;stroke:#000000;stroke-width:1.4173;stroke-miterlimit:10;}
	.st1{fill:none;stroke:#000000;stroke-width:1.4173;stroke-linecap:round;stroke-miterlimit:10;}
</style>
<g>
	<g>
		<path class="st0" d="M49.1,16.1V35c0,0-0.1,7.7-5.6,12.1c-5.5,4.3-12.4,6.8-12.4,6.8s-7-2.6-12.4-6.9c-5.5-4.3-5.5-12.4-5.5-12.4
			V15.8c0,0,7.2-2.9,18-7.2C31.2,8.6,39.2,11.9,49.1,16.1z"/>
	</g>
	<g>
		<line class="st1" x1="36.5" y1="21.3" x2="36.5" y2="30.2"/>
		<line class="st1" x1="34.3" y1="19.1" x2="36.5" y2="21.3"/>
		<line class="st1" x1="36.5" y1="21.3" x2="38.6" y2="19.1"/>
		<line class="st1" x1="38.6" y1="32.4" x2="36.5" y2="30.2"/>
		<line class="st1" x1="36.5" y1="30.2" x2="34.3" y2="32.4"/>
		<line class="st1" x1="32.6" y1="23.1" x2="40.3" y2="27.7"/>
		<line class="st1" x1="29.7" y1="23.9" x2="32.6" y2="23.1"/>
		<line class="st1" x1="32.6" y1="23.1" x2="31.9" y2="20.2"/>
		<line class="st1" x1="43.3" y1="27" x2="40.3" y2="27.8"/>
		<line class="st1" x1="40.3" y1="27.8" x2="41.1" y2="30.7"/>
		<line class="st1" x1="32.6" y1="28" x2="40.3" y2="23.5"/>
		<line class="st1" x1="29.7" y1="27.3" x2="32.6" y2="28"/>
		<line class="st1" x1="32.6" y1="28" x2="31.9" y2="31"/>
		<line class="st1" x1="43.3" y1="24.2" x2="40.3" y2="23.4"/>
		<line class="st1" x1="40.3" y1="23.4" x2="41.1" y2="20.5"/>
	</g>
	<g>
		<line class="st1" x1="25.7" y1="34.1" x2="25.7" y2="40.8"/>
		<line class="st1" x1="24.1" y1="32.5" x2="25.7" y2="34.1"/>
		<line class="st1" x1="25.7" y1="34.1" x2="27.3" y2="32.5"/>
		<line class="st1" x1="27.3" y1="42.5" x2="25.7" y2="40.9"/>
		<line class="st1" x1="25.7" y1="40.9" x2="24.1" y2="42.5"/>
		<line class="st1" x1="22.8" y1="35.5" x2="28.5" y2="39"/>
		<line class="st1" x1="20.6" y1="36.1" x2="22.8" y2="35.5"/>
		<line class="st1" x1="22.8" y1="35.5" x2="22.2" y2="33.3"/>
		<line class="st1" x1="30.8" y1="38.4" x2="28.6" y2="39"/>
		<line class="st1" x1="28.6" y1="39" x2="29.1" y2="41.2"/>
		<line class="st1" x1="22.8" y1="39.2" x2="28.5" y2="35.7"/>
		<line class="st1" x1="20.6" y1="38.6" x2="22.8" y2="39.2"/>
		<line class="st1" x1="22.8" y1="39.2" x2="22.2" y2="41.4"/>
		<line class="st1" x1="30.8" y1="36.3" x2="28.6" y2="35.7"/>
		<line class="st1" x1="28.6" y1="35.7" x2="29.1" y2="33.5"/>
	</g>
</g>
</svg>
