<?xml version="1.0" encoding="utf-8"?>
<!-- Generator: Adobe Illustrator 26.0.3, SVG Export Plug-In . SVG Version: 6.00 Build 0)  -->
<svg version="1.1" id="Layer_1" xmlns="http://www.w3.org/2000/svg" xmlns:xlink="http://www.w3.org/1999/xlink" x="0px" y="0px"
	 viewBox="0 0 64 64" style="enable-background:new 0 0 64 64;" xml:space="preserve">
<style type="text/css">
	.st0{fill:none;stroke:#000000;stroke-width:1.4173;stroke-miterlimit:10;}
	.st1{fill:none;stroke:#000000;stroke-width:1.6214;stroke-miterlimit:10;}
	.st2{fill:none;stroke:#000000;stroke-width:1.4173;stroke-linecap:round;stroke-miterlimit:10;}
	.st3{stroke:#000000;stroke-width:1.4173;stroke-linecap:round;stroke-miterlimit:10;}
</style>
<g>
	<path class="st0" d="M31.3,54.8c0,0-7-2.6-12.4-6.9c-5.5-4.3-5.5-12.4-5.5-12.4V16.6c0,0,7.2-2.9,18-7.2c0,0,8,3.3,17.9,7.5v19.1"
		/>
	<path class="st0" d="M43.7,47.9c5.5-4.3,5.5-12.4,5.5-12.4"/>
	<path class="st0" d="M43.7,47.9c-5.5,4.3-12.4,6.9-12.4,6.9l0,0"/>
</g>
<path class="st1" d="M20,28.9l0,0.6l0,1l0,2.7c-0.1,2.4-0.1,4.9,0,6.2c0,0.4,0.4,0.8,0.8,0.8c3.7,0,18.3,0.1,21.7,0.1
	c0.4,0,0.7-0.3,0.7-0.7v-1.8c-0.4-3.3-4.9-3.3-4.9-3.3c-0.1,0-0.6,0-0.6,0c-3.5-0.1-6.8-2.3-8.1-5.6c-0.4-1-0.6-1.7-0.6-1.7
	c-0.4-1.8-0.5-4.5-0.6-4.5l-1.9,0.7c-0.7,0-0.6,1.3-0.6,1.3l0.1,2.3c-0.1,1.7-1.2,1.8-1.2,1.8H20c-1.9-2.5,0-3.6,0-3.6l8.6-0.1"/>
<line class="st2" x1="26.9" y1="30.5" x2="29.6" y2="29.5"/>
<line class="st2" x1="28.3" y1="32.5" x2="30.9" y2="31.4"/>
<line class="st2" x1="30" y1="34.1" x2="32.6" y2="33"/>
<g>
	<path d="M34.3,30.5c-0.3-0.2-0.4-0.4-0.4-0.6c0-0.2,0-0.3,0.1-0.4s0.2-0.1,0.3-0.1c0.1,0,0.3,0.1,0.6,0.2c0.3,0.1,0.5,0.2,0.7,0.3
		c0.2,0.1,0.5,0.1,0.8,0.1c0.3,0,0.6-0.1,0.8-0.2c0.2-0.1,0.3-0.3,0.3-0.5c0-0.1,0-0.2-0.1-0.3c-0.1-0.1-0.2-0.2-0.4-0.2
		c-0.2-0.1-0.5-0.1-0.9-0.2c-0.7-0.1-1.2-0.3-1.5-0.6c-0.3-0.3-0.5-0.6-0.5-1.1c0-0.4,0.1-0.7,0.3-1c0.2-0.3,0.5-0.5,0.9-0.7
		c0.4-0.2,0.8-0.2,1.2-0.2c0.3,0,0.7,0,1,0.1c0.3,0.1,0.6,0.2,0.8,0.4c0.3,0.2,0.4,0.4,0.4,0.6c0,0.2,0,0.3-0.1,0.4
		s-0.2,0.2-0.3,0.2c-0.1,0-0.2,0-0.3-0.1s-0.2-0.1-0.3-0.2c-0.2-0.1-0.4-0.2-0.6-0.3S36.7,26,36.5,26c-0.3,0-0.5,0.1-0.7,0.2
		c-0.2,0.1-0.3,0.3-0.3,0.5c0,0.2,0.1,0.4,0.3,0.5s0.5,0.2,1,0.3c0.5,0.1,1,0.2,1.3,0.4c0.3,0.1,0.5,0.3,0.7,0.5
		c0.1,0.2,0.2,0.5,0.2,0.8c0,0.5-0.2,1-0.7,1.3S37.2,31,36.4,31C35.6,31,34.9,30.8,34.3,30.5z"/>
	<path d="M43.7,30.4c0,0.2-0.1,0.3-0.2,0.4c-0.2,0.1-0.4,0.1-0.7,0.1l-0.3,0c-1.3-0.1-2-0.8-2-2.2v-2.6h-0.6c-0.2,0-0.4,0-0.5-0.1
		c-0.1-0.1-0.2-0.2-0.2-0.4c0-0.2,0.1-0.3,0.2-0.4c0.1-0.1,0.3-0.1,0.5-0.1h0.6v-1.1c0-0.2,0.1-0.4,0.2-0.5c0.1-0.1,0.3-0.2,0.6-0.2
		c0.2,0,0.4,0.1,0.5,0.2c0.1,0.1,0.2,0.3,0.2,0.5V25h1c0.2,0,0.4,0,0.5,0.1c0.1,0.1,0.2,0.2,0.2,0.4c0,0.2-0.1,0.3-0.2,0.4
		c-0.1,0.1-0.3,0.1-0.5,0.1h-1v2.7c0,0.6,0.3,0.9,0.8,0.9l0.3,0C43.5,29.9,43.7,30.1,43.7,30.4z"/>
</g>
<line class="st3" x1="22.7" y1="37.9" x2="25.2" y2="37.9"/>
<line class="st3" x1="27.6" y1="37.9" x2="27.9" y2="37.9"/>
</svg>
