<svg xmlns="http://www.w3.org/2000/svg" id="Layer_1" viewBox="0 0 601.7 172.35"><g><path d="M150.81,86.18c0,35.69-28.94,64.63-64.63,64.63S21.54,121.87,21.54,86.18H0c0,47.59,38.59,86.18,86.18,86.18s86.18-38.59,86.18-86.18h-21.54Z" style="fill:#bf0045;"></path><path d="M34.47,47.4c14.4,10.82,32.3,17.24,51.71,17.24s37.31-6.42,51.71-17.24c3.91,5.19,7.05,11,9.24,17.24h22.51c-3.09-11.98-8.68-22.94-16.19-32.32,7.52-9.37,13.11-20.33,16.19-32.32h-22.51c-2.19,6.24-5.33,12.04-9.24,17.24,.03,.02,.05,.04,.08,.06C123.54,6.44,105.61,0,86.18,0,58.97,0,34.7,12.62,18.91,32.32c4.54,5.65,9.77,10.72,15.56,15.08Zm115.49-19.14s-.09-.1-.13-.15c.04,.05,.09,.1,.13,.15Zm-3.75-3.88c-.05-.05-.1-.1-.16-.15,.05,.05,.1,.1,.16,.15Zm-4.09-3.74h0Zm-55.94,.91c13.21,0,25.49,3.96,35.73,10.77-10.23,6.81-22.51,10.77-35.73,10.77s-25.49-3.96-35.73-10.77c10.23-6.81,22.51-10.77,35.73-10.77Z" style="fill:#bf0045;"></path><circle cx="86.18" cy="107.72" r="21.54" style="fill:#bf0045;"></circle></g><g><path d="M232.47,47.61h17.52V124.44h-17.52V47.61Zm7.74-20.09h16.87l-10.85,14.94h-11.71l5.69-14.94Z"></path><path d="M268.58,100.32h16.66c.75,6.88,3.65,12.57,15.04,12.57,7.63,0,12.68-4.19,12.68-10.21s-3.22-8.27-14.51-9.99c-19.66-2.58-27.72-8.49-27.72-23.32,0-13.11,10.96-22.89,27.94-22.89s27.4,7.74,28.8,23h-16.01c-1.07-6.98-5.16-10.21-12.79-10.21s-11.5,3.55-11.5,8.7c0,5.48,2.47,8.06,14.29,9.78,18.59,2.36,28.15,7.41,28.15,23.32,0,13.65-11.18,24.5-29.34,24.5-21.06,0-30.73-9.89-31.7-25.25Z"></path><path d="M348.63,47.61h49.32v13.65h-31.92v17.83h25.25v12.74h-25.25v32.61h-17.41V47.61Z"></path><path d="M416.01,47.61h50.08v13.54h-32.77v17.95h26.22v12.68h-26.22v19.13h34.49v13.54h-51.79V47.61Z"></path><path d="M486.39,47.61h17.41v63.18h31.27v13.65h-48.68V47.61Z"></path><path d="M553.02,47.61h17.41v63.18h31.27v13.65h-48.68V47.61Z"></path></g></svg>