<?xml version="1.0" encoding="utf-8"?>
<svg viewBox="38.014 33.496 371.207 106.829" xmlns="http://www.w3.org/2000/svg">
  <g id="Layer_2" data-name="Layer 2" transform="matrix(0.432261, 0, 0, 0.432261, 33.11911, 29.059933)" style="">
    <g id="Layer_1-2" data-name="Layer 1">
      <path d="M328.94,31.8h37.33c26.72.45,50,8.51,50,41.36,0,29.26-22,44.79-49.87,45.68H328.94Zm31.21,22.84V96c15.53-.15,23.14-7,23.14-20.6,0-15.53-7.47-20.76-22.69-20.76Z" style="fill:#0a3264"/>
      <path d="M422.57,86.45c0-24.64,14.18-37.93,34.64-37.93,24,0,36.13,11.95,36.13,35.54v7.76h-42.1c2.53,6,8.65,7.76,17,7.76A135.83,135.83,0,0,0,491,97.94V116c-7.47,3.29-20.16,4-30.46,4C436.9,120,422.57,111.23,422.57,86.45ZM450,80.32h15.08c-.45-7.61-2.54-11-7.62-11C452.58,69.27,450.49,73.6,450,80.32Z" style="fill:#0a3264"/>
      <path d="M499.47,86.45c0-24.64,14.18-37.93,34.64-37.93,24,0,36.13,11.95,36.13,35.54v7.76h-42.1c2.53,6,8.66,7.76,17,7.76a135.75,135.75,0,0,0,22.69-1.64V116c-7.46,3.29-20.15,4-30.46,4C513.8,120,499.47,111.23,499.47,86.45Zm27.47-6.13H542c-.45-7.61-2.54-11-7.61-11S527.39,73.6,526.94,80.32Z" style="fill:#0a3264"/>
      <path d="M580.7,67.78l-2.84-17.47h28.37l1.2,5.68c6.12-4.33,11.79-7.47,20.15-7.47,16,0,27.77,10.15,27.77,32.7C655.35,106.6,633,120,614,120h-4.33v29.71h-29Zm29,1.34V99.58c11.64-1,16.57-7,16.57-16.42,0-9.7-4.78-14.18-14.33-14.18A12,12,0,0,0,609.67,69.12Z" style="fill:#0a3264"/>
      <path d="M353.88,160.61h33.44l30,87h-32.7l-3.88-13.73H352.09l-4.63,13.73H318.34Zm6,50.61h14.78l-1-3.88-5.08-18.66h-.75l-6.57,19Z" style="fill:#0a3264"/>
      <path d="M413.91,179.12h12.84V160.61h29v18.51h22.4v21.8h-22.4v14.93c.15,9.11,5.08,11.05,12.25,11.05a58.49,58.49,0,0,0,11.49-1.05v20.46c-5.82,1.79-14.63,2.53-24.63,2.53-19.11,0-28.22-13.43-28.07-27.77V200.92H413.91Z" style="fill:#0a3264"/>
      <path d="M489.16,150.16h29v97.49h-29Z" style="fill:#0a3264"/>
      <path d="M568.9,242.43a41.22,41.22,0,0,1-21.5,6.41c-10,0-20.46-6.27-20.46-17.91,0-13.89,14.63-20.76,34-20.76h6v-.74c0-5.82-4.33-7.47-11.8-7.47a112.07,112.07,0,0,0-23.29,3V182c7.17-2.09,19-4.63,28.52-4.63,22.54,0,35.53,5.37,35.53,26.72v26l2.69,17.62H569.94ZM567,232.12V220.18h-2.24c-4.93,0-9.26,1-9.26,5.52,0,4.78,4.63,6.42,9.41,6.42Z" style="fill:#0a3264"/>
      <path d="M609.07,196.59l-2.84-17.47H634.6l1.35,6.12a41.68,41.68,0,0,1,23.73-7.46c11.5,0,22.55,7,22.55,25.53v44.34h-29V219.58c0-12.84-3-17.32-11.64-17.32a28.65,28.65,0,0,0-3.58.3v45.09h-29Z" style="fill:#0a3264"/>
      <path d="M689.4,179.12h12.85V160.61h29v18.51h22.4v21.8h-22.4v14.93c.15,9.11,5.08,11.05,12.24,11.05a58.59,58.59,0,0,0,11.5-1.05v20.46c-5.82,1.79-14.63,2.53-24.63,2.53-19.11,0-28.22-13.43-28.07-27.77V200.92H689.4Z" style="fill:#0a3264"/>
      <path d="M761.38,179.12h36.87v68.53h-29V200.92h-7.91Zm7.16-22.54c0-9.71,7.47-12.85,16.28-12.85,9.55,0,16.12,3.44,16.12,12.85,0,9.85-6.72,13-16.12,13C776,169.57,768.54,166.28,768.54,156.58Z" style="fill:#0a3264"/>
      <path d="M807.81,215.4c0-20.9,13.59-38.07,38.52-38.07,10.9,0,16.43.9,21.35,2.24v22.69a86.72,86.72,0,0,0-13.29-1.19c-10,0-17.46,2.84-17.46,11.05,0,10,8.06,13.58,18.51,13.58a56.56,56.56,0,0,0,11.8-1.34v21.2c-4,1.94-13.14,3.28-24.19,3.28C819.76,248.84,807.81,236.6,807.81,215.4Z" style="fill:#0a3264"/>
      <path d="M16,164c61.59,15.41,118.54-58.42,219.84,36.45C162.07,161.38,61.94,211.49,16,164Z" style="fill:#0a3264"/>
      <path d="M22.84,183.53c26.44,19.23,87.94,15.35,117.29,9.26C106.14,202.92,44,242.43,22.84,183.53Z" style="fill:#0a3264"/>
      <path d="M54.9,226.4c5,4.47,7.94,8.49,21,14.42C109.1,208,191,260.51,229,209.91,153.13,176.51,96.27,225.25,54.9,226.4Zm139-11.52c-3.53-.36-6.23-2.38-6-4.53s3.26-3.59,6.79-3.24,6.24,2.38,6,4.53S197.45,215.23,193.91,214.88Z" style="fill:#0a3264"/>
      <path d="M183.59,244.94c-13.84,1.85-77.34-17.67-100.35-.48C104.71,255.56,156,262,183.59,244.94Z" style="fill:#0a3264"/>
      <path d="M251.66,164.77c-14.88,8.95-48.14-4.92-56.26-5.89C218.19,168.85,244.35,208.74,251.66,164.77Z" style="fill:#0a3264"/>
      <path d="M36,62.69c12.48-4,67.58-39.15,97.73-39.15S213.51,55.28,231.58,62c2.57,1,1.59-1.56-.34-4.4h0C198.77,18.37,156.62,11.94,134,11.94c-29.94,0-69,12.35-95.22,43.1C36.82,57.28,32.64,63.77,36,62.69ZM16.86,122.51c36-11.23,85.08-41.3,116.88-41.3,31.29,0,64.07,22.1,118,40.8,2,.7,3.79,0,3.23-4-.42-3-1.53-8.73-1.85-10.76-.6-3.85-3.36-5.36-6-6.15-43.38-13.1-85.44-39-113.28-39s-66.7,25.5-113.46,39.82c-2.66.81-4.85,2.51-5.36,4.72a101.53,101.53,0,0,0-2.09,12.11C12.43,122.75,14.76,123.17,16.86,122.51Zm238.85,10.06c-.19-2.49-2.19-3.81-5.68-4.76-50-13.66-86.84-36.2-116-36.2-29.67,0-64.6,22.17-117,37.14-2.25.64-4.81,1.26-4.81,2.94,0,3.83.56,12.64.88,14.93.25,1.83,2.59,3.07,5.36,2.16,49.06-16.08,84.23-38.34,115.32-38.34,31.27,0,73.47,23.81,115.94,37.7,3,1,5.05-.6,5.2-2C255.14,143.69,255.79,133.73,255.71,132.57ZM19.85,154.82c35.06,6,62.75-13.6,114.78-13.39,51.67.21,98.45,24.9,118.76,14C210.6,146,164.7,120.86,134.64,120.86,104.1,120.86,58.35,146.38,19.85,154.82Zm4.36-61C56,82.08,103,51.68,134,51.68c30.25,0,78,29.64,111,41.95,3,1.08,4.1-1.78,3.15-4.44s-3.84-8.9-4.89-10.84a14,14,0,0,0-7.91-7.08c-37.66-14.54-76.64-37.34-101.57-37.34C109.38,33.93,73,56.11,31.07,72.44A12,12,0,0,0,25,77.53a94.77,94.77,0,0,0-5.74,12.69C18.34,93,21,95,24.21,93.78Z" style="fill:#fa5a00"/>
    </g>
  </g>
</svg>