<?xml version="1.0" encoding="UTF-8"?> <svg xmlns="http://www.w3.org/2000/svg" width="172" height="35" fill="none"><g clip-path="url(#logotipo-stoltseafarm-svg__clip0)"><path d="M8.341 10.947l.107 4.405h-.4c-.188-1.104-.651-1.992-1.388-2.665-.736-.672-1.534-1.008-2.392-1.008-.663 0-1.187.177-1.573.532-.387.353-.58.76-.58 1.222 0 .292.068.552.204.78.189.305.49.607.907.906.304.214 1.01.595 2.114 1.14 1.546.76 2.588 1.478 3.128 2.154.533.675.8 1.45.8 2.319 0 1.104-.43 2.054-1.292 2.849-.86.796-1.953 1.194-3.279 1.194-.415 0-.808-.042-1.179-.126-.37-.084-.835-.244-1.393-.477-.312-.13-.568-.197-.77-.197-.17 0-.348.066-.536.197-.189.129-.34.327-.458.594H0v-4.99h.361c.286 1.404.837 2.474 1.651 3.21.816.737 1.695 1.107 2.636 1.107.728 0 1.308-.198 1.738-.595.433-.396.649-.857.649-1.383 0-.311-.084-.614-.249-.906-.165-.293-.417-.57-.755-.833-.338-.265-.935-.606-1.793-1.028-1.201-.592-2.065-1.095-2.592-1.511-.525-.415-.93-.88-1.213-1.393a3.448 3.448 0 01-.424-1.695c0-1.053.387-1.95 1.16-2.69.773-.74 1.747-1.11 2.923-1.11.429 0 .844.052 1.247.156.305.077.678.223 1.116.433.439.212.745.317.92.317a.521.521 0 00.4-.156c.097-.104.189-.354.273-.75h.293v-.002zm6.011 1.073v3.332h2.164v.965h-2.163v5.622c0 .526.024.866.073 1.02a.744.744 0 00.258.37c.123.093.237.14.341.14.421 0 .821-.32 1.199-.963l.292.214c-.526 1.247-1.38 1.87-2.562 1.87-.578 0-1.067-.16-1.467-.482-.399-.322-.654-.68-.764-1.077-.066-.22-.098-.819-.098-1.793v-4.92h-1.189v-.34a12.553 12.553 0 002.09-1.823 11.09 11.09 0 001.506-2.133h.32v-.002zm7.328 3.06c.794 0 1.53.204 2.212.614.682.41 1.2.99 1.555 1.744.354.753.53 1.578.53 2.474 0 1.294-.328 2.375-.985 3.245-.792 1.052-1.886 1.578-3.282 1.578-1.371 0-2.426-.48-3.168-1.442-.74-.96-1.11-2.075-1.11-3.342 0-1.306.378-2.444 1.135-3.415.757-.971 1.794-1.456 3.114-1.456zm.04.691c-.332 0-.616.126-.853.376s-.393.744-.468 1.48c-.075.738-.113 1.763-.113 3.075 0 .695.047 1.344.137 1.95.072.46.225.811.458 1.052.234.24.5.36.8.36.292 0 .535-.082.73-.243.253-.221.423-.53.507-.926.13-.617.196-1.864.196-3.741 0-1.106-.062-1.864-.186-2.276-.123-.412-.305-.713-.546-.901-.17-.138-.39-.206-.663-.206zm9.207-4.521v11.323c0 .643.075 1.054.225 1.233.15.178.442.28.877.306v.351h-4.921v-.35c.402-.014.7-.13.896-.352.13-.148.195-.545.195-1.188V13.14c0-.636-.074-1.044-.223-1.223-.15-.178-.439-.28-.868-.306v-.36h3.82zm5.593.77v3.332h2.164v.965H36.52v5.622c0 .526.024.866.073 1.02.05.152.135.275.259.37.124.094.236.14.34.14.423 0 .823-.32 1.2-.963l.292.214c-.527 1.247-1.38 1.87-2.563 1.87-.577 0-1.067-.16-1.466-.482-.4-.322-.654-.68-.765-1.077-.065-.22-.098-.819-.098-1.793v-4.92h-1.188v-.34a12.573 12.573 0 002.09-1.823 11.085 11.085 0 001.505-2.133h.32v-.002zm16.72-1.073l.107 4.405h-.4c-.188-1.104-.65-1.992-1.387-2.665-.737-.672-1.535-1.008-2.392-1.008-.663 0-1.188.177-1.574.532-.386.353-.58.76-.58 1.222 0 .292.07.552.204.78.19.305.49.607.908.906.304.214 1.01.595 2.114 1.14 1.546.76 2.589 1.478 3.127 2.154.534.675.8 1.45.8 2.319 0 1.104-.43 2.054-1.29 2.849-.862.796-1.955 1.194-3.28 1.194-.415 0-.808-.042-1.179-.126-.37-.085-.834-.244-1.393-.477-.311-.13-.568-.197-.77-.197-.169 0-.347.066-.536.197-.188.129-.341.327-.458.594h-.36v-4.99h.36c.285 1.404.836 2.474 1.652 3.21.814.737 1.693 1.107 2.634 1.107.729 0 1.308-.198 1.74-.595.432-.396.648-.857.648-1.383 0-.311-.083-.614-.249-.906-.165-.293-.416-.57-.755-.833-.338-.265-.936-.606-1.793-1.028-1.202-.592-2.065-1.095-2.592-1.511a4.634 4.634 0 01-1.213-1.393 3.447 3.447 0 01-.424-1.695c0-1.053.386-1.95 1.16-2.69.773-.74 1.748-1.11 2.923-1.11.429 0 .843.052 1.248.156a6.25 6.25 0 011.115.433c.438.212.745.317.92.317a.521.521 0 00.4-.156c.097-.104.188-.354.272-.75h.294v-.002zm10.115 8.634h-5c.059 1.208.38 2.163.964 2.865.45.539.988.808 1.619.808.39 0 .744-.11 1.062-.327.318-.217.659-.609 1.022-1.174l.332.215c-.494 1.007-1.04 1.72-1.637 2.138-.597.42-1.29.628-2.075.628-1.35 0-2.375-.52-3.07-1.56-.558-.838-.838-1.877-.838-3.117 0-1.52.412-2.73 1.233-3.63.822-.9 1.785-1.349 2.889-1.349.922 0 1.723.378 2.403 1.135.678.758 1.044 1.88 1.096 3.368zm-2.397-.653c0-1.046-.056-1.764-.17-2.153-.114-.39-.291-.685-.532-.887-.136-.117-.318-.175-.545-.175-.338 0-.614.166-.828.497-.383.578-.576 1.37-.576 2.377v.341h2.65zm8.565 4.189c-1.112.982-2.108 1.472-2.992 1.472-.52 0-.95-.17-1.296-.512-.344-.341-.517-.768-.517-1.281 0-.695.3-1.32.897-1.876.597-.556 1.9-1.294 3.907-2.216v-.916c0-.688-.037-1.122-.112-1.301-.075-.18-.216-.335-.423-.467a1.277 1.277 0 00-.702-.2c-.422 0-.77.095-1.043.283-.169.117-.253.254-.253.41 0 .136.09.305.272.506.246.28.37.55.37.808 0 .32-.118.59-.355.815-.237.223-.548.335-.93.335-.41 0-.752-.123-1.028-.37-.275-.246-.414-.536-.414-.867 0-.467.186-.914.556-1.34.371-.426.886-.752 1.55-.98a6.328 6.328 0 012.064-.34c.865 0 1.55.183 2.052.55.504.367.83.765.98 1.194.09.272.136.9.136 1.88v3.537c0 .415.017.678.05.784a.465.465 0 00.145.239c.065.053.14.078.224.078.17 0 .342-.12.517-.36l.294.233c-.326.481-.663.83-1.01 1.048a2.181 2.181 0 01-1.184.326c-.519 0-.925-.121-1.218-.366-.293-.243-.472-.611-.537-1.106zm0-.71v-3.05c-.786.461-1.37.954-1.754 1.481-.254.35-.38.705-.38 1.061 0 .3.107.562.321.79.163.175.39.263.683.263.324 0 .701-.181 1.13-.546zM84.274 12.01v5.428h.38c.586 0 1.061-.088 1.433-.263.37-.176.683-.472.94-.887.256-.415.424-.978.502-1.686h.34v6.635h-.34c-.124-1.254-.46-2.08-1.009-2.48a3.09 3.09 0 00-1.865-.599h-.381v4.044c0 .675.039 1.098.113 1.267.074.169.22.316.44.444.217.126.51.19.88.19h.438v.361h-6.907v-.36h.438c.383 0 .693-.07.926-.205.168-.09.298-.247.39-.468.072-.156.107-.565.107-1.228V13.51c0-.676-.035-1.097-.108-1.267-.071-.168-.216-.317-.434-.443-.218-.127-.51-.19-.882-.19h-.437v-.36h11.147v3.79h-.4c-.09-.89-.324-1.549-.697-1.978-.374-.429-.914-.73-1.623-.906-.39-.098-1.11-.147-2.163-.147h-1.228v.001zm12.405 11.107c-1.112.982-2.11 1.472-2.992 1.472-.52 0-.951-.17-1.296-.512-.345-.341-.517-.768-.517-1.281 0-.695.3-1.32.896-1.876.598-.556 1.9-1.294 3.908-2.216v-.916c0-.688-.037-1.122-.113-1.301-.074-.18-.216-.335-.423-.467a1.274 1.274 0 00-.7-.2c-.423 0-.771.095-1.044.283-.169.117-.254.254-.254.41 0 .136.09.305.273.506.247.28.37.55.37.808 0 .32-.118.59-.356.815-.236.223-.546.335-.93.335-.41 0-.752-.123-1.028-.37-.275-.246-.413-.536-.413-.867 0-.467.185-.914.555-1.34.37-.426.886-.752 1.549-.98a6.328 6.328 0 012.066-.34c.864 0 1.548.183 2.05.55.505.367.832.765.981 1.194.09.272.136.9.136 1.88v3.537c0 .415.016.678.05.784a.466.466 0 00.145.239.34.34 0 00.224.078c.17 0 .341-.12.517-.36l.293.233c-.326.481-.662.83-1.009 1.048a2.184 2.184 0 01-1.184.326c-.52 0-.925-.121-1.218-.366-.293-.243-.471-.611-.536-1.106zm0-.71v-3.05c-.786.461-1.371.954-1.755 1.481-.254.35-.38.705-.38 1.061 0 .3.108.562.322.79.163.175.39.263.683.263.323 0 .7-.181 1.13-.546zm8.729-7.055v2.066c.604-.942 1.134-1.567 1.589-1.876.455-.308.893-.462 1.315-.462.364 0 .654.111.873.336.217.224.327.54.327.95 0 .435-.106.773-.318 1.013a.982.982 0 01-.765.36 1.32 1.32 0 01-.896-.33 5.712 5.712 0 00-.448-.371.434.434 0 00-.225-.058.82.82 0 00-.536.214c-.266.22-.468.535-.603.945a6.619 6.619 0 00-.313 2.084v2.096l.011.546c0 .371.022.608.068.712a.773.773 0 00.345.384c.153.08.412.132.774.151v.351h-4.92v-.35c.396-.032.663-.142.804-.328.139-.184.209-.673.209-1.466v-5.037c0-.52-.025-.85-.078-.994a.78.78 0 00-.282-.399c-.123-.084-.341-.143-.653-.175v-.362h3.722zm8.858 0v1.2c.5-.547.963-.929 1.388-1.146a3.022 3.022 0 011.398-.326c.585 0 1.076.136 1.472.41.397.272.701.688.915 1.246.52-.585 1.019-1.006 1.496-1.267.477-.26.976-.39 1.495-.39.631 0 1.131.145 1.505.434.375.29.634.656.78 1.102.147.444.219 1.154.219 2.128v3.733c0 .7.064 1.137.191 1.305.126.17.391.28.794.332v.351h-4.706v-.35c.369-.033.642-.176.818-.43.117-.175.175-.578.175-1.207v-3.918c0-.812-.033-1.328-.097-1.55-.065-.22-.167-.385-.306-.491a.788.788 0 00-.492-.161c-.28 0-.563.102-.847.306-.286.205-.576.512-.868.921v4.892c0 .656.054 1.068.165 1.236.15.24.435.375.857.4v.351h-4.715v-.35c.253-.014.452-.077.599-.19a.824.824 0 00.293-.41c.048-.16.072-.506.072-1.038v-3.917c0-.825-.033-1.342-.096-1.55a.956.956 0 00-.327-.487.795.795 0 00-.492-.175c-.261 0-.497.068-.711.204-.305.202-.63.546-.975 1.033v4.892c0 .642.063 1.066.191 1.272.125.204.39.327.794.365v.351h-4.697v-.35c.383-.04.656-.162.819-.371.11-.143.165-.565.165-1.267V17.33c0-.688-.064-1.117-.191-1.286-.126-.169-.391-.28-.794-.331v-.36h3.713zM172 .784h-39.465v34.203H172V.784z" fill="#fff"></path><path d="M161.311 4.74h6.723l.019 26.301-11.394-.02c3.107-.752 6.328-3.887 6.337-8.29.016-9.382-14.325-6.215-14.359-12.085-.005-1.04 1.055-2.551 3.968-2.544 2.626.018 4.433 1.805 4.415 4.49.003.006 4.29 0 4.29 0v-7.85h.001z" fill="#D70926"></path><path d="M143.405 31.03h-6.923l.029-26.3 13.051.019c-3.299.625-6.773 2.973-6.779 8.173-.012 8.603 14.054 6.37 14.057 11.302.001 1.257-1.009 2.97-4.188 2.935-3.162.028-4.994-2.529-5.017-5.115-.003-.006-4.23 0-4.23 0v8.985z" fill="#D70926"></path></g><defs><clipPath id="logotipo-stoltseafarm-svg__clip0"><path fill="#fff" transform="translate(0 .784)" d="M0 0h172v34.203H0z"></path></clipPath></defs></svg> 