<svg width="175" height="40" viewBox="0 0 175 40" fill="none" xmlns="http://www.w3.org/2000/svg">
<path d="M35.4438 11.2723L35.6421 11.2366L35.8524 11.197L36.0667 11.1732L36.2809 11.1613L36.7609 9.19937H25.0098L24.5258 11.1613L25.0257 11.197L25.4938 11.2366L25.9183 11.3L26.315 11.3635L26.684 11.4388L27.0093 11.526L27.3108 11.6251L27.5647 11.7281L27.8067 11.8391L28.0051 11.9659L28.1757 12.0928L28.3027 12.2315L28.3582 12.3068L28.4177 12.3821L28.4455 12.4574L28.4891 12.5327L28.5169 12.608L28.5288 12.6833L28.5447 12.7586V12.933L28.5169 13.048L28.4891 13.1748L28.4296 13.3254L28.3741 13.4879L28.2868 13.6623L28.1876 13.8645L28.0765 14.0785L27.7909 14.5819L27.4219 15.1605L26.9696 15.8423L26.4142 16.6072L14.7623 32.6121H14.6631L13.1595 18.371L13.0881 17.7289L13.0326 17.0749L12.9889 16.4328L12.9453 15.8026L12.9175 15.1883L12.8897 14.6056L12.8739 14.0428V13.262L12.9175 13.0083L12.9294 12.8974L12.973 12.7705L13.0008 12.6714L13.0603 12.5565L13.1159 12.4574L13.1714 12.3544L13.2428 12.2672L13.3261 12.1681L13.4134 12.0809L13.5126 12.0016L13.6276 11.9303L13.7387 11.851L13.8657 11.7757L14.0085 11.7162L14.1672 11.637L14.3378 11.5894L14.5044 11.526L14.6909 11.4744L14.9051 11.4229L15.1154 11.3872L15.5835 11.3119L16.1231 11.2485L16.7063 11.197L17.3728 11.1613L17.8568 9.19937H0.48401L0 11.1613L0.440369 11.1732L0.86487 11.1851L1.2497 11.2129L1.59088 11.2366L1.9162 11.2723L2.22962 11.3238L2.49939 11.3754L2.7533 11.4388L2.97944 11.5141L3.19367 11.6013L3.39203 11.6885L3.5785 11.8034L3.73322 11.9303L3.88795 12.0809L4.03077 12.2315L4.15772 12.4059L4.245 12.5684L4.32832 12.7824L4.4275 13.0718L4.61396 13.8011L4.69727 14.241L4.79646 14.7206L4.89564 15.224L5.06623 16.3457L5.23682 17.5506L5.39552 18.7951L5.52247 20.0436L7.45057 39.469H12.6755L12.8739 39.1044L13.1159 38.6882L13.3856 38.2363L13.6991 37.7568L14.3656 36.7104L15.1313 35.5808L15.9406 34.4115L16.7777 33.2383L17.6029 32.0968L18.3805 31.0266L29.5087 16.0167L29.9491 15.438L30.3736 14.9108L30.8021 14.4075L31.2266 13.9398L31.6511 13.5117L32.0795 13.1233L32.2898 12.9489L32.4882 12.7705L32.9166 12.4455L33.1269 12.3068L33.3411 12.1681L33.5395 12.0293L33.7537 11.9144L33.968 11.8034L34.1782 11.7004L34.3766 11.6013L34.805 11.4507L35.0153 11.3754L35.4438 11.2723Z" fill="white"/>
<path d="M59.5013 3.81294L59.7274 3.69799L59.9416 3.58701L60.14 3.47207L60.3106 3.35713L60.4534 3.25804L60.5923 3.15895L60.8065 2.94492L60.8898 2.84187L60.9612 2.73089L61.0207 2.62783L61.0763 2.51685L61.1041 2.39002L61.1199 2.27508L61.1318 2.15221L61.1477 2.01348L61.1318 1.79945L61.0882 1.58542L61.0326 1.38328L60.9493 1.19699L60.8343 1.01863L60.7073 0.844236L60.5804 0.693621L60.4217 0.554897L60.2511 0.428063L60.0686 0.313121L59.6719 0.138724L59.4735 0.0753075L59.2593 0.035672L59.0331 0.0118907L58.8189 0H58.6761L58.5213 0.0237813L58.3666 0.0515262L58.2079 0.0990888L58.0373 0.162506L57.8667 0.237813L57.6842 0.325011L57.4978 0.428063L57.2994 0.554897L57.0891 0.693621L56.8749 0.856127L56.6488 1.03052L56.4068 1.22077L56.1648 1.43481L55.895 1.67262L55.6252 1.92629L49.5791 7.5466H51.9475L59.5013 3.81294Z" fill="white"/>
<path d="M66.6425 26.187L66.8568 25.3943L67.0274 24.6016L67.1424 23.797L67.2257 23.0043L67.2416 22.2116L67.2257 21.3792L67.1702 20.5865L67.0829 19.8176L66.9718 19.0764L66.8171 18.359L66.6306 17.6773L66.4164 17.0114L66.1625 16.3812L65.8927 15.7787L65.5952 15.2001L65.2698 14.6452L64.9168 14.118L64.5319 13.6146L64.1193 13.1469L63.6948 12.6951L63.2545 12.267L62.7863 11.8786L62.2904 11.514L61.7786 11.1731L61.2549 10.8441L60.7154 10.5548L60.1481 10.2892L59.5807 10.0514L58.9857 9.83738L58.3747 9.64713L57.7637 9.48462L57.1409 9.3459L56.5021 9.23096L55.8475 9.14376L55.1929 9.08034L54.5264 9.04071L53.844 9.02882L52.6658 9.0526L51.4994 9.1398L50.3647 9.26663L49.242 9.45688L48.1629 9.6828L47.1115 9.96025L46.088 10.2734L45.0962 10.638L44.144 11.0264L43.2077 11.4664L42.3151 11.946L41.4621 12.4494L40.6369 12.9884L39.8435 13.5552L39.0897 14.1458L38.3676 14.776L37.6853 15.4299L37.0465 16.0958L36.4356 16.7894L35.8801 17.5069L35.3565 18.2361L34.8725 18.9773L34.4321 19.7463L34.0354 20.5152L33.6823 21.296L33.3688 22.0887L33.1149 22.8814L32.9007 23.6741L32.7301 24.4787L32.6032 25.2833L32.5317 26.0879L32.504 26.8806L32.5198 27.6971L32.5754 28.4898L32.6587 29.2588L32.7857 29.9881L32.9404 30.7055L33.1229 31.3832L33.3371 32.0491L33.5791 32.6793L33.8648 33.2818L34.1623 33.8605L34.4876 34.3995L34.8447 34.9267L35.2255 35.43L35.6223 35.8938L36.0468 36.3456L36.503 36.7618L36.9791 37.1581L37.4591 37.5347L37.9709 37.8755L38.4946 38.1887L39.05 38.478L39.6054 38.7436L40.1886 38.9814L40.7837 39.1954L41.3788 39.3857L42.0017 39.5482L42.6285 39.6869L43.2672 39.8018L43.9218 39.889L44.5764 39.9524L45.243 39.9881L45.9095 40L47.1036 39.9762L48.266 39.9009L49.4007 39.7622L50.5075 39.5838L51.5867 39.3579L52.638 39.0805L53.6615 38.7673L54.6534 38.4027L55.6174 38.0143L56.5378 37.5743L57.4305 37.1106L58.2953 36.6072L59.1166 36.0682L59.91 35.5014L60.6638 34.8989L61.3898 34.2806L62.0722 33.6266L62.7109 32.9607L63.306 32.2711L63.8734 31.5537L64.397 30.8244L64.8811 30.0832L65.3214 29.3262L65.7181 28.5572L66.0593 27.7764L66.3727 26.9837L66.6425 26.187ZM59.3625 19.1161L59.3467 19.9207L59.2911 20.7371L59.2039 21.5536L59.0769 22.3701L58.9341 23.2025L58.7516 24.0348L58.5373 24.8513L58.2953 25.6678L58.0256 26.4843L57.728 27.277L57.4027 28.0697L57.0615 28.8505L56.6926 29.6076L56.2958 30.3488L55.8713 31.0781L55.431 31.7717L54.9747 32.4494L54.4907 33.0915L53.9948 33.7098L53.483 34.2885L52.9435 34.8434L52.388 35.3587L51.8366 35.8383L51.2534 36.2782L50.6583 36.6667L50.0632 37.0194L49.4522 37.3206L48.8294 37.5585L48.1906 37.7606L47.5519 37.9112L46.8973 37.9984L46.2427 38.0222L45.8579 38.0103L45.4889 37.9865L45.12 37.9231L44.7788 37.8478L44.4535 37.7487L44.14 37.6338L43.8425 37.495L43.5569 37.3444L43.2712 37.17L43.0173 36.9917L42.5333 36.5636L42.3191 36.3258L42.1048 36.0761L41.7319 35.545L41.5613 35.2556L41.4066 34.9544L41.2519 34.6413L41.1249 34.3282L40.998 34.0032L40.9107 33.6623L40.8115 33.3214L40.7123 32.9687L40.5695 32.2394L40.5139 31.8747L40.4703 31.4982L40.4148 30.7451L40.3989 30.3527V29.9643L40.4148 29.1597L40.4703 28.3432L40.5536 27.5267L40.6687 26.6983L40.8234 25.8699L41.0059 25.0416L41.2201 24.2251L41.4621 23.3967L41.7319 22.5921L42.0175 21.7875L42.3429 20.9948L42.6959 20.214L43.0649 19.4609L43.4616 18.7197L43.8742 17.9904L44.3146 17.2968L44.7827 16.619L45.2509 15.9769L45.7627 15.3467L46.2744 14.768L46.814 14.2131L47.3535 13.6979L47.9209 13.2183L48.5041 12.7783L49.0873 12.3899L49.6982 12.049L50.3092 11.7478L50.932 11.4981L51.5589 11.296L52.2135 11.1454L52.8522 11.0582L53.5068 11.0344L53.9035 11.0463L54.2725 11.0859L54.6256 11.1374L54.9668 11.2127L55.2921 11.3118L55.6174 11.4268L55.915 11.5655L56.2006 11.7161L56.4704 11.8905L56.7402 12.0808L56.9822 12.2829L57.4344 12.7347L57.6328 12.9844L57.8312 13.25L58.0137 13.5274L58.1843 13.8168L58.339 14.118L58.6246 14.7443L58.7397 15.0732L58.8547 15.4141L58.9539 15.7669L59.0372 16.1196L59.1205 16.4843L59.1761 16.8489L59.2356 17.2254L59.2753 17.602L59.3189 17.9785L59.3467 18.3551L59.3625 18.7435V19.1161Z" fill="white"/>
<path d="M115.111 35.7274L115.139 35.4936L115.166 35.232L115.206 34.9743L115.309 34.5185L115.393 34.1935L121.098 13.4443L121.213 13.1193L121.296 12.8458L121.399 12.612L121.482 12.4178L121.582 12.2513L121.665 12.0928L121.764 11.962L121.879 11.847L121.994 11.744L122.121 11.6647L122.276 11.5854L122.462 11.522L122.661 11.4586L122.871 11.419L123.113 11.3674L123.371 11.3397L123.922 11.2882L124.521 11.2644L125.172 11.2485L125.838 11.2247L126.322 9.19937H108.962L108.482 11.2247L109.219 11.2644L109.898 11.3L110.509 11.3674L111.048 11.4427L111.278 11.4824L111.505 11.5339L111.687 11.5735L111.874 11.6251L112.028 11.6766L112.155 11.7281L112.258 11.7955L112.342 11.847L112.453 11.9501L112.556 12.069L112.623 12.1839L112.695 12.3147L112.738 12.4574L112.754 12.612L112.782 12.7824V12.9489L112.766 13.1986L112.711 13.5593L112.623 14.027L112.512 14.5858L112.369 15.224L112.215 15.9255L112.012 16.6786L111.814 17.4673L108.283 30.1428L108.013 31.0148L107.486 32.6874L107.244 33.4286L107.045 34.0667L106.891 34.5463L106.776 34.8713L106.605 35.3231L106.438 35.7274L106.296 36.0762L106.137 36.3893L105.982 36.6628L105.839 36.8808L105.756 36.9878L105.685 37.075L105.597 37.1662L105.514 37.2455L105.431 37.3089L105.343 37.3763L105.145 37.4793L105.046 37.5189L104.931 37.5586L104.82 37.5824L104.705 37.6101L104.451 37.6616L104.165 37.6735L103.84 37.6854L103.483 37.7013H102.673L102.178 39.7266H119.308L119.792 37.7013H117.963L117.567 37.6854L117.21 37.6616L116.884 37.6339L116.599 37.5824L116.329 37.5189L116.103 37.4397L115.888 37.3485L115.718 37.2455L115.563 37.1305L115.436 36.9878L115.321 36.8412L115.238 36.6866L115.178 36.5201L115.139 36.3378L115.111 36.1277V35.7274Z" fill="white"/>
<path d="M153.153 9.19937L152.657 11.2129L153.387 11.2802L154.03 11.3436L154.597 11.419L155.077 11.5101L155.295 11.5498L155.486 11.6013L155.66 11.6528L155.823 11.7043L155.954 11.7559L156.069 11.8074L156.156 11.8748L156.232 11.9263L156.319 12.0175L156.406 12.1205L156.478 12.2354L156.553 12.3662L156.609 12.5089L156.652 12.6477L156.684 12.933L156.668 13.2303L156.624 13.5672L156.565 13.9675L156.478 14.3956L156.363 14.8712L156.244 15.4023L156.101 15.9572L155.938 16.5518L151.213 32.9807H151.11L141.021 9.19937H127.953L127.457 11.2129L127.965 11.2406L128.449 11.2644L128.869 11.304L129.266 11.3555L129.631 11.3952L129.936 11.4467L130.226 11.5101L130.476 11.5656L130.694 11.629L130.885 11.6924L131.043 11.744L131.174 11.8074L131.277 11.8589L131.365 11.9263L131.44 11.962L131.484 12.0175L131.539 12.1205L131.599 12.2354L131.642 12.3504L131.67 12.4812L131.714 12.715L131.73 12.933L131.714 13.1907L131.702 13.5038L131.658 13.8526L131.599 14.2529L131.511 14.6928L131.408 15.1843L131.293 15.7115L131.131 16.2822L126.306 32.8538L126.116 33.4999L125.926 34.0825L125.719 34.6097L125.517 35.0774L125.414 35.2954L125.311 35.4896L125.196 35.6838L125.077 35.8661L124.962 36.0326L124.846 36.1872L124.716 36.3299L124.585 36.4607L124.438 36.5875L124.307 36.7064L124.148 36.8095L124.001 36.9125L123.827 37.0037L123.652 37.079L123.474 37.1583L123.287 37.2217L123.097 37.2891L122.891 37.3406L122.672 37.3881L122.438 37.4436L121.958 37.507L121.435 37.5705L120.939 39.5879H131.932L132.428 37.5705L131.817 37.5189L131.262 37.4555L130.766 37.3881L130.345 37.3009L129.964 37.2098L129.631 37.1186L129.337 37.0037L129.103 36.8848L128.901 36.7698L128.738 36.643L128.607 36.5122L128.508 36.3814L128.433 36.2546L128.373 36.1119L128.361 35.9811L128.346 35.8503V35.6957L128.361 35.5411L128.389 35.3747L128.417 35.2042L128.492 34.8316L128.607 34.4432L128.726 34.0033L128.869 33.5395L129.032 33.0481L129.191 32.505L134.558 13.8645H134.662L145.889 39.5879H151.768L159.572 13.6821L159.644 13.4523L159.731 13.2303L159.834 13.0004L159.949 12.7785L160.096 12.5723L160.255 12.3662L160.358 12.2632L160.445 12.172L160.564 12.0809L160.663 11.9897L160.794 11.9144L160.913 11.8232L161.056 11.744L161.203 11.6805L161.349 11.6013L161.508 11.5498L161.687 11.4863L161.861 11.4348L162.048 11.3833L162.238 11.3436L162.444 11.304L162.663 11.2802L162.897 11.2525L163.131 11.2406L163.377 11.2287L163.639 11.2129L164.135 9.19937H153.153Z" fill="white"/>
<path d="M102.709 13.4641L102.797 13.2462L102.9 13.0123L103.019 12.7903L103.162 12.5842L103.324 12.3742L103.427 12.2711L103.531 12.18L103.63 12.0928L103.749 12.0016L103.864 11.9223L103.999 11.8312L104.13 11.7559L104.276 11.6885L104.423 11.6132L104.582 11.5577L104.76 11.4943L104.935 11.4427L105.125 11.3912L105.316 11.3516L105.534 11.3119L105.74 11.2882L105.974 11.2604L106.208 11.2485L106.454 11.2327L106.72 11.2208L107.216 9.19937H96.195L95.6991 11.2208L96.4291 11.2882L97.0758 11.3516L97.6471 11.4269L98.1271 11.522L98.3493 11.5577L98.5397 11.6132L98.7143 11.6647L98.8769 11.7162L99.0078 11.7677L99.1229 11.8193L99.2102 11.8827L99.2856 11.9342L99.3887 12.0254L99.4601 12.1284L99.5474 12.2473L99.6069 12.3742L99.6625 12.5208L99.7101 12.6635L99.722 12.8022L99.7378 12.9449L99.722 13.2462L99.6783 13.5831L99.6228 13.9834L99.5315 14.4114L99.4324 14.891L99.2975 15.4261L99.1546 15.981L98.992 16.5795L94.2511 33.0679H94.1479L84.0194 9.19937H70.9075L70.4076 11.2208L70.9194 11.2485L71.4034 11.2723L71.8438 11.3119L72.2247 11.3635L72.5897 11.4031L72.8951 11.4546L73.1887 11.522L73.4387 11.5735L73.6569 11.6369L73.8473 11.7004L74.0099 11.7559L74.1409 11.8193L74.244 11.8708L74.3313 11.9342L74.4027 11.9739L74.4503 12.0254L74.5217 12.1284L74.5654 12.2473L74.609 12.3623L74.6526 12.4931L74.6804 12.7269L74.6963 12.9449L74.6804 13.2065L74.6685 13.5196L74.6249 13.8684L74.5654 14.2687L74.4781 14.7127L74.3749 15.2041L74.2599 15.7353L74.0972 16.306L69.2532 32.9371L69.0627 33.5871L68.8723 34.1697L68.666 34.7008L68.4637 35.1685L68.3605 35.3905L68.2574 35.5847L68.1384 35.7789L68.0233 35.9573L67.9043 36.1277L67.7892 36.2823L67.6583 36.425L67.5274 36.5558L67.3925 36.6866L67.2457 36.8015L67.087 36.9085L66.9402 37.0116L66.7657 37.1028L66.603 37.1781L66.4126 37.2573L66.0317 37.3842L65.8294 37.4397L65.6072 37.4912L65.389 37.5427L64.905 37.6061L64.3655 37.6735L63.8656 39.6949H74.9026L75.3985 37.6735L74.7836 37.618L74.2281 37.5546L73.7481 37.4912L73.3077 37.4L72.9269 37.3089L72.5897 37.2177L72.2961 37.1028L72.062 36.9838L71.8597 36.8689L71.697 36.7381L71.5661 36.6073L71.4629 36.4765L71.3915 36.3497L71.3439 36.207L71.3161 36.0762L71.3003 35.9454V35.7908L71.3161 35.6362L71.3439 35.4658L71.4471 34.9228L71.5661 34.5304L71.6811 34.0905L71.8279 33.6228L71.9906 33.1313L72.1493 32.5883L77.5369 13.8803H77.64L88.9071 39.6949H94.8065L102.638 13.698L102.709 13.4641Z" fill="white"/>
<path d="M170.241 8.98143C170.8 8.98143 171.332 9.08449 171.824 9.28663C172.32 9.49273 172.756 9.78603 173.137 10.1745C173.514 10.551 173.803 10.987 174.006 11.4824C174.208 11.9779 174.307 12.4971 174.307 13.048C174.307 13.6029 174.208 14.1222 174.01 14.6097C173.811 15.0932 173.522 15.5253 173.137 15.9018C172.74 16.2942 172.292 16.5954 171.792 16.8015C171.292 17.0116 170.772 17.1146 170.237 17.1146C169.689 17.1146 169.173 17.0116 168.682 16.8055C168.19 16.5994 167.753 16.3021 167.368 15.9097C166.98 15.5253 166.682 15.0893 166.476 14.5938C166.273 14.1023 166.17 13.5871 166.17 13.0441C166.17 12.513 166.273 11.9937 166.484 11.4943C166.694 10.991 166.995 10.5431 167.384 10.1467C167.757 9.76622 168.186 9.47688 168.67 9.27474C169.173 9.08052 169.689 8.98143 170.241 8.98143ZM173.871 13.0639C173.871 12.5684 173.779 12.1007 173.605 11.6608C173.426 11.2208 173.173 10.8324 172.839 10.4995C172.49 10.1546 172.097 9.89305 171.653 9.71073C171.213 9.5284 170.741 9.43724 170.249 9.43724C169.769 9.43724 169.308 9.52444 168.876 9.7028C168.447 9.88116 168.059 10.1388 167.717 10.4797C167.364 10.8364 167.099 11.2367 166.908 11.6806C166.722 12.1206 166.626 12.5803 166.626 13.056C166.626 13.5356 166.718 13.9914 166.904 14.4274C167.087 14.8633 167.352 15.2557 167.698 15.6006C168.047 15.9454 168.44 16.207 168.876 16.3893C169.312 16.5716 169.769 16.6628 170.249 16.6628C170.729 16.6628 171.193 16.5716 171.641 16.3853C172.085 16.1991 172.486 15.9335 172.843 15.5847C173.18 15.2557 173.434 14.8792 173.613 14.4511C173.783 14.027 173.871 13.5633 173.871 13.0639ZM170.364 10.6422C171.022 10.6422 171.51 10.7492 171.828 10.9592C172.145 11.1693 172.304 11.4943 172.304 11.9382C172.304 12.2672 172.204 12.5407 172.002 12.7627C171.8 12.9886 171.534 13.1194 171.197 13.1669L172.24 15.3271H171.435L170.447 13.27H169.352V15.3271H168.646V10.6422H170.364ZM170.233 11.1178H169.356V12.7983H170.233C170.729 12.7983 171.074 12.7349 171.276 12.612C171.475 12.4852 171.574 12.2751 171.574 11.9818C171.574 11.6766 171.467 11.4547 171.256 11.3199C171.046 11.1852 170.701 11.1178 170.233 11.1178Z" fill="white"/>
</svg>
