<?xml version="1.0" encoding="UTF-8" standalone="no"?>
<!-- Created with Inkscape (http://www.inkscape.org/) -->
<svg
   xmlns:dc="http://purl.org/dc/elements/1.1/"
   xmlns:cc="http://web.resource.org/cc/"
   xmlns:rdf="http://www.w3.org/1999/02/22-rdf-syntax-ns#"
   xmlns:svg="http://www.w3.org/2000/svg"
   xmlns="http://www.w3.org/2000/svg"
   xmlns:xlink="http://www.w3.org/1999/xlink"
   xmlns:sodipodi="http://sodipodi.sourceforge.net/DTD/sodipodi-0.dtd"
   xmlns:inkscape="http://www.inkscape.org/namespaces/inkscape"
   width="354"
   height="122"
   id="svg2"
   sodipodi:version="0.32"
   inkscape:version="0.45.1"
   version="1.0"
   inkscape:output_extension="org.inkscape.output.svg.inkscape">
  <g
     inkscape:label="Layer 1"
     inkscape:groupmode="layer"
     id="layer1"
     transform="translate(-159.11795,-336.26872)"><g
   clip-path="none"
   id="g3687"
   transform="matrix(6.4669346,0,0,-6.4669346,-3098.18,2598.1761)">
          <path
   style="fill:#00295b;fill-rule:nonzero;stroke:none"
   d="M 558.303,331.022 L 503.807,331.022 L 503.807,349.643 L 558.303,349.643 L 558.303,331.022 z "
   id="path3689" />

          <path
   style="fill:none;stroke:#ffffff;stroke-width:0.244;stroke-linecap:butt;stroke-linejoin:miter;stroke-miterlimit:4"
   d="M 558.303,331.022 L 503.807,331.022 L 503.807,349.643 L 558.303,349.643 L 558.303,331.022 z "
   stroke-miterlimit="4"
   id="path3691" />

          <path
   style="fill:#ffffff;fill-rule:evenodd;stroke:none"
   d="M 542.998,334.49 C 542.516,334.484 542.01,334.466 541.564,334.502 C 541.612,334.628 541.733,334.713 541.769,334.851 C 541.799,334.99 541.859,335.111 541.853,335.261 L 541.847,338.883 C 541.811,339.136 541.708,339.359 541.54,339.546 C 541.715,339.649 541.914,339.661 542.125,339.733 C 542.287,339.775 542.516,339.859 542.697,339.859 C 542.745,339.781 542.715,339.528 542.721,339.492 L 542.715,335.936 C 542.727,335.46 542.649,334.875 543.004,334.52 L 542.998,334.49 z "
   id="path3693" />

          <path
   style="fill:#ffffff;fill-rule:evenodd;stroke:none"
   d="M 541.474,334.49 C 541.1,334.453 540.726,334.466 540.335,334.472 L 539.961,334.49 C 539.973,334.586 540.1,334.671 540.136,334.761 C 540.244,334.96 540.256,335.201 540.262,335.43 C 540.238,336.093 540.329,336.744 540.214,337.401 C 540.148,337.587 539.991,337.696 539.81,337.738 C 539.551,337.75 539.31,337.63 539.195,337.425 C 538.979,337.027 539.033,336.533 539.021,336.075 C 539.039,335.526 538.93,334.9 539.34,334.508 L 539.34,334.49 C 538.792,334.448 538.352,334.472 537.821,334.484 L 537.827,334.532 C 538.213,334.881 538.105,335.502 538.123,335.984 C 538.099,336.647 538.225,337.316 537.984,337.925 L 537.815,338.184 C 537.845,338.238 537.936,338.256 538.008,338.28 C 538.092,338.311 538.153,338.305 538.249,338.335 C 538.442,338.401 538.659,338.467 538.852,338.504 C 538.924,338.431 538.858,338.299 538.942,338.226 C 539.159,338.341 539.376,338.479 539.635,338.516 C 540.063,338.57 540.563,338.497 540.859,338.16 C 541.136,337.883 541.124,337.455 541.154,337.057 L 541.16,335.219 C 541.178,334.948 541.299,334.719 541.474,334.52 L 541.474,334.49 z "
   id="path3695" />

          <path
   style="fill:#ffffff;fill-rule:evenodd;stroke:none"
   d="M 539.093,334.417 C 539.087,334.411 539.081,334.417 539.081,334.423 L 539.099,334.429 C 539.105,334.423 539.099,334.417 539.093,334.417"
   id="path3697" />

          <path
   style="fill:#b7925d;fill-rule:evenodd;stroke:none"
   d="M 532.614,343.897 C 532.198,344.151 531.698,344.265 531.216,344.331 C 531.186,344.343 531.192,344.385 531.204,344.404 C 531.704,344.373 532.186,344.199 532.62,343.958 C 532.626,343.934 532.644,343.915 532.614,343.897"
   id="path3699" />

          <path
   style="fill:#b7925d;fill-rule:evenodd;stroke:none"
   d="M 531.21,345.627 C 531.114,345.633 531.174,345.796 531.065,345.814 C 531.035,345.856 530.909,345.844 530.951,345.934 C 531.071,345.958 531.216,345.934 531.294,345.844 C 531.282,345.766 531.288,345.663 531.21,345.627"
   id="path3701" />

          <path
   style="fill:#b7925d;fill-rule:evenodd;stroke:none"
   d="M 531.114,346.802 C 531.09,346.766 531.053,346.82 531.017,346.814 C 530.981,346.971 530.83,346.875 530.734,346.893 C 530.686,346.796 530.77,346.664 530.662,346.609 C 530.583,346.573 530.577,346.67 530.571,346.718 C 530.571,346.784 530.589,346.856 530.535,346.899 C 530.457,346.905 530.336,346.959 530.3,346.856 C 530.306,346.808 530.258,346.808 530.234,346.79 C 530.125,346.772 530.143,346.953 530.023,346.911 C 529.981,346.929 529.981,346.983 529.993,347.013 C 530.047,347.073 530.186,347.031 530.174,347.158 C 530.21,347.17 530.228,347.164 530.264,347.164 C 530.336,347.14 530.264,347.037 530.348,347.037 C 530.427,347.043 530.529,346.983 530.565,347.086 C 530.565,347.158 530.583,347.254 530.511,347.284 C 530.463,347.278 530.421,347.302 530.421,347.357 C 530.433,347.417 530.481,347.411 530.529,347.429 C 530.565,347.483 530.553,347.592 530.638,347.598 C 530.674,347.592 530.728,347.568 530.716,347.519 C 530.692,347.399 530.957,347.387 530.782,347.29 C 530.77,347.278 530.71,347.284 530.71,347.236 C 530.704,347.17 530.692,347.086 530.746,347.037 C 530.818,347.061 530.897,346.983 530.957,347.049 C 530.999,347.079 530.987,347.164 531.053,347.164 C 531.15,347.14 531.174,347.037 531.276,347.013 C 531.288,346.989 531.282,346.959 531.27,346.935 C 531.204,346.923 531.126,346.881 531.114,346.802"
   id="path3703" />

          <path
   style="fill:#b7925d;fill-rule:evenodd;stroke:none"
   d="M 531.282,346.151 C 531.132,346.175 530.993,346.2 530.836,346.218 C 530.794,346.32 530.812,346.453 530.818,346.561 C 531.041,346.543 531.246,346.386 531.282,346.151"
   id="path3705" />

          <path
   style="fill:#ffffff;fill-rule:evenodd;stroke:none"
   d="M 531.234,336.967 C 531.017,337.268 530.836,337.774 530.348,337.684 C 530.041,337.612 529.92,337.298 529.878,336.997 C 529.86,336.346 529.848,335.623 529.896,334.966 C 529.956,334.791 530.047,334.628 530.155,334.484 L 530.101,334.46 L 528.715,334.46 C 528.703,334.58 528.842,334.64 528.872,334.743 C 528.968,334.96 529.004,335.201 529.004,335.46 L 528.998,337.491 C 528.962,337.75 528.848,338.003 528.685,338.184 C 528.733,338.25 528.823,338.232 528.89,338.287 C 529.143,338.347 529.414,338.419 529.667,338.479 C 529.752,338.401 529.649,338.232 529.758,338.16 C 529.884,338.262 530.023,338.383 530.167,338.443 C 530.445,338.546 530.752,338.509 531.029,338.413 C 531.114,338.407 531.186,338.455 531.252,338.467 C 531.294,337.985 531.264,337.509 531.258,336.997 L 531.234,336.967 z "
   id="path3707" />

          <path
   style="fill:#b7925d;fill-rule:evenodd;stroke:none"
   d="M 530.481,346.224 C 530.33,346.194 530.161,346.169 530.011,346.163 C 530.035,346.362 530.186,346.471 530.354,346.543 C 530.402,346.531 530.409,346.591 530.451,346.561 C 530.523,346.471 530.493,346.338 530.481,346.224"
   id="path3709" />

          <path
   style="fill:#b7925d;fill-rule:evenodd;stroke:none"
   d="M 530.167,345.808 C 530.089,345.76 530.179,345.591 530.065,345.603 C 530.005,345.675 529.975,345.754 529.981,345.85 C 530.065,345.934 530.186,345.922 530.3,345.946 C 530.306,345.922 530.348,345.928 530.336,345.892 C 530.3,345.832 530.222,345.838 530.167,345.808"
   id="path3711" />

          <path
   style="fill:#b7925d;fill-rule:evenodd;stroke:none"
   d="M 529.944,344.307 C 529.48,344.235 529.113,344.132 528.715,343.897 C 528.703,343.964 528.787,343.982 528.83,344.018 C 528.878,344.012 528.89,344.066 528.926,344.078 C 529.275,344.247 529.631,344.373 530.029,344.41 C 530.131,344.349 530.005,344.295 529.944,344.307"
   id="path3713" />

          <path
   style="fill:#ffffff;fill-rule:evenodd;stroke:none"
   d="M 528.456,336.997 C 528.383,336.924 528.42,336.81 528.365,336.732 L 528.347,334.966 C 528.311,334.936 528.365,334.893 528.353,334.863 L 528.317,334.327 C 528.179,334.448 527.998,334.556 527.799,334.508 C 527.353,334.472 526.931,334.297 526.473,334.321 C 525.774,334.297 525.051,334.664 524.773,335.297 C 524.424,336.171 524.412,337.376 524.701,338.268 C 524.894,338.841 525.292,339.432 525.895,339.636 C 526.123,339.757 526.395,339.733 526.654,339.769 C 527.064,339.787 527.455,339.624 527.859,339.594 C 527.986,339.618 528.094,339.679 528.179,339.769 C 528.257,339.395 528.191,338.877 528.209,338.497 L 528.179,337.744 L 528.161,337.744 C 527.829,338.305 527.323,339.04 526.533,338.901 C 526.093,338.853 525.78,338.473 525.641,338.076 C 525.436,337.479 525.418,336.75 525.521,336.111 C 525.551,336.051 525.545,335.972 525.575,335.912 C 525.69,335.581 525.913,335.279 526.268,335.183 C 526.582,335.098 526.955,335.153 527.184,335.388 C 527.238,335.412 527.275,335.496 527.317,335.544 C 527.552,335.96 527.492,336.563 527.202,336.931 C 527.142,336.991 527.076,337.069 527.027,337.148 C 527.528,337.172 527.98,337.178 528.498,337.141 C 528.498,337.087 528.444,337.057 528.456,336.997"
   id="path3715" />

          <path
   style="fill:#ffffff;fill-rule:evenodd;stroke:none"
   d="M 518.307,338.027 C 517.951,337.226 517.734,336.364 517.463,335.508 C 517.186,334.725 517.041,333.821 516.463,333.188 C 516.125,332.814 515.595,332.796 515.083,332.856 C 514.998,332.832 514.914,332.808 514.829,332.784 L 514.799,332.881 C 514.817,333.29 514.769,333.7 514.829,334.134 L 514.866,334.128 C 515.071,333.851 515.384,333.513 515.794,333.616 C 516.059,333.73 516.137,334.014 516.155,334.303 C 516.143,334.845 515.92,335.309 515.8,335.804 C 515.505,336.647 515.396,337.587 514.866,338.323 C 514.848,338.389 514.938,338.365 514.974,338.377 C 515.408,338.377 515.86,338.389 516.246,338.359 C 516.258,338.311 516.234,338.262 516.204,338.226 C 515.999,337.792 516.288,337.328 516.36,336.888 C 516.469,336.479 516.607,336.081 516.716,335.677 L 516.746,335.647 C 516.818,335.761 516.836,335.894 516.867,336.027 C 517.035,336.659 517.24,337.256 517.361,337.907 C 517.373,338.082 517.294,338.232 517.228,338.359 C 517.632,338.395 518.042,338.377 518.421,338.371 L 518.488,338.353 C 518.458,338.226 518.343,338.148 518.307,338.027"
   id="path3717" />

          <path
   style="fill:#ffffff;fill-rule:evenodd;stroke:none"
   d="M 514.347,335.629 L 514.329,335.647 L 514.353,335.659 C 514.347,335.653 514.359,335.635 514.347,335.629"
   id="path3719" />

          <path
   style="fill:#ffffff;fill-rule:evenodd;stroke:none"
   d="M 512.728,341.881 L 512.977,341.881 C 513.069,341.881 513.154,341.851 513.154,341.744 C 513.154,341.655 513.095,341.598 513.001,341.598 L 512.728,341.598 L 512.728,341.881 z M 512.62,341.506 L 513.015,341.506 C 513.177,341.506 513.263,341.621 513.263,341.741 C 513.263,341.842 513.208,341.917 513.107,341.938 L 513.107,341.94 C 513.183,341.971 513.229,342.037 513.229,342.123 C 513.229,342.204 513.186,342.262 513.133,342.294 C 513.083,342.324 512.988,342.324 512.916,342.324 L 512.62,342.324 L 512.62,341.506 z M 512.728,342.232 L 512.946,342.232 C 513.04,342.232 513.12,342.216 513.12,342.103 C 513.12,342.017 513.07,341.972 512.946,341.972 L 512.728,341.972 L 512.728,342.232 z "
   id="path3721" />

          <path
   style="fill:#ffffff;fill-rule:evenodd;stroke:none"
   d="M 514.054,342.324 L 513.931,342.324 L 513.691,341.935 L 513.446,342.324 L 513.317,342.324 L 513.633,341.841 L 513.633,341.506 L 513.742,341.506 L 513.742,341.841 L 514.054,342.324 z "
   id="path3723" />

          <path
   style="fill:#ffffff;fill-rule:evenodd;stroke:none"
   d="M 514.367,341.506 L 514.479,341.506 L 514.57,341.752 L 514.916,341.752 L 515.006,341.506 L 515.126,341.506 L 514.806,342.324 L 514.686,342.324 L 514.367,341.506 z M 514.743,342.225 L 514.746,342.225 L 514.882,341.844 L 514.605,341.844 L 514.743,342.225 z "
   id="path3725" />

          <path
   style="fill:#ffffff;fill-rule:evenodd;stroke:none"
   d="M 515.206,341.506 L 515.315,341.506 L 515.315,341.841 L 515.564,341.841 C 515.727,341.839 515.815,341.931 515.815,342.082 C 515.815,342.233 515.727,342.324 515.564,342.324 L 515.206,342.324 L 515.206,341.506 z M 515.315,342.232 L 515.528,342.232 C 515.65,342.232 515.706,342.18 515.706,342.082 C 515.706,341.985 515.65,341.931 515.528,341.932 L 515.315,341.932 L 515.315,342.232 z "
   id="path3727" />

          <path
   style="fill:#ffffff;fill-rule:evenodd;stroke:none"
   d="M 515.948,341.506 L 516.057,341.506 L 516.057,341.841 L 516.306,341.841 C 516.469,341.839 516.557,341.931 516.557,342.082 C 516.557,342.233 516.469,342.324 516.306,342.324 L 515.948,342.324 L 515.948,341.506 z M 516.057,342.232 L 516.27,342.232 C 516.392,342.232 516.448,342.18 516.448,342.082 C 516.448,341.985 516.392,341.931 516.27,341.932 L 516.057,341.932 L 516.057,342.232 z "
   id="path3729" />

          <path
   style="fill:#ffffff;fill-rule:evenodd;stroke:none"
   d="M 516.644,341.915 C 516.644,341.693 516.776,341.487 517.036,341.487 C 517.295,341.487 517.427,341.693 517.427,341.915 C 517.427,342.137 517.295,342.343 517.036,342.343 C 516.776,342.343 516.644,342.137 516.644,341.915 M 516.753,341.915 C 516.753,342.08 516.836,342.252 517.036,342.252 C 517.235,342.252 517.318,342.08 517.318,341.915 C 517.318,341.75 517.235,341.578 517.036,341.578 C 516.836,341.578 516.753,341.75 516.753,341.915"
   id="path3731" />

          <path
   style="fill:#ffffff;fill-rule:evenodd;stroke:none"
   d="M 517.564,341.506 L 517.673,341.506 L 517.673,342.323 L 517.564,342.323 L 517.564,341.506 z "
   id="path3733" />

          <path
   style="fill:#ffffff;fill-rule:evenodd;stroke:none"
   d="M 517.855,341.506 L 517.958,341.506 L 517.958,342.162 L 517.96,342.162 L 518.387,341.506 L 518.506,341.506 L 518.506,342.324 L 518.403,342.324 L 518.403,341.661 L 518.401,341.661 L 517.971,342.324 L 517.855,342.324 L 517.855,341.506 z "
   id="path3735" />

          <path
   style="fill:#ffffff;fill-rule:evenodd;stroke:none"
   d="M 518.868,341.506 L 518.977,341.506 L 518.977,342.232 L 519.25,342.232 L 519.25,342.324 L 518.596,342.324 L 518.596,342.232 L 518.868,342.232 L 518.868,341.506 z "
   id="path3737" />

          <path
   style="fill:#ffffff;fill-rule:evenodd;stroke:none"
   d="M 519.342,341.506 L 519.445,341.506 L 519.445,342.186 L 519.448,342.186 L 519.703,341.506 L 519.796,341.506 L 520.051,342.186 L 520.053,342.186 L 520.053,341.506 L 520.156,341.506 L 520.156,342.324 L 520.008,342.324 L 519.749,341.637 L 519.491,342.324 L 519.342,342.324 L 519.342,341.506 z "
   id="path3739" />

          <path
   style="fill:#ffffff;fill-rule:evenodd;stroke:none"
   d="M 520.337,341.506 L 520.905,341.506 L 520.905,341.598 L 520.446,341.598 L 520.446,341.881 L 520.871,341.881 L 520.871,341.972 L 520.446,341.972 L 520.446,342.232 L 520.902,342.232 L 520.902,342.324 L 520.337,342.324 L 520.337,341.506 z "
   id="path3741" />

          <path
   style="fill:#ffffff;fill-rule:evenodd;stroke:none"
   d="M 521.035,341.506 L 521.138,341.506 L 521.138,342.162 L 521.141,342.162 L 521.568,341.506 L 521.687,341.506 L 521.687,342.324 L 521.584,342.324 L 521.584,341.661 L 521.582,341.661 L 521.151,342.324 L 521.035,342.324 L 521.035,341.506 z "
   id="path3743" />

          <path
   style="fill:#ffffff;fill-rule:evenodd;stroke:none"
   d="M 522.049,341.506 L 522.158,341.506 L 522.158,342.232 L 522.43,342.232 L 522.43,342.324 L 521.776,342.324 L 521.776,342.232 L 522.049,342.232 L 522.049,341.506 z "
   id="path3745" />

          <path
   style="fill:#ffffff;fill-rule:evenodd;stroke:none"
   d="M 523.024,341.506 L 523.133,341.506 L 523.133,342.232 L 523.406,342.232 L 523.406,342.324 L 522.752,342.324 L 522.752,342.232 L 523.024,342.232 L 523.024,341.506 z "
   id="path3747" />

          <path
   style="fill:#ffffff;fill-rule:evenodd;stroke:none"
   d="M 523.45,341.915 C 523.45,341.693 523.582,341.487 523.842,341.487 C 524.102,341.487 524.233,341.693 524.233,341.915 C 524.233,342.137 524.102,342.343 523.842,342.343 C 523.582,342.343 523.45,342.137 523.45,341.915 M 523.559,341.915 C 523.559,342.08 523.642,342.252 523.842,342.252 C 524.041,342.252 524.125,342.08 524.125,341.915 C 524.125,341.75 524.041,341.578 523.842,341.578 C 523.642,341.578 523.559,341.75 523.559,341.915"
   id="path3749" />

          <path
   style="fill:#ffffff;fill-rule:evenodd;stroke:none"
   d="M 524.869,341.506 L 524.978,341.506 L 524.978,342.232 L 525.251,342.232 L 525.251,342.324 L 524.597,342.324 L 524.597,342.232 L 524.869,342.232 L 524.869,341.506 z "
   id="path3751" />

          <path
   style="fill:#ffffff;fill-rule:evenodd;stroke:none"
   d="M 525.341,341.506 L 525.45,341.506 L 525.45,341.881 L 525.881,341.881 L 525.881,341.506 L 525.989,341.506 L 525.989,342.324 L 525.881,342.324 L 525.881,341.972 L 525.45,341.972 L 525.45,342.324 L 525.341,342.324 L 525.341,341.506 z "
   id="path3753" />

          <path
   style="fill:#ffffff;fill-rule:evenodd;stroke:none"
   d="M 526.168,341.506 L 526.736,341.506 L 526.736,341.598 L 526.277,341.598 L 526.277,341.881 L 526.702,341.881 L 526.702,341.972 L 526.277,341.972 L 526.277,342.232 L 526.732,342.232 L 526.732,342.324 L 526.168,342.324 L 526.168,341.506 z "
   id="path3755" />

          <path
   style="fill:#ffffff;fill-rule:evenodd;stroke:none"
   d="M 534.747,341.947 L 534.747,342.232 L 535.017,342.232 C 535.119,342.232 535.163,342.173 535.163,342.093 C 535.163,341.973 535.076,341.947 534.974,341.947 L 534.747,341.947 z M 534.638,341.506 L 534.747,341.506 L 534.747,341.855 L 535.013,341.855 C 535.118,341.855 535.137,341.788 535.149,341.708 C 535.165,341.628 535.148,341.54 535.179,341.506 L 535.3,341.506 C 535.254,341.562 535.259,341.652 535.252,341.732 C 535.244,341.812 535.224,341.882 535.129,341.9 L 535.129,341.903 C 535.228,341.93 535.271,342.011 535.271,342.11 C 535.271,342.24 535.176,342.324 535.023,342.324 L 534.638,342.324 L 534.638,341.506 z "
   id="path3757" />

          <path
   style="fill:#ffffff;fill-rule:evenodd;stroke:none"
   d="M 535.376,341.915 C 535.376,341.693 535.508,341.487 535.768,341.487 C 536.028,341.487 536.16,341.693 536.16,341.915 C 536.16,342.137 536.028,342.343 535.768,342.343 C 535.508,342.343 535.376,342.137 535.376,341.915 M 535.485,341.915 C 535.485,342.08 535.569,342.252 535.768,342.252 C 535.967,342.252 536.051,342.08 536.051,341.915 C 536.051,341.75 535.967,341.578 535.768,341.578 C 535.569,341.578 535.485,341.75 535.485,341.915"
   id="path3759" />

          <path
   style="fill:#ffffff;fill-rule:evenodd;stroke:none"
   d="M 536.943,342.324 L 536.819,342.324 L 536.58,341.935 L 536.335,342.324 L 536.205,342.324 L 536.521,341.841 L 536.521,341.506 L 536.63,341.506 L 536.63,341.841 L 536.943,342.324 z "
   id="path3761" />

          <path
   style="fill:#ffffff;fill-rule:evenodd;stroke:none"
   d="M 536.852,341.506 L 536.964,341.506 L 537.056,341.752 L 537.402,341.752 L 537.491,341.506 L 537.611,341.506 L 537.292,342.324 L 537.172,342.324 L 536.852,341.506 z M 537.229,342.225 L 537.231,342.225 L 537.367,341.844 L 537.09,341.844 L 537.229,342.225 z "
   id="path3763" />

          <path
   style="fill:#ffffff;fill-rule:evenodd;stroke:none"
   d="M 537.691,341.506 L 538.233,341.506 L 538.233,341.598 L 537.8,341.598 L 537.8,342.324 L 537.691,342.324 L 537.691,341.506 z "
   id="path3765" />

          <path
   style="fill:#ffffff;fill-rule:evenodd;stroke:none"
   d="M 538.646,341.506 L 538.927,341.506 C 539.199,341.506 539.32,341.661 539.32,341.935 C 539.32,342.198 539.179,342.324 538.927,342.324 L 538.646,342.324 L 538.646,341.506 z M 538.755,342.232 L 538.938,342.232 C 539.139,342.232 539.211,342.114 539.211,341.92 C 539.211,341.618 539.01,341.598 538.936,341.598 L 538.755,341.598 L 538.755,342.232 z "
   id="path3767" />

          <path
   style="fill:#ffffff;fill-rule:evenodd;stroke:none"
   d="M 539.355,341.506 L 539.467,341.506 L 539.559,341.752 L 539.905,341.752 L 539.994,341.506 L 540.114,341.506 L 539.795,342.324 L 539.674,342.324 L 539.355,341.506 z M 539.732,342.225 L 539.734,342.225 L 539.87,341.844 L 539.593,341.844 L 539.732,342.225 z "
   id="path3769" />

          <path
   style="fill:#ffffff;fill-rule:evenodd;stroke:none"
   d="M 540.193,341.506 L 540.296,341.506 L 540.296,342.162 L 540.298,342.162 L 540.725,341.506 L 540.845,341.506 L 540.845,342.324 L 540.742,342.324 L 540.742,341.661 L 540.739,341.661 L 540.309,342.324 L 540.193,342.324 L 540.193,341.506 z "
   id="path3771" />

          <path
   style="fill:#ffffff;fill-rule:evenodd;stroke:none"
   d="M 541.025,341.506 L 541.134,341.506 L 541.134,342.323 L 541.025,342.323 L 541.025,341.506 z "
   id="path3773" />

          <path
   style="fill:#ffffff;fill-rule:evenodd;stroke:none"
   d="M 541.893,342.085 C 541.886,342.264 541.759,342.343 541.592,342.343 C 541.443,342.343 541.296,342.27 541.296,342.104 C 541.296,341.954 541.427,341.916 541.558,341.888 C 541.688,341.859 541.819,341.839 541.819,341.727 C 541.819,341.609 541.71,341.578 541.611,341.578 C 541.488,341.578 541.373,341.638 541.373,341.775 L 541.27,341.775 C 541.27,341.576 541.425,341.487 541.608,341.487 C 541.757,341.487 541.927,341.557 541.927,341.731 C 541.927,341.891 541.797,341.937 541.667,341.967 C 541.535,341.996 541.404,342.011 541.404,342.112 C 541.404,342.218 541.496,342.252 541.587,342.252 C 541.7,342.252 541.777,342.201 541.79,342.085 L 541.893,342.085 z "
   id="path3775" />

          <path
   style="fill:#ffffff;fill-rule:evenodd;stroke:none"
   d="M 542.059,341.506 L 542.168,341.506 L 542.168,341.881 L 542.598,341.881 L 542.598,341.506 L 542.707,341.506 L 542.707,342.324 L 542.598,342.324 L 542.598,341.972 L 542.168,341.972 L 542.168,342.324 L 542.059,342.324 L 542.059,341.506 z "
   id="path3777" />

          <path
   style="fill:#ffffff;fill-rule:evenodd;stroke:none"
   d="M 543.887,342.078 C 543.862,342.252 543.722,342.343 543.551,342.343 C 543.299,342.343 543.164,342.15 543.164,341.913 C 543.164,341.675 543.287,341.487 543.542,341.487 C 543.748,341.487 543.875,341.611 543.896,341.814 L 543.787,341.814 C 543.776,341.679 543.694,341.578 543.551,341.578 C 543.355,341.578 543.273,341.734 543.273,341.921 C 543.273,342.091 543.355,342.252 543.55,342.252 C 543.663,342.252 543.756,342.193 543.779,342.078 L 543.887,342.078 z "
   id="path3779" />

          <path
   style="fill:#ffffff;fill-rule:evenodd;stroke:none"
   d="M 543.985,341.915 C 543.985,341.693 544.117,341.487 544.376,341.487 C 544.636,341.487 544.768,341.693 544.768,341.915 C 544.768,342.137 544.636,342.343 544.376,342.343 C 544.117,342.343 543.985,342.137 543.985,341.915 M 544.094,341.915 C 544.094,342.08 544.177,342.252 544.376,342.252 C 544.576,342.252 544.659,342.08 544.659,341.915 C 544.659,341.75 544.576,341.578 544.376,341.578 C 544.177,341.578 544.094,341.75 544.094,341.915"
   id="path3781" />

          <path
   style="fill:#ffffff;fill-rule:evenodd;stroke:none"
   d="M 545.553,342.324 L 545.445,342.324 L 545.445,341.802 C 545.445,341.658 545.369,341.578 545.231,341.578 C 545.087,341.578 545.005,341.658 545.005,341.802 L 545.005,342.324 L 544.896,342.324 L 544.896,341.802 C 544.896,341.584 545.021,341.487 545.231,341.487 C 545.435,341.487 545.553,341.596 545.553,341.802 L 545.553,342.324 z "
   id="path3783" />

          <path
   style="fill:#ffffff;fill-rule:evenodd;stroke:none"
   d="M 545.836,341.947 L 545.836,342.232 L 546.106,342.232 C 546.208,342.232 546.252,342.173 546.252,342.093 C 546.252,341.973 546.165,341.947 546.063,341.947 L 545.836,341.947 z M 545.727,341.506 L 545.836,341.506 L 545.836,341.855 L 546.102,341.855 C 546.207,341.855 546.227,341.788 546.238,341.708 C 546.254,341.628 546.237,341.54 546.268,341.506 L 546.389,341.506 C 546.343,341.562 546.348,341.652 546.341,341.732 C 546.333,341.812 546.314,341.882 546.218,341.9 L 546.218,341.903 C 546.317,341.93 546.36,342.011 546.36,342.11 C 546.36,342.24 546.265,342.324 546.112,342.324 L 545.727,342.324 L 545.727,341.506 z "
   id="path3785" />

          <path
   style="fill:#ffffff;fill-rule:evenodd;stroke:none"
   d="M 546.677,341.506 L 546.785,341.506 L 546.785,342.232 L 547.058,342.232 L 547.058,342.324 L 546.404,342.324 L 546.404,342.232 L 546.677,342.232 L 546.677,341.506 z "
   id="path3787" />

          <path
   style="fill:#ffffff;fill-rule:nonzero;stroke:none"
   d="M 553.958,339.242 C 553.958,339.544 554.186,339.772 554.478,339.772 C 554.766,339.772 554.994,339.544 554.994,339.242 C 554.994,338.935 554.766,338.708 554.478,338.708 C 554.186,338.708 553.958,338.935 553.958,339.242 M 554.478,338.602 C 554.825,338.602 555.122,338.872 555.122,339.242 C 555.122,339.608 554.825,339.877 554.478,339.877 C 554.126,339.877 553.83,339.608 553.83,339.242 C 553.83,338.872 554.126,338.602 554.478,338.602 M 554.342,339.192 L 554.47,339.192 L 554.665,338.872 L 554.79,338.872 L 554.58,339.197 C 554.688,339.21 554.771,339.268 554.771,339.399 C 554.771,339.544 554.685,339.608 554.511,339.608 L 554.231,339.608 L 554.231,338.872 L 554.342,338.872 L 554.342,339.192 z M 554.342,339.286 L 554.342,339.514 L 554.494,339.514 C 554.572,339.514 554.655,339.497 554.655,339.406 C 554.655,339.293 554.57,339.286 554.476,339.286 L 554.342,339.286 z "
   id="path3789" />

          <path
   style="fill:none;stroke:#ffffff;stroke-width:0;stroke-linecap:round;stroke-linejoin:miter;stroke-miterlimit:3.86400008"
   d="M 553.958,339.242 C 553.958,339.544 554.186,339.772 554.478,339.772 C 554.766,339.772 554.994,339.544 554.994,339.242 C 554.994,338.935 554.766,338.708 554.478,338.708 C 554.186,338.708 553.958,338.935 553.958,339.242 z M 554.478,338.602 C 554.825,338.602 555.122,338.872 555.122,339.242 C 555.122,339.608 554.825,339.877 554.478,339.877 C 554.126,339.877 553.83,339.608 553.83,339.242 C 553.83,338.872 554.126,338.602 554.478,338.602 z M 554.342,339.192 L 554.47,339.192 L 554.665,338.872 L 554.79,338.872 L 554.58,339.197 C 554.688,339.21 554.771,339.268 554.771,339.399 C 554.771,339.544 554.685,339.608 554.511,339.608 L 554.231,339.608 L 554.231,338.872 L 554.342,338.872 L 554.342,339.192 z M 554.342,339.286 L 554.342,339.514 L 554.494,339.514 C 554.572,339.514 554.655,339.497 554.655,339.406 C 554.655,339.293 554.57,339.286 554.476,339.286 L 554.342,339.286 z "
   stroke-miterlimit="3.864"
   shape-rendering="crispEdges"
   id="path3791" />

          <path
   style="fill:#ffffff;fill-rule:evenodd;stroke:none"
   d="M 553.605,334.466 L 552.81,334.46 C 552.611,334.423 552.611,334.785 552.412,334.634 C 552.081,334.357 551.604,334.345 551.171,334.435 C 550.616,334.604 550.273,335.159 550.188,335.713 C 550.062,336.605 550.14,337.617 550.797,338.184 C 550.845,338.208 550.875,338.256 550.93,338.28 C 551.406,338.552 551.912,338.564 552.442,338.377 C 552.484,338.552 552.49,338.672 552.466,338.859 C 552.46,339.112 552.304,339.311 552.159,339.516 C 552.213,339.582 552.292,339.594 552.37,339.618 C 552.46,339.636 552.563,339.661 552.629,339.679 C 552.653,339.715 552.707,339.703 552.731,339.709 C 552.936,339.775 553.081,339.811 553.304,339.847 L 553.34,339.811 L 553.346,335.249 C 553.376,334.972 553.467,334.725 553.635,334.52 C 553.648,334.484 553.617,334.484 553.605,334.466 M 552.177,335.315 C 552.008,335.129 551.725,335.111 551.49,335.189 C 551.074,335.364 551.044,335.87 551.026,336.304 C 551.05,336.828 551.056,337.431 551.532,337.672 C 551.725,337.744 552.002,337.756 552.177,337.605 C 552.593,337.184 552.436,336.497 552.448,335.894 C 552.394,335.677 552.352,335.472 552.177,335.315 M 550.038,334.484 L 548.615,334.49 L 548.573,334.508 C 548.645,334.634 548.754,334.713 548.79,334.857 C 548.832,335.002 548.886,335.141 548.886,335.297 L 548.88,337.184 C 548.862,337.413 548.742,337.648 548.525,337.72 C 548.38,337.78 548.254,337.738 548.109,337.702 C 547.705,337.503 547.633,337.039 547.639,336.593 C 547.699,335.87 547.47,335.062 547.952,334.526 L 547.952,334.496 C 547.175,334.472 546.343,334.478 545.56,334.49 C 545.457,334.496 545.403,334.574 545.355,334.652 C 545.355,334.689 545.337,334.773 545.276,334.737 C 544.903,334.351 544.318,334.345 543.8,334.46 C 543.402,334.58 543.113,334.936 543.065,335.357 C 542.998,335.828 543.233,336.262 543.583,336.491 C 544.029,336.786 544.583,336.87 545.029,337.141 C 545.144,337.208 545.204,337.352 545.174,337.491 C 545.144,337.66 544.951,337.744 544.812,337.78 C 544.198,337.798 543.752,337.455 543.426,337.003 L 543.372,336.985 C 543.354,337.467 543.348,337.937 543.384,338.437 C 543.734,338.202 544.101,338.504 544.481,338.485 C 544.963,338.558 545.547,338.485 545.861,338.076 C 546.066,337.786 546.066,337.407 546.084,337.051 L 546.096,335.303 C 546.144,335.02 546.168,334.719 546.403,334.52 C 546.59,334.659 546.693,334.888 546.735,335.122 L 546.753,337.268 C 546.741,337.617 546.663,337.949 546.428,338.19 C 546.439,338.275 546.554,338.256 546.614,338.293 C 546.922,338.347 547.169,338.479 547.482,338.509 C 547.585,338.461 547.446,338.106 547.663,338.287 C 548.073,338.594 548.682,338.624 549.17,338.401 C 549.628,338.184 549.772,337.66 549.766,337.178 L 549.772,335.243 C 549.784,334.954 549.935,334.725 550.086,334.502 L 550.038,334.484 z M 544.734,335.219 C 544.577,335.129 544.288,335.08 544.119,335.207 C 544.041,335.249 543.981,335.34 543.969,335.436 C 543.933,335.641 544.029,335.804 544.168,335.906 C 544.336,336.015 544.511,336.081 544.704,336.147 C 544.77,336.189 544.861,336.207 544.939,336.237 C 545.011,336.268 545.072,336.328 545.168,336.328 C 545.228,336.153 545.174,335.948 545.138,335.773 C 545.083,335.544 544.939,335.333 544.734,335.219 M 537.55,335.279 C 537.423,334.888 537.068,334.538 536.67,334.435 C 536.055,334.267 535.344,334.435 534.947,334.936 C 534.543,335.49 534.555,336.328 534.645,337.033 C 534.76,337.624 535.085,338.262 535.706,338.413 C 536.188,338.552 536.839,338.497 537.213,338.076 C 537.616,337.527 537.598,336.78 537.574,336.075 C 536.923,336.141 536.23,336.099 535.549,336.111 C 535.35,336.081 535.531,335.906 535.507,335.797 C 535.61,335.496 535.887,335.225 536.224,335.207 C 536.761,335.141 537.219,335.376 537.604,335.701 C 537.665,335.665 537.61,335.575 537.616,335.508 C 537.592,335.436 537.586,335.352 537.55,335.279 M 536.694,336.822 L 535.543,336.834 C 535.465,336.864 535.507,336.955 535.501,337.027 C 535.519,337.31 535.652,337.581 535.887,337.708 C 536.074,337.786 536.291,337.786 536.465,337.678 C 536.736,337.503 536.73,337.16 536.743,336.858 L 536.694,336.822 z M 534.344,335.394 C 534.235,334.924 533.862,334.538 533.404,334.435 C 532.861,334.285 532.223,334.399 531.801,334.827 C 531.306,335.376 531.337,336.249 531.397,337.003 C 531.511,337.612 531.789,338.178 532.391,338.401 C 532.825,338.546 533.386,338.528 533.777,338.256 C 534.41,337.792 534.332,336.882 534.35,336.147 L 534.332,336.063 C 534.247,336.069 534.151,336.117 534.061,336.111 L 532.259,336.099 C 532.162,336.015 532.259,335.9 532.259,335.797 C 532.349,335.532 532.566,335.303 532.843,335.231 C 533.428,335.122 533.964,335.352 534.38,335.713 C 534.41,335.635 534.386,335.526 534.368,335.442 L 534.344,335.394 z M 533.428,336.822 C 533.018,336.834 532.668,336.804 532.265,336.846 C 532.229,336.991 532.271,337.16 532.307,337.304 C 532.391,337.533 532.602,337.762 532.867,337.762 C 533.066,337.768 533.313,337.702 533.404,337.497 C 533.476,337.298 533.53,337.075 533.494,336.852 L 533.428,336.822 z M 523.008,334.453 C 522.309,334.466 521.459,334.453 520.76,334.466 C 520.712,334.484 520.651,334.49 520.621,334.532 C 520.549,334.574 520.591,334.719 520.483,334.707 C 520.073,334.327 519.458,334.303 518.922,334.466 C 518.548,334.622 518.307,334.96 518.271,335.364 C 518.198,335.9 518.536,336.34 518.94,336.557 C 519.349,336.792 519.832,336.852 520.241,337.105 C 520.35,337.19 520.422,337.316 520.392,337.461 C 520.374,337.599 520.26,337.678 520.145,337.738 C 519.524,337.847 519.042,337.467 518.699,337.057 C 518.669,337.009 518.65,336.973 518.596,336.949 C 518.578,337.419 518.578,337.919 518.596,338.407 C 518.65,338.425 518.675,338.347 518.735,338.341 C 518.94,338.299 519.127,338.353 519.325,338.407 C 519.88,338.516 520.561,338.564 521.013,338.142 C 521.115,338.045 521.176,337.907 521.218,337.774 L 521.242,337.726 C 521.35,336.924 521.278,336.141 521.308,335.285 C 521.35,334.996 521.387,334.707 521.597,334.496 C 521.736,334.562 521.808,334.701 521.857,334.845 C 522.013,335.255 521.929,335.779 521.959,336.225 C 521.941,337.099 521.995,337.907 521.965,338.799 C 521.929,339.064 521.857,339.305 521.67,339.492 C 521.682,339.582 521.802,339.552 521.857,339.6 C 522.176,339.667 522.495,339.787 522.821,339.835 L 522.845,339.811 L 522.833,338.052 L 522.809,335.466 C 522.773,335.086 522.857,334.755 523.086,334.496 C 523.104,334.423 523.038,334.478 523.008,334.453 M 519.856,335.153 C 519.675,335.098 519.416,335.056 519.277,335.219 C 519.163,335.327 519.145,335.496 519.199,335.653 C 519.223,335.761 519.319,335.797 519.38,335.882 C 519.422,335.9 519.482,335.93 519.524,335.972 C 519.795,336.105 520.115,336.171 520.374,336.316 C 520.477,336.051 520.332,335.719 520.223,335.466 C 520.133,335.333 520.012,335.213 519.856,335.153 M 514.203,334.49 C 513.697,334.249 512.889,334.231 512.443,334.616 C 511.852,335.122 511.774,335.978 511.84,336.78 C 511.913,337.19 512.027,337.605 512.292,337.907 C 512.66,338.401 513.365,338.516 513.95,338.395 C 514.456,338.293 514.842,337.877 514.98,337.389 C 515.077,337.069 515.125,336.756 515.113,336.388 C 515.083,335.629 514.884,334.833 514.203,334.49 M 514.179,335.804 C 514.149,335.671 514.106,335.526 514.034,335.412 L 514.034,335.37 C 513.986,335.364 513.968,335.315 513.938,335.279 C 513.769,335.104 513.467,335.038 513.214,335.111 C 512.871,335.231 512.744,335.623 512.708,335.972 C 512.69,336.448 512.69,336.949 512.907,337.346 C 513.052,337.569 513.317,337.708 513.606,337.666 C 513.853,337.63 514.046,337.443 514.136,337.232 C 514.281,336.804 514.251,336.358 514.215,335.912 L 514.179,335.804 z M 511.864,334.429 C 511.521,334.393 511.25,334.435 510.924,334.423 C 510.798,334.448 510.653,334.508 510.587,334.61 C 510.394,334.948 510.557,335.4 510.478,335.797 C 510.436,336.081 510.376,336.394 510.099,336.527 C 509.821,336.683 509.472,336.695 509.14,336.671 C 509.074,336.653 509.002,336.653 508.941,336.617 C 508.905,336.183 508.923,335.713 508.899,335.315 C 508.929,335.183 508.899,335.008 508.972,334.888 C 509.026,334.725 509.14,334.58 509.219,334.448 C 508.845,334.387 508.483,334.435 508.074,334.423 C 507.923,334.429 507.736,334.411 507.591,334.435 C 507.616,334.526 507.706,334.604 507.748,334.689 C 507.796,334.773 507.839,334.875 507.875,334.972 C 507.977,335.749 507.917,336.581 507.953,337.34 C 507.911,337.997 508.092,338.841 507.821,339.486 C 507.778,339.558 507.706,339.636 507.646,339.709 L 507.646,339.745 C 508.399,339.709 509.122,339.751 509.906,339.769 C 510.551,339.769 511.213,339.522 511.503,338.919 C 511.732,338.443 511.629,337.798 511.316,337.425 C 511.171,337.286 511.069,337.184 510.888,337.105 C 510.87,337.093 510.828,337.075 510.828,337.039 C 511.455,336.677 511.455,335.882 511.527,335.207 C 511.581,334.942 511.641,334.646 511.864,334.46 L 511.864,334.429 z M 510.297,337.714 C 509.9,337.521 509.448,337.503 508.984,337.563 L 508.941,337.605 C 508.947,337.961 508.929,338.359 508.984,338.666 C 509.195,339.046 509.604,338.907 509.984,338.931 C 510.189,338.889 510.418,338.835 510.502,338.642 C 510.635,338.485 510.587,338.232 510.575,338.045 C 510.502,337.913 510.412,337.798 510.297,337.714"
   id="path3793" />

          <path
   style="fill:#b7925d;fill-rule:evenodd;stroke:none"
   d="M 534.525,344.156 C 534.549,344.102 534.543,344.048 534.513,343.994 C 534.495,343.934 534.428,343.988 534.404,343.934 C 534.344,343.861 534.296,343.801 534.223,343.741 C 534.266,343.68 534.38,343.68 534.392,343.596 C 534.392,343.512 534.278,343.518 534.205,343.506 C 533.976,343.427 533.795,343.313 533.639,343.132 C 533.693,343.017 533.597,342.927 533.536,342.855 C 533.362,342.861 533.38,342.644 533.331,342.535 C 533.319,342.457 533.211,342.487 533.151,342.457 C 533.127,342.457 533.108,342.433 533.096,342.415 C 533.139,342.336 533.301,342.379 533.247,342.234 C 533.199,342.168 533.078,342.222 533.09,342.12 L 533.247,341.987 C 533.235,341.903 533.283,341.788 533.205,341.728 C 533.181,341.686 533.114,341.692 533.096,341.631 C 533.108,341.559 533.217,341.565 533.271,341.505 C 533.289,341.396 533.253,341.318 533.157,341.294 C 532.126,341.029 530.945,341.101 529.842,341.119 C 529.806,341.107 529.77,341.125 529.715,341.119 C 529.565,341.143 529.426,341.095 529.287,341.161 C 528.866,341.155 528.456,341.209 528.064,341.324 C 528.028,341.366 527.998,341.42 528.022,341.481 C 528.052,341.541 528.124,341.541 528.173,341.571 C 528.191,341.595 528.203,341.625 528.185,341.655 C 528.118,341.668 528.058,341.71 528.028,341.77 C 528.04,341.891 528.01,342.059 528.148,342.089 C 528.185,342.077 528.185,342.113 528.197,342.132 C 528.203,342.174 528.173,342.18 528.142,342.198 C 528.112,342.168 528.088,342.216 528.058,342.21 C 528.028,342.246 528.034,342.3 528.04,342.343 C 528.088,342.397 528.173,342.367 528.179,342.439 C 528.124,342.493 528.034,342.445 527.98,342.499 C 527.938,342.626 527.956,342.825 527.781,342.843 C 527.733,342.921 527.606,343.017 527.678,343.114 L 527.678,343.144 C 527.486,343.361 527.208,343.506 526.913,343.548 C 526.907,343.578 526.889,343.632 526.931,343.644 C 526.967,343.68 527.009,343.686 527.052,343.723 C 526.997,343.807 526.907,343.855 526.847,343.946 C 526.774,343.946 526.762,343.994 526.72,344.048 C 526.726,344.126 526.738,344.193 526.714,344.271 C 526.654,344.325 526.654,344.385 526.642,344.464 C 526.72,344.5 526.726,344.608 526.72,344.693 C 526.678,344.741 526.726,344.795 526.732,344.844 C 526.805,344.904 526.913,344.922 526.949,345.024 C 526.943,345.109 526.985,345.163 527.046,345.193 C 527.094,345.259 527.172,345.175 527.226,345.235 C 527.263,345.259 527.335,345.265 527.353,345.32 C 527.353,345.386 527.437,345.38 527.479,345.41 C 527.528,345.428 527.528,345.38 527.57,345.38 C 527.715,345.356 527.763,345.543 527.907,345.494 C 527.962,345.452 527.998,345.392 528.07,345.44 C 528.155,345.47 528.173,345.549 528.197,345.627 C 528.251,345.645 528.305,345.681 528.378,345.645 C 528.438,345.657 528.498,345.687 528.546,345.717 C 528.528,345.79 528.607,345.802 528.649,345.814 C 528.697,345.838 528.739,345.802 528.763,345.772 C 528.848,345.772 528.938,345.784 528.98,345.844 C 529.113,345.91 529.149,345.717 529.281,345.754 C 529.336,345.826 529.396,345.778 529.462,345.754 C 529.486,345.693 529.541,345.645 529.607,345.627 C 529.679,345.633 529.758,345.651 529.806,345.585 C 529.824,345.494 529.896,345.464 529.969,345.428 C 530.089,345.512 530.155,345.223 530.27,345.368 C 530.318,345.374 530.39,345.38 530.439,345.416 C 530.457,345.549 530.21,345.573 530.3,345.711 C 530.36,345.736 530.396,345.772 530.451,345.808 C 530.493,345.862 530.529,345.934 530.535,346.007 C 530.577,346.055 530.643,346.037 530.704,346.031 C 530.794,345.952 530.782,345.79 530.915,345.736 C 530.951,345.729 530.993,345.723 531.005,345.681 C 530.999,345.615 530.951,345.561 530.897,345.525 C 530.848,345.543 530.86,345.482 530.848,345.452 C 530.836,345.404 530.891,345.392 530.921,345.38 C 530.999,345.368 531.041,345.35 531.108,345.32 C 531.192,345.368 531.252,345.494 531.379,345.452 C 531.517,345.464 531.511,345.699 531.674,345.627 C 531.807,345.627 531.795,345.838 531.957,345.802 C 532.012,345.76 532.096,345.784 532.156,345.808 C 532.186,345.85 532.241,345.88 532.295,345.88 C 532.343,345.868 532.361,345.844 532.403,345.814 C 532.53,345.736 532.638,345.904 532.753,345.808 C 532.765,345.717 532.861,345.723 532.916,345.681 C 532.982,345.687 533.018,345.711 533.078,345.669 C 533.139,345.603 533.151,345.494 533.247,345.458 C 533.368,345.422 533.386,345.585 533.5,345.519 C 533.536,345.507 533.554,345.482 533.566,345.452 C 533.699,345.314 533.916,345.525 533.964,345.302 C 534.037,345.265 534.091,345.175 534.169,345.211 C 534.242,345.199 534.314,345.163 534.326,345.085 C 534.326,344.994 534.41,344.958 534.458,344.91 C 534.513,344.91 534.573,344.886 534.579,344.832 C 534.597,344.729 534.537,344.621 534.585,344.512 C 534.663,344.494 534.657,344.416 534.645,344.355 C 534.555,344.337 534.561,344.229 534.525,344.156 M 534.055,343.723 C 533.988,343.759 533.91,343.759 533.85,343.723 C 533.723,343.59 533.627,343.463 533.585,343.277 L 533.53,343.222 C 533.47,343.265 533.512,343.379 533.422,343.391 C 533.283,343.301 533.277,343.12 533.205,342.987 C 533.145,343.024 533.078,343.09 533.006,343.072 C 533.012,343.138 533.06,343.192 533.084,343.259 C 533.078,343.361 533.133,343.482 533.042,343.542 C 532.982,343.548 532.952,343.482 532.898,343.488 L 532.91,343.56 C 533.078,343.729 533.145,343.946 533.35,344.066 C 533.338,344.163 533.175,344.06 533.235,344.187 C 533.35,344.247 533.277,344.422 533.428,344.44 C 533.464,344.476 533.482,344.536 533.452,344.578 C 533.38,344.615 533.446,344.711 533.422,344.789 C 533.494,344.832 533.518,344.916 533.494,344.994 C 533.386,345.06 533.41,345.157 533.386,345.259 C 533.434,345.308 533.5,345.253 533.554,345.247 C 533.699,345.187 533.844,345.097 533.844,344.922 C 533.94,344.813 534.127,345.079 534.181,344.868 C 534.199,344.807 534.187,344.741 534.145,344.693 C 534.091,344.663 534.043,344.645 534.073,344.572 C 534.163,344.476 534.344,344.476 534.35,344.319 C 534.392,344.048 534.217,343.855 534.055,343.723 M 533.259,342.746 C 533.199,342.662 533.145,342.529 533.024,342.553 C 532.976,342.596 532.994,342.698 533.012,342.764 C 533.012,342.855 533.12,342.795 533.151,342.861 C 533.169,342.807 533.307,342.837 533.259,342.746 M 533.06,344.108 C 532.97,344.096 532.855,344.138 532.795,344.042 C 532.687,343.909 532.711,343.711 532.632,343.566 C 532.566,343.596 532.542,343.686 532.488,343.747 C 532.439,343.801 532.361,343.771 532.331,343.717 C 532.325,343.59 532.174,343.668 532.156,343.542 C 532.132,343.397 532.126,343.216 532.253,343.132 C 532.235,343.096 532.253,343.048 532.295,343.03 C 532.367,342.993 532.397,343.06 532.47,343.06 C 532.476,342.963 532.385,342.885 532.337,342.807 C 532.283,342.758 532.241,342.71 532.174,342.704 C 532.102,342.656 532.03,342.674 531.945,342.692 C 531.843,342.746 531.758,342.867 531.746,342.993 C 531.722,343.144 531.939,343.084 531.909,343.247 C 531.897,343.313 531.861,343.367 531.801,343.391 C 531.753,343.409 531.698,343.391 531.65,343.367 C 531.59,343.325 531.584,343.234 531.602,343.162 C 531.65,343.132 531.662,343.066 531.638,343.024 C 531.554,342.885 531.433,342.746 531.258,342.752 C 531.102,342.734 530.951,342.837 530.86,342.963 C 530.812,343.06 530.752,343.174 530.764,343.295 C 530.848,343.283 530.909,343.168 531.023,343.18 C 531.083,343.186 531.156,343.21 531.186,343.271 C 531.168,343.343 531.246,343.367 531.288,343.379 C 531.409,343.439 531.439,343.578 531.463,343.711 C 531.457,343.765 531.427,343.831 531.367,343.855 C 531.337,343.861 531.288,343.837 531.27,343.873 C 531.294,343.928 531.264,343.994 531.21,344.012 C 531.09,344.036 530.999,343.952 530.909,343.891 C 530.885,343.891 530.873,343.909 530.879,343.934 C 530.987,344.072 531.102,344.247 531.041,344.434 C 531.005,344.506 530.915,344.476 530.854,344.482 C 530.885,344.596 530.873,344.735 530.77,344.795 C 530.764,344.85 530.788,344.88 530.824,344.898 C 531.445,344.91 532.078,344.988 532.656,345.187 C 532.675,345.217 532.693,345.181 532.723,345.193 C 532.819,345.223 532.916,345.253 533.024,345.247 C 533.06,345.211 533.024,345.157 533.024,345.115 C 532.982,345.042 532.819,345.085 532.861,344.97 C 532.934,344.844 533.133,344.898 533.169,344.735 C 533.229,344.524 533.169,344.289 533.06,344.108 M 532.753,342.59 C 532.687,342.565 532.65,342.578 532.59,342.596 C 532.512,342.656 532.53,342.776 532.548,342.861 C 532.59,342.897 532.554,342.975 532.614,342.993 C 532.62,342.945 532.65,342.915 532.687,342.891 C 532.759,342.891 532.825,342.945 532.904,342.957 C 532.922,342.897 532.988,342.831 532.934,342.77 C 532.879,342.692 532.837,342.626 532.753,342.59 M 532.885,341.655 C 532.843,341.613 532.771,341.637 532.723,341.661 C 532.693,341.716 532.656,341.782 532.693,341.842 C 532.729,341.866 532.789,341.921 532.843,341.878 C 532.879,341.854 532.904,341.83 532.922,341.794 C 532.934,341.74 532.91,341.698 532.885,341.655 M 532.831,341.951 C 532.729,341.933 532.699,342.029 532.662,342.089 C 532.65,342.174 532.699,342.216 532.759,342.24 C 532.825,342.222 532.916,342.204 532.916,342.113 C 532.891,342.059 532.922,341.951 532.831,341.951 M 532.843,341.378 C 532.325,341.288 531.795,341.288 531.294,341.27 C 531.264,341.288 531.222,341.27 531.18,341.27 C 530.222,341.276 529.396,341.252 528.474,341.372 C 528.456,341.378 528.45,341.396 528.456,341.414 C 529.342,341.529 530.312,341.499 531.204,341.523 C 531.427,341.505 531.638,341.523 531.891,341.499 C 532.192,341.481 532.536,341.481 532.843,341.408 L 532.843,341.378 z M 532.687,343.132 C 532.656,343.102 532.62,343.12 532.59,343.114 C 532.548,343.18 532.518,343.259 532.536,343.349 C 532.602,343.415 532.699,343.5 532.795,343.476 C 532.813,343.403 532.861,343.325 532.825,343.247 C 532.789,343.198 532.747,343.15 532.687,343.132 M 532.735,345.35 C 532.668,345.35 532.566,345.404 532.512,345.344 C 532.488,345.296 532.451,345.247 532.379,345.235 C 532.289,345.217 532.21,345.314 532.138,345.223 C 532.132,345.151 532.066,345.145 532.012,345.127 C 531.921,345.115 531.764,345.223 531.722,345.067 C 531.644,345.042 531.542,345.018 531.475,345.091 C 531.397,345.103 531.373,345.079 531.325,345.024 C 531.24,345.012 531.138,344.97 531.065,345.048 C 530.969,345.073 530.933,344.976 530.848,344.988 C 530.794,345.006 530.812,345.067 530.824,345.103 C 530.921,345.205 531.065,345.199 531.186,345.247 C 531.373,345.332 531.542,345.398 531.71,345.5 C 531.758,345.512 531.807,345.543 531.855,345.561 C 531.933,345.585 532.042,345.603 532.12,345.627 C 532.144,345.603 532.174,345.627 532.21,345.627 C 532.433,345.633 532.65,345.609 532.795,345.452 C 532.813,345.404 532.765,345.374 532.735,345.35 M 532.283,341.74 C 532.15,341.776 532.12,341.921 532.072,342.023 C 532.078,342.125 532.138,342.216 532.216,342.282 C 532.241,342.294 532.265,342.3 532.289,342.282 C 532.355,342.174 532.494,342.053 532.415,341.903 C 532.361,341.854 532.355,341.77 532.283,341.74 M 531.74,342.125 C 531.68,342.095 531.632,342.113 531.578,342.138 C 531.505,342.198 531.499,342.306 531.529,342.385 C 531.554,342.445 531.608,342.451 531.656,342.445 C 531.71,342.433 531.764,342.403 531.789,342.348 C 531.795,342.276 531.819,342.168 531.74,342.125 M 531.686,341.728 C 531.626,341.734 531.529,341.752 531.511,341.83 C 531.517,341.915 531.493,342.035 531.608,342.053 C 531.692,342.065 531.746,342.011 531.783,341.957 C 531.813,341.872 531.801,341.734 531.686,341.728 M 530.933,341.788 C 530.74,341.758 530.553,341.77 530.342,341.77 C 530.125,341.872 530.246,342.174 530.21,342.373 C 530.318,342.626 530.662,342.481 530.891,342.523 C 530.951,342.499 531.017,342.451 531.053,342.391 C 531.09,342.228 531.035,342.065 531.041,341.878 L 530.933,341.788 z M 530.77,343.421 C 530.692,343.397 530.625,343.403 530.565,343.397 C 530.511,343.421 530.445,343.427 530.427,343.5 C 530.451,343.62 530.366,343.813 530.535,343.849 C 530.643,343.837 530.812,343.885 530.854,343.747 C 530.836,343.632 530.921,343.463 530.77,343.421 M 530.427,344.615 C 530.415,344.566 530.463,344.53 530.439,344.482 C 530.384,344.476 530.3,344.506 530.258,344.452 C 530.179,344.373 530.246,344.265 530.258,344.181 C 530.282,344.072 530.402,344.018 530.421,343.903 C 530.318,343.873 530.258,344.012 530.137,344.006 C 530.089,344.012 530.059,343.976 530.029,343.946 C 530.065,343.783 529.818,343.867 529.836,343.704 C 529.866,343.566 529.878,343.409 530.029,343.355 C 530.161,343.367 530.053,343.18 530.191,343.174 C 530.294,343.126 530.409,343.21 530.481,343.271 C 530.487,343.301 530.505,343.313 530.535,343.307 C 530.577,343.108 530.415,342.975 530.33,342.849 C 530.312,342.855 530.294,342.843 530.294,342.825 C 530.149,342.734 529.981,342.722 529.836,342.813 C 529.758,342.897 529.601,342.993 529.661,343.138 C 529.715,343.174 529.715,343.271 529.691,343.325 C 529.637,343.379 529.547,343.403 529.474,343.379 C 529.402,343.343 529.402,343.247 529.414,343.174 C 529.432,343.096 529.553,343.108 529.541,343.005 C 529.511,342.837 529.42,342.692 529.257,342.656 C 529.052,342.656 528.914,342.825 528.835,342.999 L 528.835,343.024 C 528.896,343.011 528.944,342.951 529.004,342.993 C 529.107,343.005 529.004,343.156 529.119,343.15 C 529.185,343.277 529.185,343.403 529.149,343.542 C 529.107,343.644 528.95,343.59 528.968,343.711 C 528.938,343.753 528.872,343.777 528.835,343.747 C 528.757,343.704 528.739,343.632 528.685,343.56 C 528.613,343.614 528.685,343.753 528.613,343.819 C 528.619,343.915 528.57,343.994 528.522,344.054 C 528.414,344.175 528.227,344.018 528.197,344.223 C 528.142,344.41 528.022,344.675 528.203,344.826 C 528.275,344.874 528.402,344.868 528.383,344.994 C 528.323,345.018 528.251,345.036 528.221,345.103 C 528.227,345.157 528.221,345.265 528.305,345.223 C 528.884,345.097 529.438,344.934 530.047,344.916 L 530.529,344.88 C 530.619,344.759 530.396,344.735 530.427,344.615 M 530.402,344.988 C 530.342,344.994 530.306,345.079 530.24,345.042 C 530.198,344.988 530.113,345.012 530.059,345.018 C 530.035,345.048 529.999,345.073 529.95,345.085 C 529.878,345.079 529.812,345.006 529.727,345.055 C 529.697,345.109 529.619,345.169 529.553,345.133 C 529.504,345.036 529.426,345.139 529.354,345.127 C 529.336,345.205 529.263,345.205 529.197,345.229 C 529.149,345.241 529.149,345.175 529.101,345.175 C 529.022,345.211 528.884,345.181 528.872,345.308 C 528.818,345.32 528.727,345.386 528.685,345.308 C 528.631,345.308 528.564,345.326 528.528,345.374 C 528.54,345.464 528.6,345.519 528.685,345.537 C 529.312,345.802 529.854,345.277 530.439,345.151 C 530.469,345.121 530.481,345.091 530.493,345.055 C 530.511,344.982 530.439,345.006 530.402,344.988 M 529.715,341.752 C 529.637,341.746 529.553,341.722 529.517,341.806 C 529.511,341.903 529.492,342.041 529.613,342.065 C 529.655,342.059 529.734,342.083 529.77,342.047 C 529.806,341.969 529.836,341.794 529.715,341.752 M 529.697,342.138 C 529.631,342.12 529.541,342.144 529.517,342.204 C 529.486,342.27 529.511,342.343 529.523,342.409 C 529.571,342.481 529.649,342.451 529.721,342.457 C 529.764,342.433 529.794,342.391 529.8,342.336 C 529.8,342.258 529.788,342.162 529.697,342.138 M 529.052,341.74 L 529.004,341.752 C 528.932,341.866 528.781,342.011 528.89,342.156 C 528.956,342.204 528.926,342.355 529.052,342.33 C 529.131,342.258 529.185,342.174 529.221,342.077 C 529.179,341.957 529.167,341.812 529.052,341.74 M 528.721,343.072 C 528.649,343.102 528.558,343.126 528.51,343.198 C 528.492,343.271 528.48,343.397 528.546,343.439 C 528.607,343.457 528.673,343.415 528.727,343.379 C 528.835,343.295 528.781,343.15 528.721,343.072 M 528.715,342.608 C 528.661,342.59 528.576,342.584 528.528,342.62 C 528.462,342.674 528.39,342.728 528.359,342.807 C 528.383,342.849 528.359,342.921 528.42,342.933 C 528.498,342.939 528.552,342.843 528.637,342.891 C 528.655,342.927 528.679,342.981 528.727,342.957 C 528.781,342.867 528.793,342.68 528.715,342.608 M 528.582,341.655 C 528.54,341.631 528.486,341.607 528.426,341.619 C 528.347,341.661 528.365,341.788 528.383,341.866 C 528.444,341.891 528.522,341.975 528.594,341.903 C 528.643,341.83 528.655,341.722 528.582,341.655 M 528.54,341.993 C 528.498,341.969 528.42,341.981 528.383,342.011 C 528.383,342.095 528.335,342.216 528.438,342.264 C 528.498,342.258 528.552,342.306 528.594,342.258 C 528.667,342.174 528.607,342.053 528.54,341.993 M 528.42,343.463 C 528.347,343.463 528.311,343.536 528.245,343.494 C 528.197,343.439 528.281,343.379 528.233,343.331 C 528.173,343.21 528.438,343.024 528.179,343.024 C 528.179,342.999 528.13,342.975 528.112,342.999 C 528.052,343.126 528.022,343.271 527.883,343.355 C 527.847,343.361 527.847,343.331 527.817,343.313 L 527.811,343.247 L 527.775,343.247 C 527.642,343.415 527.648,343.747 527.365,343.747 C 527.335,343.717 527.287,343.656 527.238,343.704 C 527.082,343.855 526.859,344.072 526.955,344.337 C 527.009,344.446 527.148,344.464 527.22,344.56 C 527.251,344.675 527.07,344.657 527.088,344.777 C 527.082,344.838 527.124,344.874 527.136,344.916 C 527.251,345 527.395,344.753 527.443,344.952 C 527.467,345.151 527.66,345.193 527.835,345.235 C 527.986,345.211 527.811,345.091 527.847,344.994 C 527.775,344.958 527.757,344.862 527.787,344.795 C 527.901,344.759 527.847,344.639 527.883,344.572 C 527.823,344.53 527.859,344.464 527.871,344.41 C 528.016,344.373 528.022,344.211 528.1,344.114 C 528.058,344.09 527.968,344.078 527.962,344.012 C 528.173,343.903 528.269,343.668 528.42,343.512 L 528.42,343.463 z M 528.257,342.535 C 528.185,342.535 528.124,342.608 528.088,342.668 C 528.088,342.704 528.04,342.716 528.058,342.764 C 528.142,342.758 528.191,342.849 528.275,342.782 C 528.305,342.716 528.378,342.572 528.257,342.535"
   id="path3795" />

        </g>

      
    </g>
</svg>
