<svg width="202" height="45" viewBox="0 0 202 45" fill="none" xmlns="http://www.w3.org/2000/svg">
<path d="M159.238 10.3931H155.806V24.3724V24.2483L154.224 21.9322L152.169 18.9337L148.594 13.7638L147.525 12.2335L147.052 11.7166L146.867 11.4684C146.545 11.092 146.136 10.8009 145.676 10.6205C145.302 10.4735 144.905 10.3964 144.504 10.3931H143.374V30.9071H146.867V16.9691L155.087 29.0873L155.457 29.6043L155.642 29.8318C155.96 30.2089 156.361 30.5063 156.813 30.7003C157.193 30.849 157.597 30.9261 158.005 30.9278H159.382V10.3931H159.238Z" fill="#052127"/>
<path d="M111.359 23.8967H108.502V30.907H105.029V10.5377H111.934C116.331 10.5377 118.695 12.2748 118.695 16.9484C118.788 18.168 118.502 19.3867 117.876 20.4354C117.25 21.484 116.315 22.3106 115.201 22.8007C114.107 23.6483 112.732 24.0407 111.359 23.8967ZM111.194 20.9809C114.092 20.9809 115.14 19.5747 115.14 17.0311C115.14 14.4875 114.092 13.4742 111.42 13.4742H108.502V20.9809H111.194Z" fill="#052127"/>
<path d="M120.338 30.9898L115.57 21.8701L112.385 22.9868L115.242 28.8805C115.961 30.2867 116.454 30.9484 117.605 30.9484L120.338 30.9898Z" fill="#052127"/>
<path d="M95.946 12.0887C94.29 10.8444 92.2568 10.2159 90.1922 10.3103C84.3974 10.3103 81.3972 13.9292 81.3972 20.009V21.3531C81.2708 23.7772 81.9584 26.1736 83.3494 28.1567L81.4588 30.5762V30.9071H83.2877L84.5001 29.3561C86.1633 30.5839 88.1931 31.204 90.2539 31.1138C96.0693 31.1138 99.0489 27.4329 99.0489 21.3531V20.009C99.1937 17.6114 98.5274 15.2351 97.1584 13.2675L98.9872 10.7652V10.5378H97.1584L95.946 12.0887ZM84.9522 21.3531V20.009C84.9522 15.5629 86.4728 13.2675 90.1922 13.2675C90.8755 13.2224 91.5606 13.3204 92.2044 13.5553C92.8481 13.7903 93.4364 14.157 93.9322 14.6323L85.5481 25.2409C85.1216 23.9909 84.9198 22.6744 84.9522 21.3531ZM95.4322 21.3531C95.4322 25.8199 93.9322 28.1567 90.1922 28.1567C89.505 28.2112 88.8142 28.1177 88.1657 27.8823C87.5173 27.647 86.9261 27.2752 86.4317 26.7918L94.8363 16.1212C95.2859 17.3654 95.4884 18.6863 95.4322 20.009V21.3531Z" fill="#052127"/>
<path d="M128.558 25.2409V21.9322H136.366V19.0371H128.558V13.6604H137.229V10.7653H125.147V25.6131C125.147 29.2527 126.934 31.1345 130.428 31.1345H137.456V28.0947H131.085C129.38 28.0947 128.558 27.3088 128.558 25.2409Z" fill="#052127"/>
<path d="M174.239 10.3103C168.444 10.3103 165.444 13.9292 165.444 20.009V21.3531C165.444 27.557 168.444 31.1139 174.239 31.1139C180.034 31.1139 183.054 27.4329 183.054 21.3531V20.009C183.054 13.7845 180.054 10.3103 174.239 10.3103ZM179.479 21.3531C179.479 25.8199 177.979 28.1567 174.239 28.1567C170.499 28.1567 169.019 25.8199 169.019 21.3531V20.009C169.019 15.5629 170.52 13.2675 174.239 13.2675C177.958 13.2675 179.479 15.5629 179.479 20.009V21.3531Z" fill="#052127"/>
<path d="M186.65 10.5377V13.4742H192.589V30.907H196.041V13.4742H202V10.5377H186.65Z" fill="#052127"/>
<path d="M72.8286 10.5377C72.5327 10.5693 72.2472 10.6652 71.9918 10.8187C71.7363 10.9722 71.517 11.1798 71.3491 11.4269L65.7597 19.3679L60.2526 11.5097V11.4063C60.0572 11.1701 59.8119 10.9808 59.5346 10.852C59.2574 10.7232 58.9551 10.6582 58.6497 10.6618H56.5948V31.0104H60.0676V16.3073L65.2049 23.7519H66.4379L71.945 16.2039V24.2482V30.907H75.1301V10.5377H72.8286Z" fill="#052127"/>
<path d="M27.3137 18.5818C27.3145 19.6983 27.0899 20.8041 26.653 21.8356C26.2161 22.8671 25.5754 23.8042 24.7676 24.5931L18.6365 30.6045C16.7376 32.4804 15.6724 35.0136 15.6724 37.6535C15.6724 40.2933 16.7376 42.8265 18.6365 44.7025L25.8505 37.6463L31.9084 31.6636C33.6645 29.9488 35.057 27.9118 36.0062 25.6693C36.9554 23.4269 37.4425 21.0232 37.4396 18.5961L27.3137 18.5818Z" fill="url(#paint0_linear_172_5)"/>
<path d="M37.4332 18.1958C37.3533 15.1919 36.5244 12.253 35.019 9.63664C33.5136 7.02027 31.3777 4.80619 28.7984 3.18836C26.2191 1.57053 23.275 0.598287 20.2241 0.356806C17.1733 0.115325 14.1086 0.611969 11.2986 1.80323C8.4886 2.9945 6.019 4.84404 4.10612 7.18986C2.19324 9.53568 0.895428 12.3062 0.326374 15.2587C-0.24268 18.2113 -0.0656196 21.2558 0.842046 24.1256C1.74971 26.9953 3.36029 29.6028 5.53271 31.7196L18.7714 44.7025C16.8897 42.8367 15.8342 40.3171 15.8342 37.6915C15.8342 35.0658 16.8897 32.5463 18.7714 30.6804L12.6668 24.7015C11.0727 23.1048 10.1798 20.9582 10.1798 18.7225C10.1798 16.4868 11.0727 14.3402 12.6668 12.7435C13.8714 11.5611 15.406 10.7558 17.0767 10.4296C18.7474 10.1034 20.4792 10.2708 22.0529 10.9108C23.6267 11.5507 24.9718 12.6345 25.9183 14.0249C26.8647 15.4154 27.3699 17.0502 27.3701 18.7225C27.371 19.0896 27.3419 19.4561 27.2831 19.8186H37.4332C37.4332 19.4628 37.4332 19.0926 37.4332 18.7225C37.4332 18.3524 37.4477 18.3666 37.4332 18.1958Z" fill="url(#paint1_linear_172_5)"/>
<defs>
<linearGradient id="paint0_linear_172_5" x1="26.5675" y1="18.5818" x2="26.5675" y2="44.7311" gradientUnits="userSpaceOnUse">
<stop offset="0.17" stop-color="#77787B"/>
<stop offset="0.33" stop-color="#86888A"/>
<stop offset="0.63" stop-color="#AFB0B2"/>
<stop offset="0.85" stop-color="#D1D3D4"/>
</linearGradient>
<linearGradient id="paint1_linear_172_5" x1="36.0847" y1="25.94" x2="-0.280892" y2="18.0657" gradientUnits="userSpaceOnUse">
<stop offset="0.29" stop-color="#77787B"/>
<stop offset="0.41" stop-color="#7D7E81"/>
<stop offset="0.58" stop-color="#8F9093"/>
<stop offset="0.77" stop-color="#ACAEB0"/>
<stop offset="0.96" stop-color="#D1D3D4"/>
</linearGradient>
</defs>
</svg>
