<?xml version="1.0" encoding="utf-8"?>
<!-- Generator: Adobe Illustrator 26.0.3, SVG Export Plug-In . SVG Version: 6.00 Build 0)  -->
<svg version="1.1" id="Layer_1" xmlns="http://www.w3.org/2000/svg" xmlns:xlink="http://www.w3.org/1999/xlink" x="0px" y="0px"
	 viewBox="0 0 64 64" style="enable-background:new 0 0 64 64;" xml:space="preserve">
<style type="text/css">
	.st0{fill:none;stroke:#000000;stroke-width:1.4173;stroke-miterlimit:10;}
	.st1{fill:none;stroke:#000000;stroke-width:1.6214;stroke-miterlimit:10;}
	.st2{fill:none;stroke:#000000;stroke-width:1.4173;stroke-linecap:round;stroke-miterlimit:10;}
	.st3{stroke:#000000;stroke-width:1.4173;stroke-linecap:round;stroke-miterlimit:10;}
</style>
<g>
	<g>
		<path class="st0" d="M31.1,53.9c0,0-7-2.6-12.4-6.9c-5.5-4.3-5.5-12.4-5.5-12.4V15.8c0,0,7.2-2.9,18-7.2c0,0,8,3.3,17.9,7.5v19.1"
			/>
		<path class="st0" d="M43.5,47.1C49,42.7,49,34.7,49,34.7"/>
		<path class="st0" d="M43.5,47.1c-5.5,4.3-12.4,6.9-12.4,6.9l0,0"/>
	</g>
	<path d="M37,31.7v6.2h6.3C43.3,37.9,44.8,33.7,37,31.7z"/>
	<path class="st1" d="M19.6,26.9l0,0.6l0,1l0,2.7c-0.1,2.4-0.1,4.9,0,6.2c0,0.4,0.4,0.8,0.8,0.8c3.7,0,18.3,0.1,21.7,0.1
		c0.4,0,0.7-0.3,0.7-0.7v-1.8c-0.4-3.3-4.9-3.3-4.9-3.3c-0.1,0-0.6,0-0.6,0c-3.5-0.1-6.8-2.3-8.1-5.6c-0.4-1-0.6-1.7-0.6-1.7
		c-0.4-1.8-0.5-4.5-0.6-4.5l-1.9,0.7c-0.7,0-0.6,1.3-0.6,1.3l0.1,2.3c-0.1,1.7-1.2,1.8-1.2,1.8H19.6c-1.9-2.5,0-3.6,0-3.6l8.6-0.1"
		/>
	<line class="st2" x1="26.5" y1="28.4" x2="29.1" y2="27.4"/>
	<line class="st2" x1="27.9" y1="30.4" x2="30.5" y2="29.3"/>
	<line class="st2" x1="29.5" y1="32.1" x2="32.1" y2="30.9"/>
	<line class="st3" x1="22.2" y1="35.8" x2="24.8" y2="35.8"/>
	<line class="st3" x1="27.1" y1="35.8" x2="27.5" y2="35.8"/>
</g>
</svg>
