<svg xmlns="http://www.w3.org/2000/svg" width="27.21" height="15.872" viewBox="0 0 27.21 15.872"><defs><style>.a{fill:#40434c;fill-rule:evenodd;}</style></defs><path class="a" d="M7.936,11.8v2.721h4.5a4.287,4.287,0,0,1-4.5,3.424,5.012,5.012,0,0,1,0-10.022A4.466,4.466,0,0,1,11.1,9.15l2.154-2.075A7.607,7.607,0,0,0,7.936,5a7.936,7.936,0,1,0,0,15.873c4.58,0,7.62-3.22,7.62-7.755A7.292,7.292,0,0,0,15.43,11.8Zm0,0L27.21,14.07h-3.4v3.4H21.541v-3.4h-3.4V11.8h3.4V8.4h2.268v3.4h3.4V14.07Z" transform="translate(0 -5)"/></svg>