<svg xmlns="http://www.w3.org/2000/svg" width="24" height="24" viewBox="0 0 24 24"><defs><style>.a{fill:#40434c;}</style></defs><path class="a" d="M82.2,917.2c3.2,0,3.6,0,4.8.1,3.3.1,4.8,1.7,4.9,4.9.1,1.3.1,1.6.1,4.8s0,3.6-.1,4.8c-.1,3.2-1.7,4.8-4.9,4.9-1.3.1-1.6.1-4.8.1s-3.6,0-4.8-.1c-3.3-.1-4.8-1.7-4.9-4.9-.1-1.3-.1-1.6-.1-4.8s0-3.6.1-4.8c.1-3.2,1.7-4.8,4.9-4.9A47.767,47.767,0,0,1,82.2,917.2Zm0-2.2c-3.3,0-3.7,0-4.9.1-4.4.2-6.8,2.6-7,7-.1,1.3-.1,1.7-.1,4.9s0,3.7.1,4.9c.2,4.4,2.6,6.8,7,7,1.3.1,1.7.1,4.9.1s3.7,0,4.9-.1c4.4-.2,6.8-2.6,7-7,.1-1.3.1-1.7.1-4.9s0-3.7-.1-4.9c-.2-4.4-2.6-6.8-7-7C85.8,915,85.4,915,82.2,915Zm0,5.8a6.2,6.2,0,1,0,6.2,6.2A6.3,6.3,0,0,0,82.2,920.8Zm0,10.2a4,4,0,1,1,4-4A4.012,4.012,0,0,1,82.2,931Zm6.4-11.8a1.4,1.4,0,1,0,1.4,1.4A1.367,1.367,0,0,0,88.6,919.2Z" transform="translate(-70.199 -915)"/></svg>