<svg xmlns="http://www.w3.org/2000/svg" width="17" height="17" viewBox="0 0 17 17"><defs><style>.a{fill:#fff;}</style></defs><path class="a" d="M78.7,916.558c2.267,0,2.55,0,3.4.071,2.338.071,3.4,1.2,3.471,3.471.071.921.071,1.133.071,3.4s0,2.55-.071,3.4c-.071,2.267-1.2,3.4-3.471,3.471-.921.071-1.133.071-3.4.071s-2.55,0-3.4-.071c-2.338-.071-3.4-1.2-3.471-3.471-.071-.921-.071-1.133-.071-3.4s0-2.55.071-3.4c.071-2.267,1.2-3.4,3.471-3.471A33.842,33.842,0,0,1,78.7,916.558Zm0-1.558c-2.338,0-2.621,0-3.471.071-3.117.142-4.817,1.842-4.958,4.958-.071.921-.071,1.2-.071,3.471s0,2.621.071,3.471c.142,3.117,1.842,4.817,4.958,4.958.921.071,1.2.071,3.471.071s2.621,0,3.471-.071c3.117-.142,4.817-1.842,4.958-4.958.071-.921.071-1.2.071-3.471s0-2.621-.071-3.471c-.142-3.117-1.842-4.817-4.958-4.958C81.25,915,80.967,915,78.7,915Zm0,4.108a4.392,4.392,0,1,0,4.392,4.392A4.461,4.461,0,0,0,78.7,919.108Zm0,7.225a2.833,2.833,0,1,1,2.833-2.833A2.842,2.842,0,0,1,78.7,926.333Zm4.533-8.358a.992.992,0,1,0,.992.992A.968.968,0,0,0,83.233,917.975Z" transform="translate(-70.2 -915)"/></svg>