<svg xmlns="http://www.w3.org/2000/svg" width="569" height="685" viewBox="0 0 569 685"><defs><style>.a{fill:#142434;}.b,.c{fill:#fff;}.b{fill-rule:evenodd;}</style></defs><g transform="translate(0 -83)"><rect class="a" width="569" height="685" transform="translate(0 83)"/><g transform="translate(-56.21 -78.914)"><g transform="translate(262.21 350.914)"><g transform="translate(19.634)"><path class="b" d="M459.593,350.914c.634,2.914-.485,5.17-2.582,7.109-6.367,5.865-14.035,9.055-22.379,10.736-12.609,2.535-25.02,1.213-37.294-2.205-7.869-2.183-15.692-4.6-23.647-6.431-15.221-3.513-29.6-.415-43.57,6.338.21,3.3-.1,6.5-3.073,8.862a36.192,36.192,0,0,0-1.945-5.936,36.479,36.479,0,0,0-3.851-5.036,15.637,15.637,0,0,1,1.8-1.273c11.957-6.645,24.587-11.132,38.414-11.306,8.853-.108,17.433,1.8,25.916,4.242,7.56,2.17,15.088,4.595,22.785,6.059,13.676,2.616,27.112,1.5,39.686-5.016,3.238-1.677,6.09-4.073,9.128-6.143Z" transform="translate(-321.252 -350.914)"/></g><g transform="translate(35.337 15.808)"><path class="b" d="M371.96,398.451a3.61,3.61,0,0,1,3.715,3.658,3.8,3.8,0,0,1-3.667,3.781,3.722,3.722,0,0,1-3.532-3.584,3.567,3.567,0,0,1,3.484-3.855" transform="translate(-368.472 -398.451)"/></g><g transform="translate(0 28.598)"><path class="b" d="M262.568,436.911c.742.5,1.254.786,1.707,1.148,12,9.469,25.874,12.064,40.707,11.038,9.15-.631,17.816-3.485,26.509-6.123,9.418-2.861,18.909-5.262,28.847-5.158,11.795.111,22.773,3.388,33.252,8.562,2.612,1.289,5.133,2.725,8.325,4.433-4.346,2.691-6.917,5.7-6.428,10.741a7.339,7.339,0,0,1-3.655-7.228,2.241,2.241,0,0,0-1.479-2.594c-10.4-4.626-21.139-7.669-32.65-6.961-8.318.507-16.305,2.71-24.219,5.192-9.378,2.935-18.81,5.525-28.717,6-11.88.569-23.259-1.13-33.638-7.3a43.037,43.037,0,0,1-6.776-5.215,5.754,5.754,0,0,1-1.787-6.534" transform="translate(-262.21 -436.911)"/></g><g transform="translate(116.462 47.169)"><path class="b" d="M615.911,492.758a3.6,3.6,0,0,1,3.721,3.652,3.809,3.809,0,0,1-3.667,3.79,3.746,3.746,0,0,1-3.537-3.593,3.552,3.552,0,0,1,3.483-3.849" transform="translate(-612.423 -492.757)"/></g></g><g transform="translate(289.665 422.84)"><path class="c" d="M350.255,567.774l7.261,20.308,7.184-20.308h5.484l-10.475,26.85h-4.387l-10.551-26.85Z" transform="translate(-344.772 -567.584)"/><path class="c" d="M435.074,594.433a12.19,12.19,0,0,1-5.351-1.154,13.144,13.144,0,0,1-4.122-3.064,14.213,14.213,0,0,1-3.611-9.4,13.489,13.489,0,0,1,1-5.143,14.209,14.209,0,0,1,2.761-4.35,13.21,13.21,0,0,1,4.18-3.006,12.41,12.41,0,0,1,5.256-1.116A11.782,11.782,0,0,1,440.5,568.4a13.271,13.271,0,0,1,4.1,3.12,14.393,14.393,0,0,1,2.646,4.387,13.814,13.814,0,0,1,.945,4.991,13.574,13.574,0,0,1-.982,5.125,13.929,13.929,0,0,1-2.724,4.312,13.121,13.121,0,0,1-4.159,2.987A12.436,12.436,0,0,1,435.074,594.433Zm-7.79-13.614a10.813,10.813,0,0,0,.529,3.365,8.948,8.948,0,0,0,1.532,2.874,7.616,7.616,0,0,0,2.458,2.006,7.082,7.082,0,0,0,3.309.755,7.01,7.01,0,0,0,3.346-.775,7.63,7.63,0,0,0,2.46-2.061,9.187,9.187,0,0,0,1.511-2.894,10.717,10.717,0,0,0,.512-3.271,10.469,10.469,0,0,0-.549-3.365,9.283,9.283,0,0,0-1.551-2.874,7.392,7.392,0,0,0-2.458-1.986,7.655,7.655,0,0,0-6.638.038,7.49,7.49,0,0,0-2.458,2.042,9.207,9.207,0,0,0-1.493,2.874A10.767,10.767,0,0,0,427.284,580.819Z" transform="translate(-396.312 -567.204)"/><path class="c" d="M521.046,594.433a12.189,12.189,0,0,1-5.352-1.154,13.134,13.134,0,0,1-4.122-3.064,14.206,14.206,0,0,1-3.611-9.4,13.489,13.489,0,0,1,1-5.143,14.207,14.207,0,0,1,2.76-4.35,13.2,13.2,0,0,1,4.18-3.006,12.408,12.408,0,0,1,5.255-1.116,11.783,11.783,0,0,1,5.315,1.192,13.27,13.27,0,0,1,4.1,3.12,14.374,14.374,0,0,1,2.646,4.387,13.805,13.805,0,0,1,.945,4.991,13.585,13.585,0,0,1-.982,5.125,13.942,13.942,0,0,1-2.724,4.312,13.122,13.122,0,0,1-4.159,2.987A12.433,12.433,0,0,1,521.046,594.433Zm-7.791-13.614a10.806,10.806,0,0,0,.529,3.365,8.943,8.943,0,0,0,1.532,2.874,7.61,7.61,0,0,0,2.458,2.006,7.085,7.085,0,0,0,3.31.755,7.009,7.009,0,0,0,3.345-.775,7.633,7.633,0,0,0,2.46-2.061,9.185,9.185,0,0,0,1.511-2.894,10.716,10.716,0,0,0,.511-3.271,10.478,10.478,0,0,0-.548-3.365,9.3,9.3,0,0,0-1.551-2.874,7.394,7.394,0,0,0-2.458-1.986,7.654,7.654,0,0,0-6.638.038,7.485,7.485,0,0,0-2.458,2.042,9.2,9.2,0,0,0-1.494,2.874A10.77,10.77,0,0,0,513.256,580.819Z" transform="translate(-453.694 -567.204)"/><path class="c" d="M610.6,572.351h-8.585v22.274h-5.181V572.351h-8.584v-4.577H610.6Z" transform="translate(-507.282 -567.584)"/></g></g></g></svg>