<svg xmlns="http://www.w3.org/2000/svg" width="78" height="48.926" viewBox="0 0 78 48.926"><defs><style>.a,.b{fill:#fff;}.a{fill-rule:evenodd;}</style></defs><g transform="translate(19122 5980)"><g transform="translate(-19122 -5980)"><g transform="translate(0 0)"><g transform="translate(9.684)"><path class="a" d="M389.481,350.914a3.514,3.514,0,0,1-1.273,3.508,22.311,22.311,0,0,1-11.037,5.3,39.011,39.011,0,0,1-18.393-1.088c-3.881-1.077-7.739-2.269-11.663-3.173-7.507-1.733-14.6-.2-21.489,3.127.1,1.63-.047,3.207-1.515,4.373a9.279,9.279,0,0,0-2.859-5.414,7.7,7.7,0,0,1,.886-.628c5.9-3.279,12.126-5.493,18.946-5.579a44.214,44.214,0,0,1,12.782,2.093c3.728,1.071,7.441,2.267,11.237,2.99a29.445,29.445,0,0,0,19.573-2.475,45.5,45.5,0,0,0,4.5-3.031Z" transform="translate(-321.252 -350.914)"/></g><g transform="translate(17.428 7.8)"><path class="a" d="M370.192,398.451a1.781,1.781,0,0,1,1.832,1.8,1.877,1.877,0,0,1-1.809,1.866,1.836,1.836,0,0,1-1.742-1.769,1.76,1.76,0,0,1,1.718-1.9" transform="translate(-368.472 -398.451)"/></g><g transform="translate(0 14.111)"><path class="a" d="M262.386,436.911c.366.246.618.388.842.566,5.916,4.672,12.761,5.953,20.076,5.446,4.513-.311,8.787-1.72,13.074-3.021a47.154,47.154,0,0,1,14.227-2.545,37.526,37.526,0,0,1,16.4,4.225c1.288.636,2.531,1.344,4.106,2.187-2.144,1.328-3.412,2.811-3.17,5.3a3.622,3.622,0,0,1-1.8-3.566,1.106,1.106,0,0,0-.729-1.28c-5.128-2.282-10.426-3.784-16.1-3.435a50.2,50.2,0,0,0-11.945,2.562,56.368,56.368,0,0,1-14.163,2.959c-5.859.281-11.471-.558-16.59-3.6a21.224,21.224,0,0,1-3.342-2.573,2.84,2.84,0,0,1-.881-3.224" transform="translate(-262.21 -436.911)"/></g><g transform="translate(57.438 23.275)"><path class="a" d="M614.143,492.757a1.776,1.776,0,0,1,1.835,1.8,1.88,1.88,0,0,1-1.809,1.87,1.848,1.848,0,0,1-1.744-1.773,1.753,1.753,0,0,1,1.718-1.9" transform="translate(-612.423 -492.757)"/></g></g><g transform="translate(13.541 35.49)"><path class="b" d="M347.476,567.774l3.581,10.021,3.543-10.021h2.7l-5.166,13.249h-2.164l-5.2-13.249Z" transform="translate(-344.772 -567.681)"/><path class="b" d="M428.443,580.64a6.009,6.009,0,0,1-2.639-.569,6.484,6.484,0,0,1-2.033-1.512,7.014,7.014,0,0,1-1.781-4.637,6.66,6.66,0,0,1,.494-2.538,7.01,7.01,0,0,1,1.362-2.146,6.511,6.511,0,0,1,2.061-1.484,6.119,6.119,0,0,1,2.592-.551,5.809,5.809,0,0,1,2.621.588,6.545,6.545,0,0,1,2.024,1.539,7.1,7.1,0,0,1,1.3,2.165,6.82,6.82,0,0,1,.466,2.463,6.7,6.7,0,0,1-.484,2.529,6.875,6.875,0,0,1-1.344,2.128,6.469,6.469,0,0,1-2.051,1.474A6.127,6.127,0,0,1,428.443,580.64Zm-3.842-6.718a5.337,5.337,0,0,0,.261,1.66,4.416,4.416,0,0,0,.755,1.418,3.754,3.754,0,0,0,1.212.989,3.756,3.756,0,0,0,3.282-.009,3.763,3.763,0,0,0,1.213-1.017,4.529,4.529,0,0,0,.745-1.428,5.289,5.289,0,0,0,.252-1.614,5.169,5.169,0,0,0-.27-1.66,4.584,4.584,0,0,0-.765-1.418,3.647,3.647,0,0,0-1.212-.98,3.774,3.774,0,0,0-3.274.019,3.692,3.692,0,0,0-1.212,1.008,4.541,4.541,0,0,0-.737,1.418A5.315,5.315,0,0,0,424.6,573.922Z" transform="translate(-409.325 -567.204)"/><path class="b" d="M514.415,580.64a6.009,6.009,0,0,1-2.639-.569,6.481,6.481,0,0,1-2.033-1.512,7.012,7.012,0,0,1-1.781-4.637,6.66,6.66,0,0,1,.494-2.538,7.011,7.011,0,0,1,1.362-2.146,6.51,6.51,0,0,1,2.061-1.484,6.119,6.119,0,0,1,2.592-.551,5.809,5.809,0,0,1,2.621.588,6.545,6.545,0,0,1,2.024,1.539,7.1,7.1,0,0,1,1.305,2.165,6.818,6.818,0,0,1,.466,2.463,6.7,6.7,0,0,1-.484,2.529,6.879,6.879,0,0,1-1.344,2.128,6.471,6.471,0,0,1-2.051,1.474A6.127,6.127,0,0,1,514.415,580.64Zm-3.842-6.718a5.337,5.337,0,0,0,.261,1.66,4.417,4.417,0,0,0,.756,1.418,3.752,3.752,0,0,0,1.212.989,3.756,3.756,0,0,0,3.282-.009,3.766,3.766,0,0,0,1.213-1.017,4.531,4.531,0,0,0,.745-1.428,5.287,5.287,0,0,0,.252-1.614,5.173,5.173,0,0,0-.27-1.66,4.587,4.587,0,0,0-.765-1.418,3.646,3.646,0,0,0-1.212-.98,3.774,3.774,0,0,0-3.274.019,3.691,3.691,0,0,0-1.212,1.008,4.539,4.539,0,0,0-.737,1.418A5.316,5.316,0,0,0,510.573,573.922Z" transform="translate(-481.197 -567.204)"/><path class="b" d="M599.271,570.032h-4.234v10.99h-2.555v-10.99h-4.234v-2.258h11.023Z" transform="translate(-548.316 -567.681)"/></g></g></g></svg>