<svg xmlns="http://www.w3.org/2000/svg" width="107.475" height="67.383" viewBox="0 0 107.475 67.383"><defs><style>.a,.b{fill:#10253a;}.a{fill-rule:evenodd;}</style></defs><g transform="translate(-262.21 -350.914)"><g transform="translate(262.21 350.914)"><g transform="translate(13.343)"><path class="a" d="M415.264,350.914a4.838,4.838,0,0,1-1.755,4.831,30.748,30.748,0,0,1-15.208,7.3c-8.569,1.723-17,.824-25.344-1.5-5.347-1.483-10.664-3.125-16.07-4.37-10.344-2.387-20.117-.282-29.609,4.307.143,2.245-.065,4.417-2.088,6.023a12.779,12.779,0,0,0-3.939-7.457,10.627,10.627,0,0,1,1.221-.865c8.126-4.516,16.708-7.565,26.1-7.683a60.948,60.948,0,0,1,17.612,2.883c5.137,1.475,10.253,3.122,15.484,4.117,9.293,1.778,18.425,1.018,26.97-3.409a62.7,62.7,0,0,0,6.2-4.174Z" transform="translate(-321.252 -350.914)"/></g><g transform="translate(24.014 10.743)"><path class="a" d="M370.843,398.451a2.453,2.453,0,0,1,2.524,2.486,2.585,2.585,0,0,1-2.492,2.57,2.53,2.53,0,0,1-2.4-2.436,2.424,2.424,0,0,1,2.368-2.62" transform="translate(-368.472 -398.451)"/></g><g transform="translate(0 19.434)"><path class="a" d="M262.453,436.911c.5.338.852.534,1.16.78,8.152,6.435,17.583,8.2,27.663,7.5,6.218-.429,12.107-2.369,18.015-4.161,6.4-1.944,12.85-3.576,19.6-3.505a51.724,51.724,0,0,1,22.6,5.818c1.775.876,3.488,1.852,5.658,3.013-2.954,1.829-4.7,3.872-4.368,7.3a4.987,4.987,0,0,1-2.484-4.912,1.523,1.523,0,0,0-1.005-1.763c-7.066-3.143-14.365-5.212-22.187-4.731a69.191,69.191,0,0,0-16.458,3.528c-6.373,1.994-12.783,3.755-19.515,4.076-8.073.387-15.806-.768-22.859-4.959a29.243,29.243,0,0,1-4.6-3.544,3.911,3.911,0,0,1-1.215-4.441" transform="translate(-262.21 -436.911)"/></g><g transform="translate(79.143 32.055)"><path class="a" d="M614.793,492.757a2.446,2.446,0,0,1,2.529,2.482,2.589,2.589,0,0,1-2.492,2.576,2.546,2.546,0,0,1-2.4-2.442,2.414,2.414,0,0,1,2.367-2.615" transform="translate(-612.423 -492.757)"/></g></g><g transform="translate(280.868 399.793)"><path class="b" d="M348.5,567.774l4.934,13.8,4.882-13.8h3.727l-7.118,18.247h-2.981l-7.17-18.247Z" transform="translate(-344.772 -567.645)"/><path class="b" d="M430.881,585.708a8.283,8.283,0,0,1-3.636-.784,8.931,8.931,0,0,1-2.8-2.082,9.659,9.659,0,0,1-2.454-6.386,9.166,9.166,0,0,1,.681-3.495,9.656,9.656,0,0,1,1.876-2.956,8.976,8.976,0,0,1,2.84-2.043,8.433,8.433,0,0,1,3.572-.758,8.008,8.008,0,0,1,3.611.81,9.018,9.018,0,0,1,2.789,2.12,9.781,9.781,0,0,1,1.8,2.981,9.388,9.388,0,0,1,.642,3.391,9.226,9.226,0,0,1-.667,3.483,9.466,9.466,0,0,1-1.852,2.931,8.915,8.915,0,0,1-2.826,2.03A8.451,8.451,0,0,1,430.881,585.708Zm-5.294-9.252a7.349,7.349,0,0,0,.36,2.287,6.081,6.081,0,0,0,1.041,1.953,5.175,5.175,0,0,0,1.67,1.363,4.814,4.814,0,0,0,2.249.513,4.763,4.763,0,0,0,2.274-.527,5.186,5.186,0,0,0,1.672-1.4,6.24,6.24,0,0,0,1.027-1.966,7.282,7.282,0,0,0,.348-2.223,7.114,7.114,0,0,0-.373-2.287,6.308,6.308,0,0,0-1.054-1.953,5.023,5.023,0,0,0-1.67-1.35,5.2,5.2,0,0,0-4.511.026,5.088,5.088,0,0,0-1.67,1.387,6.258,6.258,0,0,0-1.015,1.953A7.315,7.315,0,0,0,425.587,576.456Z" transform="translate(-404.54 -567.204)"/><path class="b" d="M516.854,585.708a8.283,8.283,0,0,1-3.637-.784,8.923,8.923,0,0,1-2.8-2.082,9.654,9.654,0,0,1-2.454-6.386,9.166,9.166,0,0,1,.68-3.495,9.655,9.655,0,0,1,1.876-2.956,8.972,8.972,0,0,1,2.841-2.043,8.431,8.431,0,0,1,3.571-.758,8.008,8.008,0,0,1,3.612.81,9.019,9.019,0,0,1,2.788,2.12,9.766,9.766,0,0,1,1.8,2.981,9.38,9.38,0,0,1,.642,3.391,9.232,9.232,0,0,1-.667,3.483,9.473,9.473,0,0,1-1.851,2.931,8.917,8.917,0,0,1-2.826,2.03A8.448,8.448,0,0,1,516.854,585.708Zm-5.294-9.252a7.345,7.345,0,0,0,.36,2.287,6.079,6.079,0,0,0,1.041,1.953,5.172,5.172,0,0,0,1.67,1.363,4.816,4.816,0,0,0,2.249.513,4.763,4.763,0,0,0,2.273-.527,5.187,5.187,0,0,0,1.672-1.4,6.241,6.241,0,0,0,1.027-1.966,7.283,7.283,0,0,0,.348-2.223,7.12,7.12,0,0,0-.372-2.287,6.318,6.318,0,0,0-1.054-1.953,5.025,5.025,0,0,0-1.67-1.35,5.2,5.2,0,0,0-4.511.026,5.085,5.085,0,0,0-1.67,1.387,6.257,6.257,0,0,0-1.015,1.953A7.321,7.321,0,0,0,511.559,576.456Z" transform="translate(-471.083 -567.204)"/><path class="b" d="M603.436,570.884H597.6v15.137h-3.521V570.884h-5.833v-3.11h15.188Z" transform="translate(-533.226 -567.645)"/></g></g></svg>