<svg xmlns="http://www.w3.org/2000/svg" width="10.354" height="10.354" viewBox="0 0 10.354 10.354"><defs><style>.a{fill:none;stroke:#40434c;}.b{fill:#fff;}.c,.d{stroke:none;}.d{fill:#40434c;}</style></defs><line class="a" x2="8" y2="8" transform="translate(2 2)"/><g class="b"><path class="c" d="M 4.5 8.5 C 2.294389963150024 8.5 0.5 6.705609798431396 0.5 4.5 C 0.5 2.294389963150024 2.294389963150024 0.5 4.5 0.5 C 6.705609798431396 0.5 8.5 2.294389963150024 8.5 4.5 C 8.5 6.705609798431396 6.705609798431396 8.5 4.5 8.5 Z"/><path class="d" d="M 4.5 1 C 2.570089817047119 1 1 2.570089817047119 1 4.5 C 1 6.429909706115723 2.570089817047119 8 4.5 8 C 6.429909706115723 8 8 6.429909706115723 8 4.5 C 8 2.570089817047119 6.429909706115723 1 4.5 1 M 4.5 0 C 6.98528003692627 0 9 2.01471996307373 9 4.5 C 9 6.98528003692627 6.98528003692627 9 4.5 9 C 2.01471996307373 9 0 6.98528003692627 0 4.5 C 0 2.01471996307373 2.01471996307373 0 4.5 0 Z"/></g></svg>