<svg xmlns="http://www.w3.org/2000/svg" width="50" height="50" viewBox="0 0 50 50"><defs><style>.a,.c{fill:#10253a;}.b{fill:#fff;}.c{fill-rule:evenodd;}</style></defs><g transform="translate(-971.646 -3958.645)"><path class="a" d="M17.676,35.355H0V17.679A17.678,17.678,0,1,1,17.676,35.355Z" transform="translate(971.646 3983.646) rotate(-45)"/><g transform="translate(984.731 3971.731)"><rect class="b" width="23.828" height="23.828" rx="11.914"/><g transform="translate(3.388 6.564)"><g transform="translate(0 0)"><g transform="translate(2.141)"><path class="c" d="M336.337,350.914a.776.776,0,0,1-.281.775,4.935,4.935,0,0,1-2.44,1.171,8.631,8.631,0,0,1-4.067-.24c-.858-.238-1.711-.5-2.578-.7a7.027,7.027,0,0,0-4.751.691,1.031,1.031,0,0,1-.335.966,2.051,2.051,0,0,0-.632-1.2,1.693,1.693,0,0,1,.2-.139,8.79,8.79,0,0,1,4.189-1.233,9.781,9.781,0,0,1,2.826.463c.824.237,1.645.5,2.484.661a6.513,6.513,0,0,0,4.328-.547,10.052,10.052,0,0,0,1-.67Z" transform="translate(-321.252 -350.914)"/></g><g transform="translate(3.853 1.723)"><path class="c" d="M368.852,398.451a.394.394,0,0,1,.405.4.415.415,0,0,1-.4.412.406.406,0,0,1-.385-.391.389.389,0,0,1,.38-.42" transform="translate(-368.472 -398.451)"/></g><g transform="translate(0 3.118)"><path class="c" d="M262.249,436.911c.081.054.137.086.186.125a6.17,6.17,0,0,0,4.439,1.2,13.121,13.121,0,0,0,2.89-.667,10.427,10.427,0,0,1,3.146-.562,8.3,8.3,0,0,1,3.626.933c.285.141.56.3.908.483a1.172,1.172,0,0,0-.7,1.171.8.8,0,0,1-.4-.788.244.244,0,0,0-.161-.283,7.547,7.547,0,0,0-3.56-.759,11.1,11.1,0,0,0-2.641.566,12.463,12.463,0,0,1-3.131.654,6.383,6.383,0,0,1-3.668-.8,4.693,4.693,0,0,1-.739-.569.627.627,0,0,1-.195-.712" transform="translate(-262.21 -436.911)"/></g><g transform="translate(12.699 5.143)"><path class="c" d="M612.8,492.757a.392.392,0,0,1,.406.4.416.416,0,0,1-.4.413.408.408,0,0,1-.386-.392.387.387,0,0,1,.38-.42" transform="translate(-612.423 -492.757)"/></g></g><g transform="translate(2.994 7.842)"><path class="a" d="M345.37,567.774l.792,2.214.783-2.214h.6L346.4,570.7h-.478l-1.15-2.927Z" transform="translate(-344.772 -567.753)"/><path class="a" d="M423.417,570.173a1.33,1.33,0,0,1-.583-.126,1.439,1.439,0,0,1-.45-.334,1.551,1.551,0,0,1-.394-1.024,1.47,1.47,0,0,1,.109-.561,1.548,1.548,0,0,1,.3-.474,1.442,1.442,0,0,1,.456-.328,1.354,1.354,0,0,1,.573-.122,1.283,1.283,0,0,1,.579.13,1.448,1.448,0,0,1,.447.34,1.569,1.569,0,0,1,.288.478,1.5,1.5,0,0,1,.1.544,1.48,1.48,0,0,1-.107.559,1.521,1.521,0,0,1-.3.47,1.425,1.425,0,0,1-.453.326A1.353,1.353,0,0,1,423.417,570.173Zm-.85-1.484a1.179,1.179,0,0,0,.058.367.979.979,0,0,0,.167.313.83.83,0,0,0,.268.218.831.831,0,0,0,.726,0,.831.831,0,0,0,.268-.225,1,1,0,0,0,.165-.316,1.168,1.168,0,0,0,.056-.357,1.14,1.14,0,0,0-.06-.367,1.009,1.009,0,0,0-.169-.313.806.806,0,0,0-.268-.217.834.834,0,0,0-.724,0,.819.819,0,0,0-.268.222,1.007,1.007,0,0,0-.163.313A1.175,1.175,0,0,0,422.567,568.688Z" transform="translate(-419.19 -567.204)"/><path class="a" d="M509.389,570.173a1.33,1.33,0,0,1-.584-.126,1.437,1.437,0,0,1-.45-.334,1.549,1.549,0,0,1-.394-1.024,1.471,1.471,0,0,1,.109-.561,1.547,1.547,0,0,1,.3-.474,1.439,1.439,0,0,1,.456-.328,1.353,1.353,0,0,1,.573-.122,1.283,1.283,0,0,1,.579.13,1.448,1.448,0,0,1,.448.34,1.57,1.57,0,0,1,.288.478,1.5,1.5,0,0,1,.1.544,1.479,1.479,0,0,1-.107.559,1.525,1.525,0,0,1-.3.47,1.428,1.428,0,0,1-.453.326A1.354,1.354,0,0,1,509.389,570.173Zm-.85-1.484a1.18,1.18,0,0,0,.058.367.976.976,0,0,0,.167.313.83.83,0,0,0,.268.218.771.771,0,0,0,.361.082.763.763,0,0,0,.365-.084.832.832,0,0,0,.268-.225,1,1,0,0,0,.165-.316,1.165,1.165,0,0,0,.056-.357,1.141,1.141,0,0,0-.06-.367,1.007,1.007,0,0,0-.169-.313.807.807,0,0,0-.268-.217.834.834,0,0,0-.724,0,.815.815,0,0,0-.268.222,1,1,0,0,0-.163.313A1.175,1.175,0,0,0,508.539,568.688Z" transform="translate(-502.045 -567.204)"/><path class="a" d="M590.685,568.273h-.936V570.7h-.565v-2.428h-.936v-.5h2.437Z" transform="translate(-579.419 -567.753)"/></g></g></g></g></svg>