<svg xmlns="http://www.w3.org/2000/svg" xmlns:xlink="http://www.w3.org/1999/xlink" width="160" height="160" viewBox="0 0 160 160"><defs><style>.a,.b{fill:#fff;}.b,.c{stroke:#40434c;}.b,.c,.e{stroke-width:3px;}.c,.e,.h{fill:none;}.d,.f{fill:#40434c;}.e,.f{stroke:#fff;}.f{stroke-width:2px;}.g{stroke:none;}.i{filter:url(#a);}</style><filter id="a" x="0" y="0" width="160" height="160" filterUnits="userSpaceOnUse"><feOffset input="SourceAlpha"/><feGaussianBlur stdDeviation="10" result="b"/><feFlood flood-opacity="0.161"/><feComposite operator="in" in2="b"/><feComposite in="SourceGraphic"/></filter></defs><g transform="translate(-585 -589)"><g class="i" transform="matrix(1, 0, 0, 1, 585, 589)"><circle class="a" cx="50" cy="50" r="50" transform="translate(30 30)"/></g><g transform="translate(642.333 645.667)"><g class="b" transform="translate(0 0)"><rect class="g" width="45.333" height="44" rx="7"/><rect class="h" x="1.5" y="1.5" width="42.333" height="41" rx="5.5"/></g><g transform="translate(10 10)"><g transform="translate(0 0)"><line class="c" x2="3"/><line class="c" x2="20" transform="translate(5.333)"/></g><g transform="translate(0 8)"><line class="c" x2="3"/><line class="c" x2="20" transform="translate(5.333)"/></g><g transform="translate(0 16)"><line class="c" x2="3"/><line class="c" x2="3" transform="translate(0 8)"/><line class="c" x2="20" transform="translate(5.333)"/><line class="c" x2="10" transform="translate(5.333 8)"/></g></g><g transform="translate(32 30.667)"><circle class="d" cx="10" cy="10" r="10"/><g transform="translate(4 6)"><path class="e" d="M-468.911-12398.48l1.968.5,1.905,4.648h5.486l1.38-3.553h-5.659" transform="translate(468.912 12398.48)"/><g class="f" transform="translate(2.667 7.666)"><circle class="g" cx="1.5" cy="1.5" r="1.5"/><circle class="h" cx="1.5" cy="1.5" r="0.5"/></g><g class="f" transform="translate(7.667 7.666)"><circle class="g" cx="1.5" cy="1.5" r="1.5"/><circle class="h" cx="1.5" cy="1.5" r="0.5"/></g></g></g></g></g></svg>