<svg xmlns="http://www.w3.org/2000/svg" width="15.873" height="15.872" viewBox="0 0 15.873 15.872"><defs><style>.a{fill:#40434c;fill-rule:evenodd;}</style></defs><path class="a" d="M7.936,0A7.936,7.936,0,0,0,5.044,15.326a7.587,7.587,0,0,1,.028-2.276C5.216,12.431,6,9.106,6,9.106a2.866,2.866,0,0,1-.237-1.179C5.765,6.824,6.4,6,7.2,6a1,1,0,0,1,1,1.118A15.957,15.957,0,0,1,7.547,9.76a1.153,1.153,0,0,0,1.175,1.434c1.411,0,2.495-1.487,2.495-3.634A3.133,3.133,0,0,0,7.9,4.331,3.435,3.435,0,0,0,4.319,7.775,3.084,3.084,0,0,0,4.91,9.586a.239.239,0,0,1,.055.228l-.22.9c-.035.145-.115.177-.266.106A3.558,3.558,0,0,1,2.868,7.745c0-2.5,1.819-4.8,5.244-4.8A4.658,4.658,0,0,1,13,7.526c0,2.735-1.724,4.936-4.118,4.936a2.122,2.122,0,0,1-1.819-.911l-.495,1.887a8.831,8.831,0,0,1-.987,2.081A7.937,7.937,0,1,0,7.936,0Z"/></svg>