<svg xmlns="http://www.w3.org/2000/svg" width="19.531" height="15.872" viewBox="0 0 19.531 15.872"><defs><style>.a{fill:#40434c;}</style></defs><path class="a" d="M19.531,4.127a8,8,0,0,1-2.3.631,4.014,4.014,0,0,0,1.762-2.217,8.027,8.027,0,0,1-2.545.973A4.01,4.01,0,0,0,9.618,7.167,11.376,11.376,0,0,1,1.36,2.981,4.012,4.012,0,0,0,2.6,8.331a3.99,3.99,0,0,1-1.814-.5A4.01,4.01,0,0,0,4,11.809a4.016,4.016,0,0,1-1.81.068A4.01,4.01,0,0,0,5.933,14.66,8.057,8.057,0,0,1,0,16.32a11.344,11.344,0,0,0,6.143,1.8A11.333,11.333,0,0,0,17.532,6.2a8.158,8.158,0,0,0,2-2.074Z" transform="translate(0 -2.248)"/></svg>